M48
; CHECKMATE ROW REV A - METRIC 3:3
METRIC,TZ
T1C0.900
T2C1.000
T3C0.300
%
G90
G05
T1
X22.860Y19.400
X25.400Y19.400
X27.940Y19.400
X20.320Y14.400
X25.400Y14.400
X30.320Y20.300
X40.480Y20.300
X17.130Y40.800
X19.670Y40.800
X13.320Y33.800
X23.480Y33.800
X31.130Y40.800
X33.670Y40.800
X27.320Y33.800
X37.480Y33.800
X73.660Y19.400
X76.200Y19.400
X78.740Y19.400
X71.120Y14.400
X76.200Y14.400
X81.120Y20.300
X91.280Y20.300
X67.930Y40.800
X70.470Y40.800
X64.120Y33.800
X74.280Y33.800
X81.930Y40.800
X84.470Y40.800
X78.120Y33.800
X88.280Y33.800
X124.460Y19.400
X127.000Y19.400
X129.540Y19.400
X121.920Y14.400
X127.000Y14.400
X131.920Y20.300
X142.080Y20.300
X118.730Y40.800
X121.270Y40.800
X114.920Y33.800
X125.080Y33.800
X132.730Y40.800
X135.270Y40.800
X128.920Y33.800
X139.080Y33.800
X175.260Y19.400
X177.800Y19.400
X180.340Y19.400
X172.720Y14.400
X177.800Y14.400
X182.720Y20.300
X192.880Y20.300
X169.530Y40.800
X172.070Y40.800
X165.720Y33.800
X175.880Y33.800
X183.530Y40.800
X186.070Y40.800
X179.720Y33.800
X189.880Y33.800
X226.060Y19.400
X228.600Y19.400
X231.140Y19.400
X223.520Y14.400
X228.600Y14.400
X233.520Y20.300
X243.680Y20.300
X220.330Y40.800
X222.870Y40.800
X216.520Y33.800
X226.680Y33.800
X234.330Y40.800
X236.870Y40.800
X230.520Y33.800
X240.680Y33.800
X276.860Y19.400
X279.400Y19.400
X281.940Y19.400
X274.320Y14.400
X279.400Y14.400
X284.320Y20.300
X294.480Y20.300
X271.130Y40.800
X273.670Y40.800
X267.320Y33.800
X277.480Y33.800
X285.130Y40.800
X287.670Y40.800
X281.320Y33.800
X291.480Y33.800
X327.660Y19.400
X330.200Y19.400
X332.740Y19.400
X325.120Y14.400
X330.200Y14.400
X335.120Y20.300
X345.280Y20.300
X321.930Y40.800
X324.470Y40.800
X318.120Y33.800
X328.280Y33.800
X335.930Y40.800
X338.470Y40.800
X332.120Y33.800
X342.280Y33.800
X378.460Y19.400
X381.000Y19.400
X383.540Y19.400
X375.920Y14.400
X381.000Y14.400
X385.920Y20.300
X396.080Y20.300
X372.730Y40.800
X375.270Y40.800
X368.920Y33.800
X379.080Y33.800
X386.730Y40.800
X389.270Y40.800
X382.920Y33.800
X393.080Y33.800
X194.310Y7.990
X194.310Y15.610
X196.850Y7.990
X196.850Y15.610
X199.390Y7.990
X199.390Y15.610
X201.930Y7.990
X201.930Y15.610
X204.470Y7.990
X204.470Y15.610
X207.010Y7.990
X207.010Y15.610
X209.550Y7.990
X209.550Y15.610
X212.090Y7.990
X212.090Y15.610
X194.310Y18.300
X199.390Y18.300
X147.000Y8.260
X147.000Y13.340
X248.600Y8.260
X248.600Y13.340
X8.750Y12.800
X11.250Y12.800
X38.920Y10.800
X49.080Y10.800
X56.920Y10.800
X67.080Y10.800
X74.920Y10.800
X85.080Y10.800
T2
X4.730Y33.880
X7.270Y33.880
X4.730Y31.340
X7.270Y31.340
X4.730Y28.800
X7.270Y28.800
X4.730Y26.260
X7.270Y26.260
X4.730Y23.720
X7.270Y23.720
X399.130Y33.880
X401.670Y33.880
X399.130Y31.340
X401.670Y31.340
X399.130Y28.800
X401.670Y28.800
X399.130Y26.260
X401.670Y26.260
X399.130Y23.720
X401.670Y23.720
T3
X145.400Y3.800
X145.400Y17.800
X147.400Y3.800
X147.400Y17.800
X149.400Y3.800
X149.400Y17.800
X151.400Y3.800
X151.400Y17.800
X153.400Y3.800
X153.400Y17.800
X155.400Y3.800
X155.400Y17.800
X157.400Y3.800
X157.400Y17.800
X159.400Y3.800
X159.400Y17.800
X247.000Y3.800
X247.000Y17.800
X249.000Y3.800
X249.000Y17.800
X251.000Y3.800
X251.000Y17.800
X253.000Y3.800
X253.000Y17.800
X255.000Y3.800
X255.000Y17.800
X257.000Y3.800
X257.000Y17.800
X259.000Y3.800
X259.000Y17.800
X261.000Y3.800
X261.000Y17.800
X22.800Y14.400
X30.400Y21.200
X22.800Y21.200
X8.800Y14.600
X30.400Y33.800
X13.400Y35.600
X27.400Y35.600
X4.800Y35.800
X13.400Y35.800
X30.400Y10.800
X39.000Y14.400
X71.200Y19.400
X81.200Y21.200
X73.600Y21.200
X81.200Y33.800
X64.200Y35.600
X78.200Y35.600
X115.000Y32.000
X78.200Y32.000
X129.000Y35.600
X115.000Y35.600
X132.000Y33.800
X124.400Y21.200
X132.000Y21.200
X124.400Y14.400
X132.000Y8.200
X145.400Y8.200
X172.800Y9.600
X147.000Y9.600
X172.800Y19.400
X182.800Y21.200
X175.200Y21.200
X182.800Y18.200
X182.800Y33.800
X165.800Y35.600
X179.800Y35.600
X194.400Y13.800
X223.600Y19.400
X233.600Y21.200
X226.000Y21.200
X233.600Y33.800
X216.600Y35.600
X230.600Y35.600
X233.600Y8.200
X247.000Y8.200
X274.400Y9.600
X248.600Y9.600
X274.400Y19.400
X284.400Y21.200
X276.800Y21.200
X284.400Y33.800
X267.400Y35.600
X281.400Y35.600
X318.200Y32.000
X281.400Y32.000
X332.200Y35.600
X318.200Y35.600
X335.200Y33.800
X327.600Y21.200
X335.200Y21.200
X327.600Y14.400
X369.000Y32.000
X332.200Y32.000
X383.000Y35.600
X369.000Y35.600
X399.200Y35.600
X386.000Y33.800
X378.400Y21.200
X386.000Y21.200
X378.400Y14.400
X25.400Y12.600
X11.200Y33.800
X67.000Y12.800
X25.400Y12.800
X76.200Y12.600
X67.000Y12.600
X85.000Y14.400
X127.000Y10.800
X127.000Y17.600
X145.400Y13.400
X177.800Y12.000
X147.000Y12.000
X196.800Y12.200
X177.800Y12.200
X196.800Y18.200
X212.000Y12.200
X228.600Y8.000
X228.600Y17.600
X247.000Y13.400
X279.400Y12.000
X248.600Y12.000
X330.200Y17.600
X279.400Y17.600
X381.000Y17.600
X401.600Y37.200
X381.000Y37.200
X324.400Y33.800
X342.200Y40.800
X37.400Y40.800
X19.600Y33.800
X70.400Y33.800
X88.200Y40.800
X121.200Y33.800
X139.000Y40.800
X172.000Y33.800
X189.800Y40.800
X222.800Y33.800
X240.600Y40.800
X273.600Y33.800
X291.400Y40.800
X379.000Y40.800
X389.200Y33.800
X192.800Y22.400
X180.400Y22.400
X199.400Y16.800
X192.800Y17.000
X257.000Y39.400
X234.400Y39.400
X155.400Y10.800
X169.600Y10.800
X255.000Y38.600
X285.200Y38.600
X243.600Y19.000
X199.400Y11.000
X231.200Y11.000
X153.400Y3.000
X118.800Y3.000
X142.000Y19.000
X202.000Y23.200
X142.000Y23.200
X155.400Y39.400
X220.400Y39.400
X249.000Y6.600
X159.400Y6.600
X294.400Y19.000
X202.000Y10.200
X282.000Y10.600
X253.000Y37.800
X336.000Y37.800
X256.000Y3.800
X256.000Y37.000
X183.600Y37.000
X150.400Y3.800
X150.400Y39.400
X68.000Y39.400
X91.200Y19.000
X204.400Y24.000
X91.200Y24.000
X153.400Y32.400
X271.200Y32.400
X401.600Y22.200
X261.000Y22.200
X345.200Y19.000
X204.400Y9.400
X246.000Y9.400
X246.000Y23.000
X332.800Y23.000
X251.000Y31.000
X387.200Y31.000
X254.000Y3.800
X254.000Y38.600
X132.800Y38.600
X7.200Y7.400
X147.400Y6.800
X148.400Y3.800
X148.400Y37.800
X17.200Y37.800
X40.400Y19.000
X207.000Y24.800
X40.400Y24.800
X151.400Y30.200
X322.000Y30.200
X212.000Y28.800
X396.000Y19.000
X207.000Y3.000
X278.000Y3.000
X278.000Y16.600
X383.600Y16.600
X252.000Y3.800
X252.000Y28.000
X82.400Y28.000
X83.600Y10.800
X83.600Y25.600
X209.600Y25.600
X3.400Y28.800
X3.400Y15.800
X74.800Y15.800
X149.400Y27.200
X372.800Y27.200
X250.000Y3.800
X250.000Y31.000
X31.600Y31.000
X259.000Y26.400
X157.400Y26.400
X259.000Y26.200
X2.600Y26.200
X2.600Y22.200
X157.400Y22.200
X249.000Y22.200
X184.000Y21.600
X184.000Y17.000
X160.200Y17.000
X160.200Y18.600
X147.400Y18.600
X147.400Y28.800
X403.000Y28.800
X403.000Y21.400
X397.200Y21.400
X397.200Y23.800
X249.000Y23.800
X261.000Y2.200
X159.400Y2.200
X49.000Y9.400
X144.400Y9.400
X144.400Y2.200
X4.800Y16.600
X49.000Y16.600
X399.200Y7.400
X261.000Y7.400
X259.000Y1.400
X157.400Y1.400
X57.000Y8.200
X130.800Y8.200
X130.800Y1.400
X57.000Y26.200
X403.800Y26.200
X403.800Y8.200
X259.000Y8.200
X3.400Y31.400
X3.400Y36.800
X174.000Y36.800
X174.000Y8.000
X388.000Y31.400
X388.000Y29.600
X195.600Y29.400
X195.400Y8.000
X29.200Y31.400
X29.200Y29.600
X191.600Y29.400
X191.600Y9.400
X196.800Y9.400
X404.600Y31.400
X404.600Y15.800
X259.800Y15.800
X259.800Y19.000
X244.600Y19.000
X244.600Y5.800
X196.800Y5.800
M30
