G04 CHECKMATE ROW REV A*
%FSLAX46Y46*%
%MOMM*%
%LPD*%
G01*
%ADD10C,0.1500*%
D10*
X22400000Y27900000D02*
X28400000Y27900000D01*
X28400000Y27900000D02*
X28400000Y22900000D01*
X28400000Y22900000D02*
X22400000Y22900000D01*
X22400000Y22900000D02*
X22400000Y27900000D01*
X29400000Y26000000D02*
X29420000Y26000000D01*
X30085714Y26000000D02*
X30105714Y26000000D01*
X29400000Y25828571D02*
X29420000Y25828571D01*
X30085714Y25828571D02*
X30105714Y25828571D01*
X29400000Y25657143D02*
X29420000Y25657143D01*
X30085714Y25657143D02*
X30105714Y25657143D01*
X29400000Y25485714D02*
X29420000Y25485714D01*
X30085714Y25485714D02*
X30105714Y25485714D01*
X29400000Y25314286D02*
X29420000Y25314286D01*
X30085714Y25314286D02*
X30105714Y25314286D01*
X29400000Y25142857D02*
X29420000Y25142857D01*
X30085714Y25142857D02*
X30105714Y25142857D01*
X29571429Y24971429D02*
X29934286Y24971429D01*
X30771429Y26000000D02*
X30791429Y26000000D01*
X30600000Y25828571D02*
X30791429Y25828571D01*
X30771429Y25657143D02*
X30791429Y25657143D01*
X30771429Y25485714D02*
X30791429Y25485714D01*
X30771429Y25314286D02*
X30791429Y25314286D01*
X30771429Y25142857D02*
X30791429Y25142857D01*
X30600000Y24971429D02*
X30962857Y24971429D01*
X23400000Y25400000D02*
X27400000Y25400000D01*
X25400000Y27400000D02*
X25400000Y23400000D01*
X21800000Y30600000D02*
X22505714Y30600000D01*
X21800000Y30428571D02*
X21820000Y30428571D01*
X21800000Y30257143D02*
X21820000Y30257143D01*
X21800000Y30085714D02*
X22334286Y30085714D01*
X21800000Y29914286D02*
X21820000Y29914286D01*
X21800000Y29742857D02*
X21820000Y29742857D01*
X21800000Y29571429D02*
X21820000Y29571429D01*
X23000000Y30600000D02*
X23362857Y30600000D01*
X22828571Y30428571D02*
X22848571Y30428571D01*
X23514286Y30428571D02*
X23534286Y30428571D01*
X22828571Y30257143D02*
X22848571Y30257143D01*
X23514286Y30257143D02*
X23534286Y30257143D01*
X22828571Y30085714D02*
X23534286Y30085714D01*
X22828571Y29914286D02*
X22848571Y29914286D01*
X23514286Y29914286D02*
X23534286Y29914286D01*
X22828571Y29742857D02*
X22848571Y29742857D01*
X23514286Y29742857D02*
X23534286Y29742857D01*
X22828571Y29571429D02*
X22848571Y29571429D01*
X23514286Y29571429D02*
X23534286Y29571429D01*
X24028571Y30600000D02*
X24562857Y30600000D01*
X23857143Y30428571D02*
X23877143Y30428571D01*
X23857143Y30257143D02*
X23877143Y30257143D01*
X23857143Y30085714D02*
X23877143Y30085714D01*
X23857143Y29914286D02*
X23877143Y29914286D01*
X23857143Y29742857D02*
X23877143Y29742857D01*
X24028571Y29571429D02*
X24562857Y29571429D01*
X24885714Y30600000D02*
X25591429Y30600000D01*
X24885714Y30428571D02*
X24905714Y30428571D01*
X24885714Y30257143D02*
X24905714Y30257143D01*
X24885714Y30085714D02*
X25420000Y30085714D01*
X24885714Y29914286D02*
X24905714Y29914286D01*
X24885714Y29742857D02*
X24905714Y29742857D01*
X24885714Y29571429D02*
X25591429Y29571429D01*
X26942857Y30600000D02*
X26962857Y30600000D01*
X27628571Y30600000D02*
X27648571Y30600000D01*
X26942857Y30428571D02*
X26962857Y30428571D01*
X27628571Y30428571D02*
X27648571Y30428571D01*
X26942857Y30257143D02*
X26962857Y30257143D01*
X27628571Y30257143D02*
X27648571Y30257143D01*
X26942857Y30085714D02*
X26962857Y30085714D01*
X27628571Y30085714D02*
X27648571Y30085714D01*
X26942857Y29914286D02*
X26962857Y29914286D01*
X27628571Y29914286D02*
X27648571Y29914286D01*
X26942857Y29742857D02*
X26962857Y29742857D01*
X27628571Y29742857D02*
X27648571Y29742857D01*
X27114286Y29571429D02*
X27477143Y29571429D01*
X27971429Y30600000D02*
X28505714Y30600000D01*
X27971429Y30428571D02*
X27991429Y30428571D01*
X28657143Y30428571D02*
X28677143Y30428571D01*
X27971429Y30257143D02*
X27991429Y30257143D01*
X28657143Y30257143D02*
X28677143Y30257143D01*
X27971429Y30085714D02*
X28505714Y30085714D01*
X27971429Y29914286D02*
X27991429Y29914286D01*
X27971429Y29742857D02*
X27991429Y29742857D01*
X27971429Y29571429D02*
X27991429Y29571429D01*
X22500000Y17800000D02*
X22520000Y17800000D01*
X23185714Y17800000D02*
X23205714Y17800000D01*
X22500000Y17628571D02*
X22520000Y17628571D01*
X23185714Y17628571D02*
X23205714Y17628571D01*
X22500000Y17457143D02*
X22520000Y17457143D01*
X23185714Y17457143D02*
X23205714Y17457143D01*
X22500000Y17285714D02*
X22520000Y17285714D01*
X23185714Y17285714D02*
X23205714Y17285714D01*
X22500000Y17114286D02*
X22520000Y17114286D01*
X23185714Y17114286D02*
X23205714Y17114286D01*
X22671429Y16942857D02*
X22691429Y16942857D01*
X23014286Y16942857D02*
X23034286Y16942857D01*
X22842857Y16771429D02*
X22862857Y16771429D01*
X25271429Y17800000D02*
X25805714Y17800000D01*
X25100000Y17628571D02*
X25120000Y17628571D01*
X25100000Y17457143D02*
X25120000Y17457143D01*
X25100000Y17285714D02*
X25120000Y17285714D01*
X25442857Y17285714D02*
X25805714Y17285714D01*
X25100000Y17114286D02*
X25120000Y17114286D01*
X25785714Y17114286D02*
X25805714Y17114286D01*
X25100000Y16942857D02*
X25120000Y16942857D01*
X25785714Y16942857D02*
X25805714Y16942857D01*
X25271429Y16771429D02*
X25805714Y16771429D01*
X27771429Y17800000D02*
X28134286Y17800000D01*
X27600000Y17628571D02*
X27620000Y17628571D01*
X28285714Y17628571D02*
X28305714Y17628571D01*
X27600000Y17457143D02*
X27620000Y17457143D01*
X28285714Y17457143D02*
X28305714Y17457143D01*
X27600000Y17285714D02*
X27620000Y17285714D01*
X28285714Y17285714D02*
X28305714Y17285714D01*
X27600000Y17114286D02*
X27620000Y17114286D01*
X28285714Y17114286D02*
X28305714Y17114286D01*
X27600000Y16942857D02*
X27620000Y16942857D01*
X28285714Y16942857D02*
X28305714Y16942857D01*
X27771429Y16771429D02*
X28134286Y16771429D01*
X19860000Y15900000D02*
X25860000Y15900000D01*
X25860000Y12900000D02*
X19860000Y12900000D01*
X20031429Y11900000D02*
X20565714Y11900000D01*
X19860000Y11728571D02*
X19880000Y11728571D01*
X19860000Y11557143D02*
X19880000Y11557143D01*
X19860000Y11385714D02*
X19880000Y11385714D01*
X19860000Y11214286D02*
X19880000Y11214286D01*
X19860000Y11042857D02*
X19880000Y11042857D01*
X20031429Y10871429D02*
X20565714Y10871429D01*
X21231429Y11900000D02*
X21251429Y11900000D01*
X21060000Y11728571D02*
X21251429Y11728571D01*
X21231429Y11557143D02*
X21251429Y11557143D01*
X21231429Y11385714D02*
X21251429Y11385714D01*
X21231429Y11214286D02*
X21251429Y11214286D01*
X21231429Y11042857D02*
X21251429Y11042857D01*
X21060000Y10871429D02*
X21422857Y10871429D01*
X32150000Y21550000D02*
X38650000Y21550000D01*
X38650000Y21550000D02*
X38650000Y19050000D01*
X38650000Y19050000D02*
X32150000Y19050000D01*
X32150000Y19050000D02*
X32150000Y21550000D01*
X32150000Y18200000D02*
X32684286Y18200000D01*
X32150000Y18028571D02*
X32170000Y18028571D01*
X32835714Y18028571D02*
X32855714Y18028571D01*
X32150000Y17857143D02*
X32170000Y17857143D01*
X32835714Y17857143D02*
X32855714Y17857143D01*
X32150000Y17685714D02*
X32684286Y17685714D01*
X32150000Y17514286D02*
X32170000Y17514286D01*
X32492857Y17514286D02*
X32512857Y17514286D01*
X32150000Y17342857D02*
X32170000Y17342857D01*
X32664286Y17342857D02*
X32684286Y17342857D01*
X32150000Y17171429D02*
X32170000Y17171429D01*
X32835714Y17171429D02*
X32855714Y17171429D01*
X33521429Y18200000D02*
X33541429Y18200000D01*
X33350000Y18028571D02*
X33541429Y18028571D01*
X33521429Y17857143D02*
X33541429Y17857143D01*
X33521429Y17685714D02*
X33541429Y17685714D01*
X33521429Y17514286D02*
X33541429Y17514286D01*
X33521429Y17342857D02*
X33541429Y17342857D01*
X33350000Y17171429D02*
X33712857Y17171429D01*
X15500000Y43700000D02*
X21300000Y43700000D01*
X21300000Y43700000D02*
X21300000Y37900000D01*
X21300000Y37900000D02*
X15500000Y37900000D01*
X15500000Y37900000D02*
X15500000Y43700000D01*
X15500000Y45900000D02*
X16034286Y45900000D01*
X15500000Y45728571D02*
X15520000Y45728571D01*
X16185714Y45728571D02*
X16205714Y45728571D01*
X15500000Y45557143D02*
X15520000Y45557143D01*
X16185714Y45557143D02*
X16205714Y45557143D01*
X15500000Y45385714D02*
X15520000Y45385714D01*
X16185714Y45385714D02*
X16205714Y45385714D01*
X15500000Y45214286D02*
X15520000Y45214286D01*
X16185714Y45214286D02*
X16205714Y45214286D01*
X15500000Y45042857D02*
X15520000Y45042857D01*
X16185714Y45042857D02*
X16205714Y45042857D01*
X15500000Y44871429D02*
X16034286Y44871429D01*
X16871429Y45900000D02*
X16891429Y45900000D01*
X16700000Y45728571D02*
X16891429Y45728571D01*
X16871429Y45557143D02*
X16891429Y45557143D01*
X16871429Y45385714D02*
X16891429Y45385714D01*
X16871429Y45214286D02*
X16891429Y45214286D01*
X16871429Y45042857D02*
X16891429Y45042857D01*
X16700000Y44871429D02*
X17062857Y44871429D01*
X16400000Y37600000D02*
X16934286Y37600000D01*
X16400000Y37428571D02*
X16420000Y37428571D01*
X17085714Y37428571D02*
X17105714Y37428571D01*
X16400000Y37257143D02*
X16420000Y37257143D01*
X17085714Y37257143D02*
X17105714Y37257143D01*
X16400000Y37085714D02*
X16934286Y37085714D01*
X16400000Y36914286D02*
X16420000Y36914286D01*
X16742857Y36914286D02*
X16762857Y36914286D01*
X16400000Y36742857D02*
X16420000Y36742857D01*
X16914286Y36742857D02*
X16934286Y36742857D01*
X16400000Y36571429D02*
X16420000Y36571429D01*
X17085714Y36571429D02*
X17105714Y36571429D01*
X17428571Y37600000D02*
X18134286Y37600000D01*
X17428571Y37428571D02*
X17448571Y37428571D01*
X17428571Y37257143D02*
X17448571Y37257143D01*
X17428571Y37085714D02*
X17962857Y37085714D01*
X17428571Y36914286D02*
X17448571Y36914286D01*
X17428571Y36742857D02*
X17448571Y36742857D01*
X17428571Y36571429D02*
X18134286Y36571429D01*
X18457143Y37600000D02*
X18991429Y37600000D01*
X18457143Y37428571D02*
X18477143Y37428571D01*
X19142857Y37428571D02*
X19162857Y37428571D01*
X18457143Y37257143D02*
X18477143Y37257143D01*
X19142857Y37257143D02*
X19162857Y37257143D01*
X18457143Y37085714D02*
X18477143Y37085714D01*
X19142857Y37085714D02*
X19162857Y37085714D01*
X18457143Y36914286D02*
X18477143Y36914286D01*
X19142857Y36914286D02*
X19162857Y36914286D01*
X18457143Y36742857D02*
X18477143Y36742857D01*
X19142857Y36742857D02*
X19162857Y36742857D01*
X18457143Y36571429D02*
X18991429Y36571429D01*
X16800000Y39528571D02*
X16820000Y39528571D01*
X17314286Y39528571D02*
X17334286Y39528571D01*
X16800000Y39357143D02*
X16820000Y39357143D01*
X17142857Y39357143D02*
X17162857Y39357143D01*
X16800000Y39185714D02*
X16991429Y39185714D01*
X16800000Y39014286D02*
X16820000Y39014286D01*
X17142857Y39014286D02*
X17162857Y39014286D01*
X16800000Y38842857D02*
X16820000Y38842857D01*
X17314286Y38842857D02*
X17334286Y38842857D01*
X16800000Y38671429D02*
X16820000Y38671429D01*
X17485714Y38671429D02*
X17505714Y38671429D01*
X19400000Y39528571D02*
X19420000Y39528571D01*
X20085714Y39528571D02*
X20105714Y39528571D01*
X19400000Y39357143D02*
X19420000Y39357143D01*
X20085714Y39357143D02*
X20105714Y39357143D01*
X19400000Y39185714D02*
X20105714Y39185714D01*
X19400000Y39014286D02*
X19420000Y39014286D01*
X20085714Y39014286D02*
X20105714Y39014286D01*
X19400000Y38842857D02*
X19420000Y38842857D01*
X20085714Y38842857D02*
X20105714Y38842857D01*
X19400000Y38671429D02*
X19420000Y38671429D01*
X20085714Y38671429D02*
X20105714Y38671429D01*
X15150000Y35050000D02*
X21650000Y35050000D01*
X21650000Y35050000D02*
X21650000Y32550000D01*
X21650000Y32550000D02*
X15150000Y32550000D01*
X15150000Y32550000D02*
X15150000Y35050000D01*
X15150000Y31700000D02*
X15684286Y31700000D01*
X15150000Y31528571D02*
X15170000Y31528571D01*
X15835714Y31528571D02*
X15855714Y31528571D01*
X15150000Y31357143D02*
X15170000Y31357143D01*
X15835714Y31357143D02*
X15855714Y31357143D01*
X15150000Y31185714D02*
X15684286Y31185714D01*
X15150000Y31014286D02*
X15170000Y31014286D01*
X15492857Y31014286D02*
X15512857Y31014286D01*
X15150000Y30842857D02*
X15170000Y30842857D01*
X15664286Y30842857D02*
X15684286Y30842857D01*
X15150000Y30671429D02*
X15170000Y30671429D01*
X15835714Y30671429D02*
X15855714Y30671429D01*
X16350000Y31700000D02*
X16712857Y31700000D01*
X16178571Y31528571D02*
X16198571Y31528571D01*
X16864286Y31528571D02*
X16884286Y31528571D01*
X16178571Y31357143D02*
X16198571Y31357143D01*
X16864286Y31357143D02*
X16884286Y31357143D01*
X16350000Y31185714D02*
X16884286Y31185714D01*
X16864286Y31014286D02*
X16884286Y31014286D01*
X16864286Y30842857D02*
X16884286Y30842857D01*
X16350000Y30671429D02*
X16712857Y30671429D01*
X29500000Y43700000D02*
X35300000Y43700000D01*
X35300000Y43700000D02*
X35300000Y37900000D01*
X35300000Y37900000D02*
X29500000Y37900000D01*
X29500000Y37900000D02*
X29500000Y43700000D01*
X29500000Y45900000D02*
X30034286Y45900000D01*
X29500000Y45728571D02*
X29520000Y45728571D01*
X30185714Y45728571D02*
X30205714Y45728571D01*
X29500000Y45557143D02*
X29520000Y45557143D01*
X30185714Y45557143D02*
X30205714Y45557143D01*
X29500000Y45385714D02*
X29520000Y45385714D01*
X30185714Y45385714D02*
X30205714Y45385714D01*
X29500000Y45214286D02*
X29520000Y45214286D01*
X30185714Y45214286D02*
X30205714Y45214286D01*
X29500000Y45042857D02*
X29520000Y45042857D01*
X30185714Y45042857D02*
X30205714Y45042857D01*
X29500000Y44871429D02*
X30034286Y44871429D01*
X30700000Y45900000D02*
X31062857Y45900000D01*
X30528571Y45728571D02*
X30548571Y45728571D01*
X31214286Y45728571D02*
X31234286Y45728571D01*
X30528571Y45557143D02*
X30548571Y45557143D01*
X31214286Y45557143D02*
X31234286Y45557143D01*
X30700000Y45385714D02*
X31234286Y45385714D01*
X31214286Y45214286D02*
X31234286Y45214286D01*
X31214286Y45042857D02*
X31234286Y45042857D01*
X30700000Y44871429D02*
X31062857Y44871429D01*
X30571429Y37600000D02*
X31105714Y37600000D01*
X30400000Y37428571D02*
X30420000Y37428571D01*
X30400000Y37257143D02*
X30420000Y37257143D01*
X30400000Y37085714D02*
X30420000Y37085714D01*
X30742857Y37085714D02*
X31105714Y37085714D01*
X30400000Y36914286D02*
X30420000Y36914286D01*
X31085714Y36914286D02*
X31105714Y36914286D01*
X30400000Y36742857D02*
X30420000Y36742857D01*
X31085714Y36742857D02*
X31105714Y36742857D01*
X30571429Y36571429D02*
X31105714Y36571429D01*
X31428571Y37600000D02*
X31962857Y37600000D01*
X31428571Y37428571D02*
X31448571Y37428571D01*
X32114286Y37428571D02*
X32134286Y37428571D01*
X31428571Y37257143D02*
X31448571Y37257143D01*
X32114286Y37257143D02*
X32134286Y37257143D01*
X31428571Y37085714D02*
X31962857Y37085714D01*
X31428571Y36914286D02*
X31448571Y36914286D01*
X31771429Y36914286D02*
X31791429Y36914286D01*
X31428571Y36742857D02*
X31448571Y36742857D01*
X31942857Y36742857D02*
X31962857Y36742857D01*
X31428571Y36571429D02*
X31448571Y36571429D01*
X32114286Y36571429D02*
X32134286Y36571429D01*
X32457143Y37600000D02*
X33162857Y37600000D01*
X32457143Y37428571D02*
X32477143Y37428571D01*
X32457143Y37257143D02*
X32477143Y37257143D01*
X32457143Y37085714D02*
X32991429Y37085714D01*
X32457143Y36914286D02*
X32477143Y36914286D01*
X32457143Y36742857D02*
X32477143Y36742857D01*
X32457143Y36571429D02*
X33162857Y36571429D01*
X33485714Y37600000D02*
X34191429Y37600000D01*
X33485714Y37428571D02*
X33505714Y37428571D01*
X33485714Y37257143D02*
X33505714Y37257143D01*
X33485714Y37085714D02*
X34020000Y37085714D01*
X33485714Y36914286D02*
X33505714Y36914286D01*
X33485714Y36742857D02*
X33505714Y36742857D01*
X33485714Y36571429D02*
X34191429Y36571429D01*
X34514286Y37600000D02*
X34534286Y37600000D01*
X35200000Y37600000D02*
X35220000Y37600000D01*
X34514286Y37428571D02*
X34705714Y37428571D01*
X35200000Y37428571D02*
X35220000Y37428571D01*
X34514286Y37257143D02*
X34534286Y37257143D01*
X34857143Y37257143D02*
X34877143Y37257143D01*
X35200000Y37257143D02*
X35220000Y37257143D01*
X34514286Y37085714D02*
X34534286Y37085714D01*
X35028571Y37085714D02*
X35220000Y37085714D01*
X34514286Y36914286D02*
X34534286Y36914286D01*
X35200000Y36914286D02*
X35220000Y36914286D01*
X34514286Y36742857D02*
X34534286Y36742857D01*
X35200000Y36742857D02*
X35220000Y36742857D01*
X34514286Y36571429D02*
X34534286Y36571429D01*
X35200000Y36571429D02*
X35220000Y36571429D01*
X30800000Y39528571D02*
X30820000Y39528571D01*
X31314286Y39528571D02*
X31334286Y39528571D01*
X30800000Y39357143D02*
X30820000Y39357143D01*
X31142857Y39357143D02*
X31162857Y39357143D01*
X30800000Y39185714D02*
X30991429Y39185714D01*
X30800000Y39014286D02*
X30820000Y39014286D01*
X31142857Y39014286D02*
X31162857Y39014286D01*
X30800000Y38842857D02*
X30820000Y38842857D01*
X31314286Y38842857D02*
X31334286Y38842857D01*
X30800000Y38671429D02*
X30820000Y38671429D01*
X31485714Y38671429D02*
X31505714Y38671429D01*
X33400000Y39528571D02*
X33420000Y39528571D01*
X34085714Y39528571D02*
X34105714Y39528571D01*
X33400000Y39357143D02*
X33420000Y39357143D01*
X34085714Y39357143D02*
X34105714Y39357143D01*
X33400000Y39185714D02*
X34105714Y39185714D01*
X33400000Y39014286D02*
X33420000Y39014286D01*
X34085714Y39014286D02*
X34105714Y39014286D01*
X33400000Y38842857D02*
X33420000Y38842857D01*
X34085714Y38842857D02*
X34105714Y38842857D01*
X33400000Y38671429D02*
X33420000Y38671429D01*
X34085714Y38671429D02*
X34105714Y38671429D01*
X29150000Y35050000D02*
X35650000Y35050000D01*
X35650000Y35050000D02*
X35650000Y32550000D01*
X35650000Y32550000D02*
X29150000Y32550000D01*
X29150000Y32550000D02*
X29150000Y35050000D01*
X29150000Y31700000D02*
X29684286Y31700000D01*
X29150000Y31528571D02*
X29170000Y31528571D01*
X29835714Y31528571D02*
X29855714Y31528571D01*
X29150000Y31357143D02*
X29170000Y31357143D01*
X29835714Y31357143D02*
X29855714Y31357143D01*
X29150000Y31185714D02*
X29684286Y31185714D01*
X29150000Y31014286D02*
X29170000Y31014286D01*
X29492857Y31014286D02*
X29512857Y31014286D01*
X29150000Y30842857D02*
X29170000Y30842857D01*
X29664286Y30842857D02*
X29684286Y30842857D01*
X29150000Y30671429D02*
X29170000Y30671429D01*
X29835714Y30671429D02*
X29855714Y30671429D01*
X30521429Y31700000D02*
X30541429Y31700000D01*
X30350000Y31528571D02*
X30541429Y31528571D01*
X30521429Y31357143D02*
X30541429Y31357143D01*
X30521429Y31185714D02*
X30541429Y31185714D01*
X30521429Y31014286D02*
X30541429Y31014286D01*
X30521429Y30842857D02*
X30541429Y30842857D01*
X30350000Y30671429D02*
X30712857Y30671429D01*
X31207143Y31700000D02*
X31912857Y31700000D01*
X31892857Y31528571D02*
X31912857Y31528571D01*
X31721429Y31357143D02*
X31741429Y31357143D01*
X31550000Y31185714D02*
X31570000Y31185714D01*
X31378571Y31014286D02*
X31398571Y31014286D01*
X31378571Y30842857D02*
X31398571Y30842857D01*
X31378571Y30671429D02*
X31398571Y30671429D01*
X73200000Y27900000D02*
X79200000Y27900000D01*
X79200000Y27900000D02*
X79200000Y22900000D01*
X79200000Y22900000D02*
X73200000Y22900000D01*
X73200000Y22900000D02*
X73200000Y27900000D01*
X80200000Y26000000D02*
X80220000Y26000000D01*
X80885714Y26000000D02*
X80905714Y26000000D01*
X80200000Y25828571D02*
X80220000Y25828571D01*
X80885714Y25828571D02*
X80905714Y25828571D01*
X80200000Y25657143D02*
X80220000Y25657143D01*
X80885714Y25657143D02*
X80905714Y25657143D01*
X80200000Y25485714D02*
X80220000Y25485714D01*
X80885714Y25485714D02*
X80905714Y25485714D01*
X80200000Y25314286D02*
X80220000Y25314286D01*
X80885714Y25314286D02*
X80905714Y25314286D01*
X80200000Y25142857D02*
X80220000Y25142857D01*
X80885714Y25142857D02*
X80905714Y25142857D01*
X80371429Y24971429D02*
X80734286Y24971429D01*
X81400000Y26000000D02*
X81762857Y26000000D01*
X81228571Y25828571D02*
X81248571Y25828571D01*
X81914286Y25828571D02*
X81934286Y25828571D01*
X81914286Y25657143D02*
X81934286Y25657143D01*
X81742857Y25485714D02*
X81762857Y25485714D01*
X81571429Y25314286D02*
X81591429Y25314286D01*
X81400000Y25142857D02*
X81420000Y25142857D01*
X81228571Y24971429D02*
X81934286Y24971429D01*
X74200000Y25400000D02*
X78200000Y25400000D01*
X76200000Y27400000D02*
X76200000Y23400000D01*
X72600000Y30600000D02*
X73305714Y30600000D01*
X72600000Y30428571D02*
X72620000Y30428571D01*
X72600000Y30257143D02*
X72620000Y30257143D01*
X72600000Y30085714D02*
X73134286Y30085714D01*
X72600000Y29914286D02*
X72620000Y29914286D01*
X72600000Y29742857D02*
X72620000Y29742857D01*
X72600000Y29571429D02*
X72620000Y29571429D01*
X73800000Y30600000D02*
X74162857Y30600000D01*
X73628571Y30428571D02*
X73648571Y30428571D01*
X74314286Y30428571D02*
X74334286Y30428571D01*
X73628571Y30257143D02*
X73648571Y30257143D01*
X74314286Y30257143D02*
X74334286Y30257143D01*
X73628571Y30085714D02*
X74334286Y30085714D01*
X73628571Y29914286D02*
X73648571Y29914286D01*
X74314286Y29914286D02*
X74334286Y29914286D01*
X73628571Y29742857D02*
X73648571Y29742857D01*
X74314286Y29742857D02*
X74334286Y29742857D01*
X73628571Y29571429D02*
X73648571Y29571429D01*
X74314286Y29571429D02*
X74334286Y29571429D01*
X74828571Y30600000D02*
X75362857Y30600000D01*
X74657143Y30428571D02*
X74677143Y30428571D01*
X74657143Y30257143D02*
X74677143Y30257143D01*
X74657143Y30085714D02*
X74677143Y30085714D01*
X74657143Y29914286D02*
X74677143Y29914286D01*
X74657143Y29742857D02*
X74677143Y29742857D01*
X74828571Y29571429D02*
X75362857Y29571429D01*
X75685714Y30600000D02*
X76391429Y30600000D01*
X75685714Y30428571D02*
X75705714Y30428571D01*
X75685714Y30257143D02*
X75705714Y30257143D01*
X75685714Y30085714D02*
X76220000Y30085714D01*
X75685714Y29914286D02*
X75705714Y29914286D01*
X75685714Y29742857D02*
X75705714Y29742857D01*
X75685714Y29571429D02*
X76391429Y29571429D01*
X77742857Y30600000D02*
X77762857Y30600000D01*
X78428571Y30600000D02*
X78448571Y30600000D01*
X77742857Y30428571D02*
X77762857Y30428571D01*
X78428571Y30428571D02*
X78448571Y30428571D01*
X77742857Y30257143D02*
X77762857Y30257143D01*
X78428571Y30257143D02*
X78448571Y30257143D01*
X77742857Y30085714D02*
X77762857Y30085714D01*
X78428571Y30085714D02*
X78448571Y30085714D01*
X77742857Y29914286D02*
X77762857Y29914286D01*
X78428571Y29914286D02*
X78448571Y29914286D01*
X77742857Y29742857D02*
X77762857Y29742857D01*
X78428571Y29742857D02*
X78448571Y29742857D01*
X77914286Y29571429D02*
X78277143Y29571429D01*
X78771429Y30600000D02*
X79305714Y30600000D01*
X78771429Y30428571D02*
X78791429Y30428571D01*
X79457143Y30428571D02*
X79477143Y30428571D01*
X78771429Y30257143D02*
X78791429Y30257143D01*
X79457143Y30257143D02*
X79477143Y30257143D01*
X78771429Y30085714D02*
X79305714Y30085714D01*
X78771429Y29914286D02*
X78791429Y29914286D01*
X78771429Y29742857D02*
X78791429Y29742857D01*
X78771429Y29571429D02*
X78791429Y29571429D01*
X73300000Y17800000D02*
X73320000Y17800000D01*
X73985714Y17800000D02*
X74005714Y17800000D01*
X73300000Y17628571D02*
X73320000Y17628571D01*
X73985714Y17628571D02*
X74005714Y17628571D01*
X73300000Y17457143D02*
X73320000Y17457143D01*
X73985714Y17457143D02*
X74005714Y17457143D01*
X73300000Y17285714D02*
X73320000Y17285714D01*
X73985714Y17285714D02*
X74005714Y17285714D01*
X73300000Y17114286D02*
X73320000Y17114286D01*
X73985714Y17114286D02*
X74005714Y17114286D01*
X73471429Y16942857D02*
X73491429Y16942857D01*
X73814286Y16942857D02*
X73834286Y16942857D01*
X73642857Y16771429D02*
X73662857Y16771429D01*
X76071429Y17800000D02*
X76605714Y17800000D01*
X75900000Y17628571D02*
X75920000Y17628571D01*
X75900000Y17457143D02*
X75920000Y17457143D01*
X75900000Y17285714D02*
X75920000Y17285714D01*
X76242857Y17285714D02*
X76605714Y17285714D01*
X75900000Y17114286D02*
X75920000Y17114286D01*
X76585714Y17114286D02*
X76605714Y17114286D01*
X75900000Y16942857D02*
X75920000Y16942857D01*
X76585714Y16942857D02*
X76605714Y16942857D01*
X76071429Y16771429D02*
X76605714Y16771429D01*
X78571429Y17800000D02*
X78934286Y17800000D01*
X78400000Y17628571D02*
X78420000Y17628571D01*
X79085714Y17628571D02*
X79105714Y17628571D01*
X78400000Y17457143D02*
X78420000Y17457143D01*
X79085714Y17457143D02*
X79105714Y17457143D01*
X78400000Y17285714D02*
X78420000Y17285714D01*
X79085714Y17285714D02*
X79105714Y17285714D01*
X78400000Y17114286D02*
X78420000Y17114286D01*
X79085714Y17114286D02*
X79105714Y17114286D01*
X78400000Y16942857D02*
X78420000Y16942857D01*
X79085714Y16942857D02*
X79105714Y16942857D01*
X78571429Y16771429D02*
X78934286Y16771429D01*
X70660000Y15900000D02*
X76660000Y15900000D01*
X76660000Y12900000D02*
X70660000Y12900000D01*
X70831429Y11900000D02*
X71365714Y11900000D01*
X70660000Y11728571D02*
X70680000Y11728571D01*
X70660000Y11557143D02*
X70680000Y11557143D01*
X70660000Y11385714D02*
X70680000Y11385714D01*
X70660000Y11214286D02*
X70680000Y11214286D01*
X70660000Y11042857D02*
X70680000Y11042857D01*
X70831429Y10871429D02*
X71365714Y10871429D01*
X71860000Y11900000D02*
X72222857Y11900000D01*
X71688571Y11728571D02*
X71708571Y11728571D01*
X72374286Y11728571D02*
X72394286Y11728571D01*
X72374286Y11557143D02*
X72394286Y11557143D01*
X72202857Y11385714D02*
X72222857Y11385714D01*
X72031429Y11214286D02*
X72051429Y11214286D01*
X71860000Y11042857D02*
X71880000Y11042857D01*
X71688571Y10871429D02*
X72394286Y10871429D01*
X82950000Y21550000D02*
X89450000Y21550000D01*
X89450000Y21550000D02*
X89450000Y19050000D01*
X89450000Y19050000D02*
X82950000Y19050000D01*
X82950000Y19050000D02*
X82950000Y21550000D01*
X82950000Y18200000D02*
X83484286Y18200000D01*
X82950000Y18028571D02*
X82970000Y18028571D01*
X83635714Y18028571D02*
X83655714Y18028571D01*
X82950000Y17857143D02*
X82970000Y17857143D01*
X83635714Y17857143D02*
X83655714Y17857143D01*
X82950000Y17685714D02*
X83484286Y17685714D01*
X82950000Y17514286D02*
X82970000Y17514286D01*
X83292857Y17514286D02*
X83312857Y17514286D01*
X82950000Y17342857D02*
X82970000Y17342857D01*
X83464286Y17342857D02*
X83484286Y17342857D01*
X82950000Y17171429D02*
X82970000Y17171429D01*
X83635714Y17171429D02*
X83655714Y17171429D01*
X84150000Y18200000D02*
X84512857Y18200000D01*
X83978571Y18028571D02*
X83998571Y18028571D01*
X84664286Y18028571D02*
X84684286Y18028571D01*
X84664286Y17857143D02*
X84684286Y17857143D01*
X84492857Y17685714D02*
X84512857Y17685714D01*
X84321429Y17514286D02*
X84341429Y17514286D01*
X84150000Y17342857D02*
X84170000Y17342857D01*
X83978571Y17171429D02*
X84684286Y17171429D01*
X66300000Y43700000D02*
X72100000Y43700000D01*
X72100000Y43700000D02*
X72100000Y37900000D01*
X72100000Y37900000D02*
X66300000Y37900000D01*
X66300000Y37900000D02*
X66300000Y43700000D01*
X66300000Y45900000D02*
X66834286Y45900000D01*
X66300000Y45728571D02*
X66320000Y45728571D01*
X66985714Y45728571D02*
X67005714Y45728571D01*
X66300000Y45557143D02*
X66320000Y45557143D01*
X66985714Y45557143D02*
X67005714Y45557143D01*
X66300000Y45385714D02*
X66320000Y45385714D01*
X66985714Y45385714D02*
X67005714Y45385714D01*
X66300000Y45214286D02*
X66320000Y45214286D01*
X66985714Y45214286D02*
X67005714Y45214286D01*
X66300000Y45042857D02*
X66320000Y45042857D01*
X66985714Y45042857D02*
X67005714Y45042857D01*
X66300000Y44871429D02*
X66834286Y44871429D01*
X67500000Y45900000D02*
X67862857Y45900000D01*
X67328571Y45728571D02*
X67348571Y45728571D01*
X68014286Y45728571D02*
X68034286Y45728571D01*
X68014286Y45557143D02*
X68034286Y45557143D01*
X67842857Y45385714D02*
X67862857Y45385714D01*
X67671429Y45214286D02*
X67691429Y45214286D01*
X67500000Y45042857D02*
X67520000Y45042857D01*
X67328571Y44871429D02*
X68034286Y44871429D01*
X67200000Y37600000D02*
X67734286Y37600000D01*
X67200000Y37428571D02*
X67220000Y37428571D01*
X67885714Y37428571D02*
X67905714Y37428571D01*
X67200000Y37257143D02*
X67220000Y37257143D01*
X67885714Y37257143D02*
X67905714Y37257143D01*
X67200000Y37085714D02*
X67734286Y37085714D01*
X67200000Y36914286D02*
X67220000Y36914286D01*
X67542857Y36914286D02*
X67562857Y36914286D01*
X67200000Y36742857D02*
X67220000Y36742857D01*
X67714286Y36742857D02*
X67734286Y36742857D01*
X67200000Y36571429D02*
X67220000Y36571429D01*
X67885714Y36571429D02*
X67905714Y36571429D01*
X68228571Y37600000D02*
X68934286Y37600000D01*
X68228571Y37428571D02*
X68248571Y37428571D01*
X68228571Y37257143D02*
X68248571Y37257143D01*
X68228571Y37085714D02*
X68762857Y37085714D01*
X68228571Y36914286D02*
X68248571Y36914286D01*
X68228571Y36742857D02*
X68248571Y36742857D01*
X68228571Y36571429D02*
X68934286Y36571429D01*
X69257143Y37600000D02*
X69791429Y37600000D01*
X69257143Y37428571D02*
X69277143Y37428571D01*
X69942857Y37428571D02*
X69962857Y37428571D01*
X69257143Y37257143D02*
X69277143Y37257143D01*
X69942857Y37257143D02*
X69962857Y37257143D01*
X69257143Y37085714D02*
X69277143Y37085714D01*
X69942857Y37085714D02*
X69962857Y37085714D01*
X69257143Y36914286D02*
X69277143Y36914286D01*
X69942857Y36914286D02*
X69962857Y36914286D01*
X69257143Y36742857D02*
X69277143Y36742857D01*
X69942857Y36742857D02*
X69962857Y36742857D01*
X69257143Y36571429D02*
X69791429Y36571429D01*
X67600000Y39528571D02*
X67620000Y39528571D01*
X68114286Y39528571D02*
X68134286Y39528571D01*
X67600000Y39357143D02*
X67620000Y39357143D01*
X67942857Y39357143D02*
X67962857Y39357143D01*
X67600000Y39185714D02*
X67791429Y39185714D01*
X67600000Y39014286D02*
X67620000Y39014286D01*
X67942857Y39014286D02*
X67962857Y39014286D01*
X67600000Y38842857D02*
X67620000Y38842857D01*
X68114286Y38842857D02*
X68134286Y38842857D01*
X67600000Y38671429D02*
X67620000Y38671429D01*
X68285714Y38671429D02*
X68305714Y38671429D01*
X70200000Y39528571D02*
X70220000Y39528571D01*
X70885714Y39528571D02*
X70905714Y39528571D01*
X70200000Y39357143D02*
X70220000Y39357143D01*
X70885714Y39357143D02*
X70905714Y39357143D01*
X70200000Y39185714D02*
X70905714Y39185714D01*
X70200000Y39014286D02*
X70220000Y39014286D01*
X70885714Y39014286D02*
X70905714Y39014286D01*
X70200000Y38842857D02*
X70220000Y38842857D01*
X70885714Y38842857D02*
X70905714Y38842857D01*
X70200000Y38671429D02*
X70220000Y38671429D01*
X70885714Y38671429D02*
X70905714Y38671429D01*
X65950000Y35050000D02*
X72450000Y35050000D01*
X72450000Y35050000D02*
X72450000Y32550000D01*
X72450000Y32550000D02*
X65950000Y32550000D01*
X65950000Y32550000D02*
X65950000Y35050000D01*
X65950000Y31700000D02*
X66484286Y31700000D01*
X65950000Y31528571D02*
X65970000Y31528571D01*
X66635714Y31528571D02*
X66655714Y31528571D01*
X65950000Y31357143D02*
X65970000Y31357143D01*
X66635714Y31357143D02*
X66655714Y31357143D01*
X65950000Y31185714D02*
X66484286Y31185714D01*
X65950000Y31014286D02*
X65970000Y31014286D01*
X66292857Y31014286D02*
X66312857Y31014286D01*
X65950000Y30842857D02*
X65970000Y30842857D01*
X66464286Y30842857D02*
X66484286Y30842857D01*
X65950000Y30671429D02*
X65970000Y30671429D01*
X66635714Y30671429D02*
X66655714Y30671429D01*
X67321429Y31700000D02*
X67341429Y31700000D01*
X67150000Y31528571D02*
X67341429Y31528571D01*
X67321429Y31357143D02*
X67341429Y31357143D01*
X67321429Y31185714D02*
X67341429Y31185714D01*
X67321429Y31014286D02*
X67341429Y31014286D01*
X67321429Y30842857D02*
X67341429Y30842857D01*
X67150000Y30671429D02*
X67512857Y30671429D01*
X68178571Y31700000D02*
X68541429Y31700000D01*
X68007143Y31528571D02*
X68027143Y31528571D01*
X68692857Y31528571D02*
X68712857Y31528571D01*
X68007143Y31357143D02*
X68027143Y31357143D01*
X68521429Y31357143D02*
X68712857Y31357143D01*
X68007143Y31185714D02*
X68027143Y31185714D01*
X68350000Y31185714D02*
X68370000Y31185714D01*
X68692857Y31185714D02*
X68712857Y31185714D01*
X68007143Y31014286D02*
X68198571Y31014286D01*
X68692857Y31014286D02*
X68712857Y31014286D01*
X68007143Y30842857D02*
X68027143Y30842857D01*
X68692857Y30842857D02*
X68712857Y30842857D01*
X68178571Y30671429D02*
X68541429Y30671429D01*
X80300000Y43700000D02*
X86100000Y43700000D01*
X86100000Y43700000D02*
X86100000Y37900000D01*
X86100000Y37900000D02*
X80300000Y37900000D01*
X80300000Y37900000D02*
X80300000Y43700000D01*
X80300000Y45900000D02*
X80834286Y45900000D01*
X80300000Y45728571D02*
X80320000Y45728571D01*
X80985714Y45728571D02*
X81005714Y45728571D01*
X80300000Y45557143D02*
X80320000Y45557143D01*
X80985714Y45557143D02*
X81005714Y45557143D01*
X80300000Y45385714D02*
X80320000Y45385714D01*
X80985714Y45385714D02*
X81005714Y45385714D01*
X80300000Y45214286D02*
X80320000Y45214286D01*
X80985714Y45214286D02*
X81005714Y45214286D01*
X80300000Y45042857D02*
X80320000Y45042857D01*
X80985714Y45042857D02*
X81005714Y45042857D01*
X80300000Y44871429D02*
X80834286Y44871429D01*
X81671429Y45900000D02*
X81691429Y45900000D01*
X81500000Y45728571D02*
X81691429Y45728571D01*
X81671429Y45557143D02*
X81691429Y45557143D01*
X81671429Y45385714D02*
X81691429Y45385714D01*
X81671429Y45214286D02*
X81691429Y45214286D01*
X81671429Y45042857D02*
X81691429Y45042857D01*
X81500000Y44871429D02*
X81862857Y44871429D01*
X82528571Y45900000D02*
X82891429Y45900000D01*
X82357143Y45728571D02*
X82377143Y45728571D01*
X83042857Y45728571D02*
X83062857Y45728571D01*
X82357143Y45557143D02*
X82377143Y45557143D01*
X82871429Y45557143D02*
X83062857Y45557143D01*
X82357143Y45385714D02*
X82377143Y45385714D01*
X82700000Y45385714D02*
X82720000Y45385714D01*
X83042857Y45385714D02*
X83062857Y45385714D01*
X82357143Y45214286D02*
X82548571Y45214286D01*
X83042857Y45214286D02*
X83062857Y45214286D01*
X82357143Y45042857D02*
X82377143Y45042857D01*
X83042857Y45042857D02*
X83062857Y45042857D01*
X82528571Y44871429D02*
X82891429Y44871429D01*
X81371429Y37600000D02*
X81905714Y37600000D01*
X81200000Y37428571D02*
X81220000Y37428571D01*
X81200000Y37257143D02*
X81220000Y37257143D01*
X81200000Y37085714D02*
X81220000Y37085714D01*
X81542857Y37085714D02*
X81905714Y37085714D01*
X81200000Y36914286D02*
X81220000Y36914286D01*
X81885714Y36914286D02*
X81905714Y36914286D01*
X81200000Y36742857D02*
X81220000Y36742857D01*
X81885714Y36742857D02*
X81905714Y36742857D01*
X81371429Y36571429D02*
X81905714Y36571429D01*
X82228571Y37600000D02*
X82762857Y37600000D01*
X82228571Y37428571D02*
X82248571Y37428571D01*
X82914286Y37428571D02*
X82934286Y37428571D01*
X82228571Y37257143D02*
X82248571Y37257143D01*
X82914286Y37257143D02*
X82934286Y37257143D01*
X82228571Y37085714D02*
X82762857Y37085714D01*
X82228571Y36914286D02*
X82248571Y36914286D01*
X82571429Y36914286D02*
X82591429Y36914286D01*
X82228571Y36742857D02*
X82248571Y36742857D01*
X82742857Y36742857D02*
X82762857Y36742857D01*
X82228571Y36571429D02*
X82248571Y36571429D01*
X82914286Y36571429D02*
X82934286Y36571429D01*
X83257143Y37600000D02*
X83962857Y37600000D01*
X83257143Y37428571D02*
X83277143Y37428571D01*
X83257143Y37257143D02*
X83277143Y37257143D01*
X83257143Y37085714D02*
X83791429Y37085714D01*
X83257143Y36914286D02*
X83277143Y36914286D01*
X83257143Y36742857D02*
X83277143Y36742857D01*
X83257143Y36571429D02*
X83962857Y36571429D01*
X84285714Y37600000D02*
X84991429Y37600000D01*
X84285714Y37428571D02*
X84305714Y37428571D01*
X84285714Y37257143D02*
X84305714Y37257143D01*
X84285714Y37085714D02*
X84820000Y37085714D01*
X84285714Y36914286D02*
X84305714Y36914286D01*
X84285714Y36742857D02*
X84305714Y36742857D01*
X84285714Y36571429D02*
X84991429Y36571429D01*
X85314286Y37600000D02*
X85334286Y37600000D01*
X86000000Y37600000D02*
X86020000Y37600000D01*
X85314286Y37428571D02*
X85505714Y37428571D01*
X86000000Y37428571D02*
X86020000Y37428571D01*
X85314286Y37257143D02*
X85334286Y37257143D01*
X85657143Y37257143D02*
X85677143Y37257143D01*
X86000000Y37257143D02*
X86020000Y37257143D01*
X85314286Y37085714D02*
X85334286Y37085714D01*
X85828571Y37085714D02*
X86020000Y37085714D01*
X85314286Y36914286D02*
X85334286Y36914286D01*
X86000000Y36914286D02*
X86020000Y36914286D01*
X85314286Y36742857D02*
X85334286Y36742857D01*
X86000000Y36742857D02*
X86020000Y36742857D01*
X85314286Y36571429D02*
X85334286Y36571429D01*
X86000000Y36571429D02*
X86020000Y36571429D01*
X81600000Y39528571D02*
X81620000Y39528571D01*
X82114286Y39528571D02*
X82134286Y39528571D01*
X81600000Y39357143D02*
X81620000Y39357143D01*
X81942857Y39357143D02*
X81962857Y39357143D01*
X81600000Y39185714D02*
X81791429Y39185714D01*
X81600000Y39014286D02*
X81620000Y39014286D01*
X81942857Y39014286D02*
X81962857Y39014286D01*
X81600000Y38842857D02*
X81620000Y38842857D01*
X82114286Y38842857D02*
X82134286Y38842857D01*
X81600000Y38671429D02*
X81620000Y38671429D01*
X82285714Y38671429D02*
X82305714Y38671429D01*
X84200000Y39528571D02*
X84220000Y39528571D01*
X84885714Y39528571D02*
X84905714Y39528571D01*
X84200000Y39357143D02*
X84220000Y39357143D01*
X84885714Y39357143D02*
X84905714Y39357143D01*
X84200000Y39185714D02*
X84905714Y39185714D01*
X84200000Y39014286D02*
X84220000Y39014286D01*
X84885714Y39014286D02*
X84905714Y39014286D01*
X84200000Y38842857D02*
X84220000Y38842857D01*
X84885714Y38842857D02*
X84905714Y38842857D01*
X84200000Y38671429D02*
X84220000Y38671429D01*
X84885714Y38671429D02*
X84905714Y38671429D01*
X79950000Y35050000D02*
X86450000Y35050000D01*
X86450000Y35050000D02*
X86450000Y32550000D01*
X86450000Y32550000D02*
X79950000Y32550000D01*
X79950000Y32550000D02*
X79950000Y35050000D01*
X79950000Y31700000D02*
X80484286Y31700000D01*
X79950000Y31528571D02*
X79970000Y31528571D01*
X80635714Y31528571D02*
X80655714Y31528571D01*
X79950000Y31357143D02*
X79970000Y31357143D01*
X80635714Y31357143D02*
X80655714Y31357143D01*
X79950000Y31185714D02*
X80484286Y31185714D01*
X79950000Y31014286D02*
X79970000Y31014286D01*
X80292857Y31014286D02*
X80312857Y31014286D01*
X79950000Y30842857D02*
X79970000Y30842857D01*
X80464286Y30842857D02*
X80484286Y30842857D01*
X79950000Y30671429D02*
X79970000Y30671429D01*
X80635714Y30671429D02*
X80655714Y30671429D01*
X81321429Y31700000D02*
X81341429Y31700000D01*
X81150000Y31528571D02*
X81341429Y31528571D01*
X81321429Y31357143D02*
X81341429Y31357143D01*
X81321429Y31185714D02*
X81341429Y31185714D01*
X81321429Y31014286D02*
X81341429Y31014286D01*
X81321429Y30842857D02*
X81341429Y30842857D01*
X81150000Y30671429D02*
X81512857Y30671429D01*
X82178571Y31700000D02*
X82541429Y31700000D01*
X82007143Y31528571D02*
X82027143Y31528571D01*
X82692857Y31528571D02*
X82712857Y31528571D01*
X82007143Y31357143D02*
X82027143Y31357143D01*
X82692857Y31357143D02*
X82712857Y31357143D01*
X82178571Y31185714D02*
X82541429Y31185714D01*
X82007143Y31014286D02*
X82027143Y31014286D01*
X82692857Y31014286D02*
X82712857Y31014286D01*
X82007143Y30842857D02*
X82027143Y30842857D01*
X82692857Y30842857D02*
X82712857Y30842857D01*
X82178571Y30671429D02*
X82541429Y30671429D01*
X124000000Y27900000D02*
X130000000Y27900000D01*
X130000000Y27900000D02*
X130000000Y22900000D01*
X130000000Y22900000D02*
X124000000Y22900000D01*
X124000000Y22900000D02*
X124000000Y27900000D01*
X131000000Y26000000D02*
X131020000Y26000000D01*
X131685714Y26000000D02*
X131705714Y26000000D01*
X131000000Y25828571D02*
X131020000Y25828571D01*
X131685714Y25828571D02*
X131705714Y25828571D01*
X131000000Y25657143D02*
X131020000Y25657143D01*
X131685714Y25657143D02*
X131705714Y25657143D01*
X131000000Y25485714D02*
X131020000Y25485714D01*
X131685714Y25485714D02*
X131705714Y25485714D01*
X131000000Y25314286D02*
X131020000Y25314286D01*
X131685714Y25314286D02*
X131705714Y25314286D01*
X131000000Y25142857D02*
X131020000Y25142857D01*
X131685714Y25142857D02*
X131705714Y25142857D01*
X131171429Y24971429D02*
X131534286Y24971429D01*
X132028571Y26000000D02*
X132562857Y26000000D01*
X132714286Y25828571D02*
X132734286Y25828571D01*
X132714286Y25657143D02*
X132734286Y25657143D01*
X132200000Y25485714D02*
X132562857Y25485714D01*
X132714286Y25314286D02*
X132734286Y25314286D01*
X132714286Y25142857D02*
X132734286Y25142857D01*
X132028571Y24971429D02*
X132562857Y24971429D01*
X125000000Y25400000D02*
X129000000Y25400000D01*
X127000000Y27400000D02*
X127000000Y23400000D01*
X123400000Y30600000D02*
X124105714Y30600000D01*
X123400000Y30428571D02*
X123420000Y30428571D01*
X123400000Y30257143D02*
X123420000Y30257143D01*
X123400000Y30085714D02*
X123934286Y30085714D01*
X123400000Y29914286D02*
X123420000Y29914286D01*
X123400000Y29742857D02*
X123420000Y29742857D01*
X123400000Y29571429D02*
X123420000Y29571429D01*
X124600000Y30600000D02*
X124962857Y30600000D01*
X124428571Y30428571D02*
X124448571Y30428571D01*
X125114286Y30428571D02*
X125134286Y30428571D01*
X124428571Y30257143D02*
X124448571Y30257143D01*
X125114286Y30257143D02*
X125134286Y30257143D01*
X124428571Y30085714D02*
X125134286Y30085714D01*
X124428571Y29914286D02*
X124448571Y29914286D01*
X125114286Y29914286D02*
X125134286Y29914286D01*
X124428571Y29742857D02*
X124448571Y29742857D01*
X125114286Y29742857D02*
X125134286Y29742857D01*
X124428571Y29571429D02*
X124448571Y29571429D01*
X125114286Y29571429D02*
X125134286Y29571429D01*
X125628571Y30600000D02*
X126162857Y30600000D01*
X125457143Y30428571D02*
X125477143Y30428571D01*
X125457143Y30257143D02*
X125477143Y30257143D01*
X125457143Y30085714D02*
X125477143Y30085714D01*
X125457143Y29914286D02*
X125477143Y29914286D01*
X125457143Y29742857D02*
X125477143Y29742857D01*
X125628571Y29571429D02*
X126162857Y29571429D01*
X126485714Y30600000D02*
X127191429Y30600000D01*
X126485714Y30428571D02*
X126505714Y30428571D01*
X126485714Y30257143D02*
X126505714Y30257143D01*
X126485714Y30085714D02*
X127020000Y30085714D01*
X126485714Y29914286D02*
X126505714Y29914286D01*
X126485714Y29742857D02*
X126505714Y29742857D01*
X126485714Y29571429D02*
X127191429Y29571429D01*
X128542857Y30600000D02*
X128562857Y30600000D01*
X129228571Y30600000D02*
X129248571Y30600000D01*
X128542857Y30428571D02*
X128562857Y30428571D01*
X129228571Y30428571D02*
X129248571Y30428571D01*
X128542857Y30257143D02*
X128562857Y30257143D01*
X129228571Y30257143D02*
X129248571Y30257143D01*
X128542857Y30085714D02*
X128562857Y30085714D01*
X129228571Y30085714D02*
X129248571Y30085714D01*
X128542857Y29914286D02*
X128562857Y29914286D01*
X129228571Y29914286D02*
X129248571Y29914286D01*
X128542857Y29742857D02*
X128562857Y29742857D01*
X129228571Y29742857D02*
X129248571Y29742857D01*
X128714286Y29571429D02*
X129077143Y29571429D01*
X129571429Y30600000D02*
X130105714Y30600000D01*
X129571429Y30428571D02*
X129591429Y30428571D01*
X130257143Y30428571D02*
X130277143Y30428571D01*
X129571429Y30257143D02*
X129591429Y30257143D01*
X130257143Y30257143D02*
X130277143Y30257143D01*
X129571429Y30085714D02*
X130105714Y30085714D01*
X129571429Y29914286D02*
X129591429Y29914286D01*
X129571429Y29742857D02*
X129591429Y29742857D01*
X129571429Y29571429D02*
X129591429Y29571429D01*
X124100000Y17800000D02*
X124120000Y17800000D01*
X124785714Y17800000D02*
X124805714Y17800000D01*
X124100000Y17628571D02*
X124120000Y17628571D01*
X124785714Y17628571D02*
X124805714Y17628571D01*
X124100000Y17457143D02*
X124120000Y17457143D01*
X124785714Y17457143D02*
X124805714Y17457143D01*
X124100000Y17285714D02*
X124120000Y17285714D01*
X124785714Y17285714D02*
X124805714Y17285714D01*
X124100000Y17114286D02*
X124120000Y17114286D01*
X124785714Y17114286D02*
X124805714Y17114286D01*
X124271429Y16942857D02*
X124291429Y16942857D01*
X124614286Y16942857D02*
X124634286Y16942857D01*
X124442857Y16771429D02*
X124462857Y16771429D01*
X126871429Y17800000D02*
X127405714Y17800000D01*
X126700000Y17628571D02*
X126720000Y17628571D01*
X126700000Y17457143D02*
X126720000Y17457143D01*
X126700000Y17285714D02*
X126720000Y17285714D01*
X127042857Y17285714D02*
X127405714Y17285714D01*
X126700000Y17114286D02*
X126720000Y17114286D01*
X127385714Y17114286D02*
X127405714Y17114286D01*
X126700000Y16942857D02*
X126720000Y16942857D01*
X127385714Y16942857D02*
X127405714Y16942857D01*
X126871429Y16771429D02*
X127405714Y16771429D01*
X129371429Y17800000D02*
X129734286Y17800000D01*
X129200000Y17628571D02*
X129220000Y17628571D01*
X129885714Y17628571D02*
X129905714Y17628571D01*
X129200000Y17457143D02*
X129220000Y17457143D01*
X129885714Y17457143D02*
X129905714Y17457143D01*
X129200000Y17285714D02*
X129220000Y17285714D01*
X129885714Y17285714D02*
X129905714Y17285714D01*
X129200000Y17114286D02*
X129220000Y17114286D01*
X129885714Y17114286D02*
X129905714Y17114286D01*
X129200000Y16942857D02*
X129220000Y16942857D01*
X129885714Y16942857D02*
X129905714Y16942857D01*
X129371429Y16771429D02*
X129734286Y16771429D01*
X121460000Y15900000D02*
X127460000Y15900000D01*
X127460000Y12900000D02*
X121460000Y12900000D01*
X121631429Y11900000D02*
X122165714Y11900000D01*
X121460000Y11728571D02*
X121480000Y11728571D01*
X121460000Y11557143D02*
X121480000Y11557143D01*
X121460000Y11385714D02*
X121480000Y11385714D01*
X121460000Y11214286D02*
X121480000Y11214286D01*
X121460000Y11042857D02*
X121480000Y11042857D01*
X121631429Y10871429D02*
X122165714Y10871429D01*
X122488571Y11900000D02*
X123022857Y11900000D01*
X123174286Y11728571D02*
X123194286Y11728571D01*
X123174286Y11557143D02*
X123194286Y11557143D01*
X122660000Y11385714D02*
X123022857Y11385714D01*
X123174286Y11214286D02*
X123194286Y11214286D01*
X123174286Y11042857D02*
X123194286Y11042857D01*
X122488571Y10871429D02*
X123022857Y10871429D01*
X133750000Y21550000D02*
X140250000Y21550000D01*
X140250000Y21550000D02*
X140250000Y19050000D01*
X140250000Y19050000D02*
X133750000Y19050000D01*
X133750000Y19050000D02*
X133750000Y21550000D01*
X133750000Y18200000D02*
X134284286Y18200000D01*
X133750000Y18028571D02*
X133770000Y18028571D01*
X134435714Y18028571D02*
X134455714Y18028571D01*
X133750000Y17857143D02*
X133770000Y17857143D01*
X134435714Y17857143D02*
X134455714Y17857143D01*
X133750000Y17685714D02*
X134284286Y17685714D01*
X133750000Y17514286D02*
X133770000Y17514286D01*
X134092857Y17514286D02*
X134112857Y17514286D01*
X133750000Y17342857D02*
X133770000Y17342857D01*
X134264286Y17342857D02*
X134284286Y17342857D01*
X133750000Y17171429D02*
X133770000Y17171429D01*
X134435714Y17171429D02*
X134455714Y17171429D01*
X134778571Y18200000D02*
X135312857Y18200000D01*
X135464286Y18028571D02*
X135484286Y18028571D01*
X135464286Y17857143D02*
X135484286Y17857143D01*
X134950000Y17685714D02*
X135312857Y17685714D01*
X135464286Y17514286D02*
X135484286Y17514286D01*
X135464286Y17342857D02*
X135484286Y17342857D01*
X134778571Y17171429D02*
X135312857Y17171429D01*
X117100000Y43700000D02*
X122900000Y43700000D01*
X122900000Y43700000D02*
X122900000Y37900000D01*
X122900000Y37900000D02*
X117100000Y37900000D01*
X117100000Y37900000D02*
X117100000Y43700000D01*
X117100000Y45900000D02*
X117634286Y45900000D01*
X117100000Y45728571D02*
X117120000Y45728571D01*
X117785714Y45728571D02*
X117805714Y45728571D01*
X117100000Y45557143D02*
X117120000Y45557143D01*
X117785714Y45557143D02*
X117805714Y45557143D01*
X117100000Y45385714D02*
X117120000Y45385714D01*
X117785714Y45385714D02*
X117805714Y45385714D01*
X117100000Y45214286D02*
X117120000Y45214286D01*
X117785714Y45214286D02*
X117805714Y45214286D01*
X117100000Y45042857D02*
X117120000Y45042857D01*
X117785714Y45042857D02*
X117805714Y45042857D01*
X117100000Y44871429D02*
X117634286Y44871429D01*
X118128571Y45900000D02*
X118662857Y45900000D01*
X118814286Y45728571D02*
X118834286Y45728571D01*
X118814286Y45557143D02*
X118834286Y45557143D01*
X118300000Y45385714D02*
X118662857Y45385714D01*
X118814286Y45214286D02*
X118834286Y45214286D01*
X118814286Y45042857D02*
X118834286Y45042857D01*
X118128571Y44871429D02*
X118662857Y44871429D01*
X118000000Y37600000D02*
X118534286Y37600000D01*
X118000000Y37428571D02*
X118020000Y37428571D01*
X118685714Y37428571D02*
X118705714Y37428571D01*
X118000000Y37257143D02*
X118020000Y37257143D01*
X118685714Y37257143D02*
X118705714Y37257143D01*
X118000000Y37085714D02*
X118534286Y37085714D01*
X118000000Y36914286D02*
X118020000Y36914286D01*
X118342857Y36914286D02*
X118362857Y36914286D01*
X118000000Y36742857D02*
X118020000Y36742857D01*
X118514286Y36742857D02*
X118534286Y36742857D01*
X118000000Y36571429D02*
X118020000Y36571429D01*
X118685714Y36571429D02*
X118705714Y36571429D01*
X119028571Y37600000D02*
X119734286Y37600000D01*
X119028571Y37428571D02*
X119048571Y37428571D01*
X119028571Y37257143D02*
X119048571Y37257143D01*
X119028571Y37085714D02*
X119562857Y37085714D01*
X119028571Y36914286D02*
X119048571Y36914286D01*
X119028571Y36742857D02*
X119048571Y36742857D01*
X119028571Y36571429D02*
X119734286Y36571429D01*
X120057143Y37600000D02*
X120591429Y37600000D01*
X120057143Y37428571D02*
X120077143Y37428571D01*
X120742857Y37428571D02*
X120762857Y37428571D01*
X120057143Y37257143D02*
X120077143Y37257143D01*
X120742857Y37257143D02*
X120762857Y37257143D01*
X120057143Y37085714D02*
X120077143Y37085714D01*
X120742857Y37085714D02*
X120762857Y37085714D01*
X120057143Y36914286D02*
X120077143Y36914286D01*
X120742857Y36914286D02*
X120762857Y36914286D01*
X120057143Y36742857D02*
X120077143Y36742857D01*
X120742857Y36742857D02*
X120762857Y36742857D01*
X120057143Y36571429D02*
X120591429Y36571429D01*
X118400000Y39528571D02*
X118420000Y39528571D01*
X118914286Y39528571D02*
X118934286Y39528571D01*
X118400000Y39357143D02*
X118420000Y39357143D01*
X118742857Y39357143D02*
X118762857Y39357143D01*
X118400000Y39185714D02*
X118591429Y39185714D01*
X118400000Y39014286D02*
X118420000Y39014286D01*
X118742857Y39014286D02*
X118762857Y39014286D01*
X118400000Y38842857D02*
X118420000Y38842857D01*
X118914286Y38842857D02*
X118934286Y38842857D01*
X118400000Y38671429D02*
X118420000Y38671429D01*
X119085714Y38671429D02*
X119105714Y38671429D01*
X121000000Y39528571D02*
X121020000Y39528571D01*
X121685714Y39528571D02*
X121705714Y39528571D01*
X121000000Y39357143D02*
X121020000Y39357143D01*
X121685714Y39357143D02*
X121705714Y39357143D01*
X121000000Y39185714D02*
X121705714Y39185714D01*
X121000000Y39014286D02*
X121020000Y39014286D01*
X121685714Y39014286D02*
X121705714Y39014286D01*
X121000000Y38842857D02*
X121020000Y38842857D01*
X121685714Y38842857D02*
X121705714Y38842857D01*
X121000000Y38671429D02*
X121020000Y38671429D01*
X121685714Y38671429D02*
X121705714Y38671429D01*
X116750000Y35050000D02*
X123250000Y35050000D01*
X123250000Y35050000D02*
X123250000Y32550000D01*
X123250000Y32550000D02*
X116750000Y32550000D01*
X116750000Y32550000D02*
X116750000Y35050000D01*
X116750000Y31700000D02*
X117284286Y31700000D01*
X116750000Y31528571D02*
X116770000Y31528571D01*
X117435714Y31528571D02*
X117455714Y31528571D01*
X116750000Y31357143D02*
X116770000Y31357143D01*
X117435714Y31357143D02*
X117455714Y31357143D01*
X116750000Y31185714D02*
X117284286Y31185714D01*
X116750000Y31014286D02*
X116770000Y31014286D01*
X117092857Y31014286D02*
X117112857Y31014286D01*
X116750000Y30842857D02*
X116770000Y30842857D01*
X117264286Y30842857D02*
X117284286Y30842857D01*
X116750000Y30671429D02*
X116770000Y30671429D01*
X117435714Y30671429D02*
X117455714Y30671429D01*
X118121429Y31700000D02*
X118141429Y31700000D01*
X117950000Y31528571D02*
X118141429Y31528571D01*
X118121429Y31357143D02*
X118141429Y31357143D01*
X118121429Y31185714D02*
X118141429Y31185714D01*
X118121429Y31014286D02*
X118141429Y31014286D01*
X118121429Y30842857D02*
X118141429Y30842857D01*
X117950000Y30671429D02*
X118312857Y30671429D01*
X119150000Y31700000D02*
X119170000Y31700000D01*
X118978571Y31528571D02*
X119170000Y31528571D01*
X119150000Y31357143D02*
X119170000Y31357143D01*
X119150000Y31185714D02*
X119170000Y31185714D01*
X119150000Y31014286D02*
X119170000Y31014286D01*
X119150000Y30842857D02*
X119170000Y30842857D01*
X118978571Y30671429D02*
X119341429Y30671429D01*
X131100000Y43700000D02*
X136900000Y43700000D01*
X136900000Y43700000D02*
X136900000Y37900000D01*
X136900000Y37900000D02*
X131100000Y37900000D01*
X131100000Y37900000D02*
X131100000Y43700000D01*
X131100000Y45900000D02*
X131634286Y45900000D01*
X131100000Y45728571D02*
X131120000Y45728571D01*
X131785714Y45728571D02*
X131805714Y45728571D01*
X131100000Y45557143D02*
X131120000Y45557143D01*
X131785714Y45557143D02*
X131805714Y45557143D01*
X131100000Y45385714D02*
X131120000Y45385714D01*
X131785714Y45385714D02*
X131805714Y45385714D01*
X131100000Y45214286D02*
X131120000Y45214286D01*
X131785714Y45214286D02*
X131805714Y45214286D01*
X131100000Y45042857D02*
X131120000Y45042857D01*
X131785714Y45042857D02*
X131805714Y45042857D01*
X131100000Y44871429D02*
X131634286Y44871429D01*
X132471429Y45900000D02*
X132491429Y45900000D01*
X132300000Y45728571D02*
X132491429Y45728571D01*
X132471429Y45557143D02*
X132491429Y45557143D01*
X132471429Y45385714D02*
X132491429Y45385714D01*
X132471429Y45214286D02*
X132491429Y45214286D01*
X132471429Y45042857D02*
X132491429Y45042857D01*
X132300000Y44871429D02*
X132662857Y44871429D01*
X133500000Y45900000D02*
X133520000Y45900000D01*
X133328571Y45728571D02*
X133520000Y45728571D01*
X133500000Y45557143D02*
X133520000Y45557143D01*
X133500000Y45385714D02*
X133520000Y45385714D01*
X133500000Y45214286D02*
X133520000Y45214286D01*
X133500000Y45042857D02*
X133520000Y45042857D01*
X133328571Y44871429D02*
X133691429Y44871429D01*
X132171429Y37600000D02*
X132705714Y37600000D01*
X132000000Y37428571D02*
X132020000Y37428571D01*
X132000000Y37257143D02*
X132020000Y37257143D01*
X132000000Y37085714D02*
X132020000Y37085714D01*
X132342857Y37085714D02*
X132705714Y37085714D01*
X132000000Y36914286D02*
X132020000Y36914286D01*
X132685714Y36914286D02*
X132705714Y36914286D01*
X132000000Y36742857D02*
X132020000Y36742857D01*
X132685714Y36742857D02*
X132705714Y36742857D01*
X132171429Y36571429D02*
X132705714Y36571429D01*
X133028571Y37600000D02*
X133562857Y37600000D01*
X133028571Y37428571D02*
X133048571Y37428571D01*
X133714286Y37428571D02*
X133734286Y37428571D01*
X133028571Y37257143D02*
X133048571Y37257143D01*
X133714286Y37257143D02*
X133734286Y37257143D01*
X133028571Y37085714D02*
X133562857Y37085714D01*
X133028571Y36914286D02*
X133048571Y36914286D01*
X133371429Y36914286D02*
X133391429Y36914286D01*
X133028571Y36742857D02*
X133048571Y36742857D01*
X133542857Y36742857D02*
X133562857Y36742857D01*
X133028571Y36571429D02*
X133048571Y36571429D01*
X133714286Y36571429D02*
X133734286Y36571429D01*
X134057143Y37600000D02*
X134762857Y37600000D01*
X134057143Y37428571D02*
X134077143Y37428571D01*
X134057143Y37257143D02*
X134077143Y37257143D01*
X134057143Y37085714D02*
X134591429Y37085714D01*
X134057143Y36914286D02*
X134077143Y36914286D01*
X134057143Y36742857D02*
X134077143Y36742857D01*
X134057143Y36571429D02*
X134762857Y36571429D01*
X135085714Y37600000D02*
X135791429Y37600000D01*
X135085714Y37428571D02*
X135105714Y37428571D01*
X135085714Y37257143D02*
X135105714Y37257143D01*
X135085714Y37085714D02*
X135620000Y37085714D01*
X135085714Y36914286D02*
X135105714Y36914286D01*
X135085714Y36742857D02*
X135105714Y36742857D01*
X135085714Y36571429D02*
X135791429Y36571429D01*
X136114286Y37600000D02*
X136134286Y37600000D01*
X136800000Y37600000D02*
X136820000Y37600000D01*
X136114286Y37428571D02*
X136305714Y37428571D01*
X136800000Y37428571D02*
X136820000Y37428571D01*
X136114286Y37257143D02*
X136134286Y37257143D01*
X136457143Y37257143D02*
X136477143Y37257143D01*
X136800000Y37257143D02*
X136820000Y37257143D01*
X136114286Y37085714D02*
X136134286Y37085714D01*
X136628571Y37085714D02*
X136820000Y37085714D01*
X136114286Y36914286D02*
X136134286Y36914286D01*
X136800000Y36914286D02*
X136820000Y36914286D01*
X136114286Y36742857D02*
X136134286Y36742857D01*
X136800000Y36742857D02*
X136820000Y36742857D01*
X136114286Y36571429D02*
X136134286Y36571429D01*
X136800000Y36571429D02*
X136820000Y36571429D01*
X132400000Y39528571D02*
X132420000Y39528571D01*
X132914286Y39528571D02*
X132934286Y39528571D01*
X132400000Y39357143D02*
X132420000Y39357143D01*
X132742857Y39357143D02*
X132762857Y39357143D01*
X132400000Y39185714D02*
X132591429Y39185714D01*
X132400000Y39014286D02*
X132420000Y39014286D01*
X132742857Y39014286D02*
X132762857Y39014286D01*
X132400000Y38842857D02*
X132420000Y38842857D01*
X132914286Y38842857D02*
X132934286Y38842857D01*
X132400000Y38671429D02*
X132420000Y38671429D01*
X133085714Y38671429D02*
X133105714Y38671429D01*
X135000000Y39528571D02*
X135020000Y39528571D01*
X135685714Y39528571D02*
X135705714Y39528571D01*
X135000000Y39357143D02*
X135020000Y39357143D01*
X135685714Y39357143D02*
X135705714Y39357143D01*
X135000000Y39185714D02*
X135705714Y39185714D01*
X135000000Y39014286D02*
X135020000Y39014286D01*
X135685714Y39014286D02*
X135705714Y39014286D01*
X135000000Y38842857D02*
X135020000Y38842857D01*
X135685714Y38842857D02*
X135705714Y38842857D01*
X135000000Y38671429D02*
X135020000Y38671429D01*
X135685714Y38671429D02*
X135705714Y38671429D01*
X130750000Y35050000D02*
X137250000Y35050000D01*
X137250000Y35050000D02*
X137250000Y32550000D01*
X137250000Y32550000D02*
X130750000Y32550000D01*
X130750000Y32550000D02*
X130750000Y35050000D01*
X130750000Y31700000D02*
X131284286Y31700000D01*
X130750000Y31528571D02*
X130770000Y31528571D01*
X131435714Y31528571D02*
X131455714Y31528571D01*
X130750000Y31357143D02*
X130770000Y31357143D01*
X131435714Y31357143D02*
X131455714Y31357143D01*
X130750000Y31185714D02*
X131284286Y31185714D01*
X130750000Y31014286D02*
X130770000Y31014286D01*
X131092857Y31014286D02*
X131112857Y31014286D01*
X130750000Y30842857D02*
X130770000Y30842857D01*
X131264286Y30842857D02*
X131284286Y30842857D01*
X130750000Y30671429D02*
X130770000Y30671429D01*
X131435714Y30671429D02*
X131455714Y30671429D01*
X132121429Y31700000D02*
X132141429Y31700000D01*
X131950000Y31528571D02*
X132141429Y31528571D01*
X132121429Y31357143D02*
X132141429Y31357143D01*
X132121429Y31185714D02*
X132141429Y31185714D01*
X132121429Y31014286D02*
X132141429Y31014286D01*
X132121429Y30842857D02*
X132141429Y30842857D01*
X131950000Y30671429D02*
X132312857Y30671429D01*
X132978571Y31700000D02*
X133341429Y31700000D01*
X132807143Y31528571D02*
X132827143Y31528571D01*
X133492857Y31528571D02*
X133512857Y31528571D01*
X132807143Y31357143D02*
X132827143Y31357143D01*
X133492857Y31357143D02*
X133512857Y31357143D01*
X132978571Y31185714D02*
X133512857Y31185714D01*
X133492857Y31014286D02*
X133512857Y31014286D01*
X133492857Y30842857D02*
X133512857Y30842857D01*
X132978571Y30671429D02*
X133341429Y30671429D01*
X174800000Y27900000D02*
X180800000Y27900000D01*
X180800000Y27900000D02*
X180800000Y22900000D01*
X180800000Y22900000D02*
X174800000Y22900000D01*
X174800000Y22900000D02*
X174800000Y27900000D01*
X181800000Y26000000D02*
X181820000Y26000000D01*
X182485714Y26000000D02*
X182505714Y26000000D01*
X181800000Y25828571D02*
X181820000Y25828571D01*
X182485714Y25828571D02*
X182505714Y25828571D01*
X181800000Y25657143D02*
X181820000Y25657143D01*
X182485714Y25657143D02*
X182505714Y25657143D01*
X181800000Y25485714D02*
X181820000Y25485714D01*
X182485714Y25485714D02*
X182505714Y25485714D01*
X181800000Y25314286D02*
X181820000Y25314286D01*
X182485714Y25314286D02*
X182505714Y25314286D01*
X181800000Y25142857D02*
X181820000Y25142857D01*
X182485714Y25142857D02*
X182505714Y25142857D01*
X181971429Y24971429D02*
X182334286Y24971429D01*
X183342857Y26000000D02*
X183362857Y26000000D01*
X183171429Y25828571D02*
X183362857Y25828571D01*
X183000000Y25657143D02*
X183020000Y25657143D01*
X183342857Y25657143D02*
X183362857Y25657143D01*
X182828571Y25485714D02*
X182848571Y25485714D01*
X183342857Y25485714D02*
X183362857Y25485714D01*
X182828571Y25314286D02*
X183534286Y25314286D01*
X183342857Y25142857D02*
X183362857Y25142857D01*
X183342857Y24971429D02*
X183362857Y24971429D01*
X175800000Y25400000D02*
X179800000Y25400000D01*
X177800000Y27400000D02*
X177800000Y23400000D01*
X174200000Y30600000D02*
X174905714Y30600000D01*
X174200000Y30428571D02*
X174220000Y30428571D01*
X174200000Y30257143D02*
X174220000Y30257143D01*
X174200000Y30085714D02*
X174734286Y30085714D01*
X174200000Y29914286D02*
X174220000Y29914286D01*
X174200000Y29742857D02*
X174220000Y29742857D01*
X174200000Y29571429D02*
X174220000Y29571429D01*
X175400000Y30600000D02*
X175762857Y30600000D01*
X175228571Y30428571D02*
X175248571Y30428571D01*
X175914286Y30428571D02*
X175934286Y30428571D01*
X175228571Y30257143D02*
X175248571Y30257143D01*
X175914286Y30257143D02*
X175934286Y30257143D01*
X175228571Y30085714D02*
X175934286Y30085714D01*
X175228571Y29914286D02*
X175248571Y29914286D01*
X175914286Y29914286D02*
X175934286Y29914286D01*
X175228571Y29742857D02*
X175248571Y29742857D01*
X175914286Y29742857D02*
X175934286Y29742857D01*
X175228571Y29571429D02*
X175248571Y29571429D01*
X175914286Y29571429D02*
X175934286Y29571429D01*
X176428571Y30600000D02*
X176962857Y30600000D01*
X176257143Y30428571D02*
X176277143Y30428571D01*
X176257143Y30257143D02*
X176277143Y30257143D01*
X176257143Y30085714D02*
X176277143Y30085714D01*
X176257143Y29914286D02*
X176277143Y29914286D01*
X176257143Y29742857D02*
X176277143Y29742857D01*
X176428571Y29571429D02*
X176962857Y29571429D01*
X177285714Y30600000D02*
X177991429Y30600000D01*
X177285714Y30428571D02*
X177305714Y30428571D01*
X177285714Y30257143D02*
X177305714Y30257143D01*
X177285714Y30085714D02*
X177820000Y30085714D01*
X177285714Y29914286D02*
X177305714Y29914286D01*
X177285714Y29742857D02*
X177305714Y29742857D01*
X177285714Y29571429D02*
X177991429Y29571429D01*
X179342857Y30600000D02*
X179362857Y30600000D01*
X180028571Y30600000D02*
X180048571Y30600000D01*
X179342857Y30428571D02*
X179362857Y30428571D01*
X180028571Y30428571D02*
X180048571Y30428571D01*
X179342857Y30257143D02*
X179362857Y30257143D01*
X180028571Y30257143D02*
X180048571Y30257143D01*
X179342857Y30085714D02*
X179362857Y30085714D01*
X180028571Y30085714D02*
X180048571Y30085714D01*
X179342857Y29914286D02*
X179362857Y29914286D01*
X180028571Y29914286D02*
X180048571Y29914286D01*
X179342857Y29742857D02*
X179362857Y29742857D01*
X180028571Y29742857D02*
X180048571Y29742857D01*
X179514286Y29571429D02*
X179877143Y29571429D01*
X180371429Y30600000D02*
X180905714Y30600000D01*
X180371429Y30428571D02*
X180391429Y30428571D01*
X181057143Y30428571D02*
X181077143Y30428571D01*
X180371429Y30257143D02*
X180391429Y30257143D01*
X181057143Y30257143D02*
X181077143Y30257143D01*
X180371429Y30085714D02*
X180905714Y30085714D01*
X180371429Y29914286D02*
X180391429Y29914286D01*
X180371429Y29742857D02*
X180391429Y29742857D01*
X180371429Y29571429D02*
X180391429Y29571429D01*
X174900000Y17800000D02*
X174920000Y17800000D01*
X175585714Y17800000D02*
X175605714Y17800000D01*
X174900000Y17628571D02*
X174920000Y17628571D01*
X175585714Y17628571D02*
X175605714Y17628571D01*
X174900000Y17457143D02*
X174920000Y17457143D01*
X175585714Y17457143D02*
X175605714Y17457143D01*
X174900000Y17285714D02*
X174920000Y17285714D01*
X175585714Y17285714D02*
X175605714Y17285714D01*
X174900000Y17114286D02*
X174920000Y17114286D01*
X175585714Y17114286D02*
X175605714Y17114286D01*
X175071429Y16942857D02*
X175091429Y16942857D01*
X175414286Y16942857D02*
X175434286Y16942857D01*
X175242857Y16771429D02*
X175262857Y16771429D01*
X177671429Y17800000D02*
X178205714Y17800000D01*
X177500000Y17628571D02*
X177520000Y17628571D01*
X177500000Y17457143D02*
X177520000Y17457143D01*
X177500000Y17285714D02*
X177520000Y17285714D01*
X177842857Y17285714D02*
X178205714Y17285714D01*
X177500000Y17114286D02*
X177520000Y17114286D01*
X178185714Y17114286D02*
X178205714Y17114286D01*
X177500000Y16942857D02*
X177520000Y16942857D01*
X178185714Y16942857D02*
X178205714Y16942857D01*
X177671429Y16771429D02*
X178205714Y16771429D01*
X180171429Y17800000D02*
X180534286Y17800000D01*
X180000000Y17628571D02*
X180020000Y17628571D01*
X180685714Y17628571D02*
X180705714Y17628571D01*
X180000000Y17457143D02*
X180020000Y17457143D01*
X180685714Y17457143D02*
X180705714Y17457143D01*
X180000000Y17285714D02*
X180020000Y17285714D01*
X180685714Y17285714D02*
X180705714Y17285714D01*
X180000000Y17114286D02*
X180020000Y17114286D01*
X180685714Y17114286D02*
X180705714Y17114286D01*
X180000000Y16942857D02*
X180020000Y16942857D01*
X180685714Y16942857D02*
X180705714Y16942857D01*
X180171429Y16771429D02*
X180534286Y16771429D01*
X172260000Y15900000D02*
X178260000Y15900000D01*
X178260000Y12900000D02*
X172260000Y12900000D01*
X172431429Y11900000D02*
X172965714Y11900000D01*
X172260000Y11728571D02*
X172280000Y11728571D01*
X172260000Y11557143D02*
X172280000Y11557143D01*
X172260000Y11385714D02*
X172280000Y11385714D01*
X172260000Y11214286D02*
X172280000Y11214286D01*
X172260000Y11042857D02*
X172280000Y11042857D01*
X172431429Y10871429D02*
X172965714Y10871429D01*
X173802857Y11900000D02*
X173822857Y11900000D01*
X173631429Y11728571D02*
X173822857Y11728571D01*
X173460000Y11557143D02*
X173480000Y11557143D01*
X173802857Y11557143D02*
X173822857Y11557143D01*
X173288571Y11385714D02*
X173308571Y11385714D01*
X173802857Y11385714D02*
X173822857Y11385714D01*
X173288571Y11214286D02*
X173994286Y11214286D01*
X173802857Y11042857D02*
X173822857Y11042857D01*
X173802857Y10871429D02*
X173822857Y10871429D01*
X184550000Y21550000D02*
X191050000Y21550000D01*
X191050000Y21550000D02*
X191050000Y19050000D01*
X191050000Y19050000D02*
X184550000Y19050000D01*
X184550000Y19050000D02*
X184550000Y21550000D01*
X184550000Y18200000D02*
X185084286Y18200000D01*
X184550000Y18028571D02*
X184570000Y18028571D01*
X185235714Y18028571D02*
X185255714Y18028571D01*
X184550000Y17857143D02*
X184570000Y17857143D01*
X185235714Y17857143D02*
X185255714Y17857143D01*
X184550000Y17685714D02*
X185084286Y17685714D01*
X184550000Y17514286D02*
X184570000Y17514286D01*
X184892857Y17514286D02*
X184912857Y17514286D01*
X184550000Y17342857D02*
X184570000Y17342857D01*
X185064286Y17342857D02*
X185084286Y17342857D01*
X184550000Y17171429D02*
X184570000Y17171429D01*
X185235714Y17171429D02*
X185255714Y17171429D01*
X186092857Y18200000D02*
X186112857Y18200000D01*
X185921429Y18028571D02*
X186112857Y18028571D01*
X185750000Y17857143D02*
X185770000Y17857143D01*
X186092857Y17857143D02*
X186112857Y17857143D01*
X185578571Y17685714D02*
X185598571Y17685714D01*
X186092857Y17685714D02*
X186112857Y17685714D01*
X185578571Y17514286D02*
X186284286Y17514286D01*
X186092857Y17342857D02*
X186112857Y17342857D01*
X186092857Y17171429D02*
X186112857Y17171429D01*
X167900000Y43700000D02*
X173700000Y43700000D01*
X173700000Y43700000D02*
X173700000Y37900000D01*
X173700000Y37900000D02*
X167900000Y37900000D01*
X167900000Y37900000D02*
X167900000Y43700000D01*
X167900000Y45900000D02*
X168434286Y45900000D01*
X167900000Y45728571D02*
X167920000Y45728571D01*
X168585714Y45728571D02*
X168605714Y45728571D01*
X167900000Y45557143D02*
X167920000Y45557143D01*
X168585714Y45557143D02*
X168605714Y45557143D01*
X167900000Y45385714D02*
X167920000Y45385714D01*
X168585714Y45385714D02*
X168605714Y45385714D01*
X167900000Y45214286D02*
X167920000Y45214286D01*
X168585714Y45214286D02*
X168605714Y45214286D01*
X167900000Y45042857D02*
X167920000Y45042857D01*
X168585714Y45042857D02*
X168605714Y45042857D01*
X167900000Y44871429D02*
X168434286Y44871429D01*
X169442857Y45900000D02*
X169462857Y45900000D01*
X169271429Y45728571D02*
X169462857Y45728571D01*
X169100000Y45557143D02*
X169120000Y45557143D01*
X169442857Y45557143D02*
X169462857Y45557143D01*
X168928571Y45385714D02*
X168948571Y45385714D01*
X169442857Y45385714D02*
X169462857Y45385714D01*
X168928571Y45214286D02*
X169634286Y45214286D01*
X169442857Y45042857D02*
X169462857Y45042857D01*
X169442857Y44871429D02*
X169462857Y44871429D01*
X168800000Y37600000D02*
X169334286Y37600000D01*
X168800000Y37428571D02*
X168820000Y37428571D01*
X169485714Y37428571D02*
X169505714Y37428571D01*
X168800000Y37257143D02*
X168820000Y37257143D01*
X169485714Y37257143D02*
X169505714Y37257143D01*
X168800000Y37085714D02*
X169334286Y37085714D01*
X168800000Y36914286D02*
X168820000Y36914286D01*
X169142857Y36914286D02*
X169162857Y36914286D01*
X168800000Y36742857D02*
X168820000Y36742857D01*
X169314286Y36742857D02*
X169334286Y36742857D01*
X168800000Y36571429D02*
X168820000Y36571429D01*
X169485714Y36571429D02*
X169505714Y36571429D01*
X169828571Y37600000D02*
X170534286Y37600000D01*
X169828571Y37428571D02*
X169848571Y37428571D01*
X169828571Y37257143D02*
X169848571Y37257143D01*
X169828571Y37085714D02*
X170362857Y37085714D01*
X169828571Y36914286D02*
X169848571Y36914286D01*
X169828571Y36742857D02*
X169848571Y36742857D01*
X169828571Y36571429D02*
X170534286Y36571429D01*
X170857143Y37600000D02*
X171391429Y37600000D01*
X170857143Y37428571D02*
X170877143Y37428571D01*
X171542857Y37428571D02*
X171562857Y37428571D01*
X170857143Y37257143D02*
X170877143Y37257143D01*
X171542857Y37257143D02*
X171562857Y37257143D01*
X170857143Y37085714D02*
X170877143Y37085714D01*
X171542857Y37085714D02*
X171562857Y37085714D01*
X170857143Y36914286D02*
X170877143Y36914286D01*
X171542857Y36914286D02*
X171562857Y36914286D01*
X170857143Y36742857D02*
X170877143Y36742857D01*
X171542857Y36742857D02*
X171562857Y36742857D01*
X170857143Y36571429D02*
X171391429Y36571429D01*
X169200000Y39528571D02*
X169220000Y39528571D01*
X169714286Y39528571D02*
X169734286Y39528571D01*
X169200000Y39357143D02*
X169220000Y39357143D01*
X169542857Y39357143D02*
X169562857Y39357143D01*
X169200000Y39185714D02*
X169391429Y39185714D01*
X169200000Y39014286D02*
X169220000Y39014286D01*
X169542857Y39014286D02*
X169562857Y39014286D01*
X169200000Y38842857D02*
X169220000Y38842857D01*
X169714286Y38842857D02*
X169734286Y38842857D01*
X169200000Y38671429D02*
X169220000Y38671429D01*
X169885714Y38671429D02*
X169905714Y38671429D01*
X171800000Y39528571D02*
X171820000Y39528571D01*
X172485714Y39528571D02*
X172505714Y39528571D01*
X171800000Y39357143D02*
X171820000Y39357143D01*
X172485714Y39357143D02*
X172505714Y39357143D01*
X171800000Y39185714D02*
X172505714Y39185714D01*
X171800000Y39014286D02*
X171820000Y39014286D01*
X172485714Y39014286D02*
X172505714Y39014286D01*
X171800000Y38842857D02*
X171820000Y38842857D01*
X172485714Y38842857D02*
X172505714Y38842857D01*
X171800000Y38671429D02*
X171820000Y38671429D01*
X172485714Y38671429D02*
X172505714Y38671429D01*
X167550000Y35050000D02*
X174050000Y35050000D01*
X174050000Y35050000D02*
X174050000Y32550000D01*
X174050000Y32550000D02*
X167550000Y32550000D01*
X167550000Y32550000D02*
X167550000Y35050000D01*
X167550000Y31700000D02*
X168084286Y31700000D01*
X167550000Y31528571D02*
X167570000Y31528571D01*
X168235714Y31528571D02*
X168255714Y31528571D01*
X167550000Y31357143D02*
X167570000Y31357143D01*
X168235714Y31357143D02*
X168255714Y31357143D01*
X167550000Y31185714D02*
X168084286Y31185714D01*
X167550000Y31014286D02*
X167570000Y31014286D01*
X167892857Y31014286D02*
X167912857Y31014286D01*
X167550000Y30842857D02*
X167570000Y30842857D01*
X168064286Y30842857D02*
X168084286Y30842857D01*
X167550000Y30671429D02*
X167570000Y30671429D01*
X168235714Y30671429D02*
X168255714Y30671429D01*
X168921429Y31700000D02*
X168941429Y31700000D01*
X168750000Y31528571D02*
X168941429Y31528571D01*
X168921429Y31357143D02*
X168941429Y31357143D01*
X168921429Y31185714D02*
X168941429Y31185714D01*
X168921429Y31014286D02*
X168941429Y31014286D01*
X168921429Y30842857D02*
X168941429Y30842857D01*
X168750000Y30671429D02*
X169112857Y30671429D01*
X169778571Y31700000D02*
X170141429Y31700000D01*
X169607143Y31528571D02*
X169627143Y31528571D01*
X170292857Y31528571D02*
X170312857Y31528571D01*
X170292857Y31357143D02*
X170312857Y31357143D01*
X170121429Y31185714D02*
X170141429Y31185714D01*
X169950000Y31014286D02*
X169970000Y31014286D01*
X169778571Y30842857D02*
X169798571Y30842857D01*
X169607143Y30671429D02*
X170312857Y30671429D01*
X181900000Y43700000D02*
X187700000Y43700000D01*
X187700000Y43700000D02*
X187700000Y37900000D01*
X187700000Y37900000D02*
X181900000Y37900000D01*
X181900000Y37900000D02*
X181900000Y43700000D01*
X181900000Y45900000D02*
X182434286Y45900000D01*
X181900000Y45728571D02*
X181920000Y45728571D01*
X182585714Y45728571D02*
X182605714Y45728571D01*
X181900000Y45557143D02*
X181920000Y45557143D01*
X182585714Y45557143D02*
X182605714Y45557143D01*
X181900000Y45385714D02*
X181920000Y45385714D01*
X182585714Y45385714D02*
X182605714Y45385714D01*
X181900000Y45214286D02*
X181920000Y45214286D01*
X182585714Y45214286D02*
X182605714Y45214286D01*
X181900000Y45042857D02*
X181920000Y45042857D01*
X182585714Y45042857D02*
X182605714Y45042857D01*
X181900000Y44871429D02*
X182434286Y44871429D01*
X183271429Y45900000D02*
X183291429Y45900000D01*
X183100000Y45728571D02*
X183291429Y45728571D01*
X183271429Y45557143D02*
X183291429Y45557143D01*
X183271429Y45385714D02*
X183291429Y45385714D01*
X183271429Y45214286D02*
X183291429Y45214286D01*
X183271429Y45042857D02*
X183291429Y45042857D01*
X183100000Y44871429D02*
X183462857Y44871429D01*
X184128571Y45900000D02*
X184491429Y45900000D01*
X183957143Y45728571D02*
X183977143Y45728571D01*
X184642857Y45728571D02*
X184662857Y45728571D01*
X184642857Y45557143D02*
X184662857Y45557143D01*
X184471429Y45385714D02*
X184491429Y45385714D01*
X184300000Y45214286D02*
X184320000Y45214286D01*
X184128571Y45042857D02*
X184148571Y45042857D01*
X183957143Y44871429D02*
X184662857Y44871429D01*
X182971429Y37600000D02*
X183505714Y37600000D01*
X182800000Y37428571D02*
X182820000Y37428571D01*
X182800000Y37257143D02*
X182820000Y37257143D01*
X182800000Y37085714D02*
X182820000Y37085714D01*
X183142857Y37085714D02*
X183505714Y37085714D01*
X182800000Y36914286D02*
X182820000Y36914286D01*
X183485714Y36914286D02*
X183505714Y36914286D01*
X182800000Y36742857D02*
X182820000Y36742857D01*
X183485714Y36742857D02*
X183505714Y36742857D01*
X182971429Y36571429D02*
X183505714Y36571429D01*
X183828571Y37600000D02*
X184362857Y37600000D01*
X183828571Y37428571D02*
X183848571Y37428571D01*
X184514286Y37428571D02*
X184534286Y37428571D01*
X183828571Y37257143D02*
X183848571Y37257143D01*
X184514286Y37257143D02*
X184534286Y37257143D01*
X183828571Y37085714D02*
X184362857Y37085714D01*
X183828571Y36914286D02*
X183848571Y36914286D01*
X184171429Y36914286D02*
X184191429Y36914286D01*
X183828571Y36742857D02*
X183848571Y36742857D01*
X184342857Y36742857D02*
X184362857Y36742857D01*
X183828571Y36571429D02*
X183848571Y36571429D01*
X184514286Y36571429D02*
X184534286Y36571429D01*
X184857143Y37600000D02*
X185562857Y37600000D01*
X184857143Y37428571D02*
X184877143Y37428571D01*
X184857143Y37257143D02*
X184877143Y37257143D01*
X184857143Y37085714D02*
X185391429Y37085714D01*
X184857143Y36914286D02*
X184877143Y36914286D01*
X184857143Y36742857D02*
X184877143Y36742857D01*
X184857143Y36571429D02*
X185562857Y36571429D01*
X185885714Y37600000D02*
X186591429Y37600000D01*
X185885714Y37428571D02*
X185905714Y37428571D01*
X185885714Y37257143D02*
X185905714Y37257143D01*
X185885714Y37085714D02*
X186420000Y37085714D01*
X185885714Y36914286D02*
X185905714Y36914286D01*
X185885714Y36742857D02*
X185905714Y36742857D01*
X185885714Y36571429D02*
X186591429Y36571429D01*
X186914286Y37600000D02*
X186934286Y37600000D01*
X187600000Y37600000D02*
X187620000Y37600000D01*
X186914286Y37428571D02*
X187105714Y37428571D01*
X187600000Y37428571D02*
X187620000Y37428571D01*
X186914286Y37257143D02*
X186934286Y37257143D01*
X187257143Y37257143D02*
X187277143Y37257143D01*
X187600000Y37257143D02*
X187620000Y37257143D01*
X186914286Y37085714D02*
X186934286Y37085714D01*
X187428571Y37085714D02*
X187620000Y37085714D01*
X186914286Y36914286D02*
X186934286Y36914286D01*
X187600000Y36914286D02*
X187620000Y36914286D01*
X186914286Y36742857D02*
X186934286Y36742857D01*
X187600000Y36742857D02*
X187620000Y36742857D01*
X186914286Y36571429D02*
X186934286Y36571429D01*
X187600000Y36571429D02*
X187620000Y36571429D01*
X183200000Y39528571D02*
X183220000Y39528571D01*
X183714286Y39528571D02*
X183734286Y39528571D01*
X183200000Y39357143D02*
X183220000Y39357143D01*
X183542857Y39357143D02*
X183562857Y39357143D01*
X183200000Y39185714D02*
X183391429Y39185714D01*
X183200000Y39014286D02*
X183220000Y39014286D01*
X183542857Y39014286D02*
X183562857Y39014286D01*
X183200000Y38842857D02*
X183220000Y38842857D01*
X183714286Y38842857D02*
X183734286Y38842857D01*
X183200000Y38671429D02*
X183220000Y38671429D01*
X183885714Y38671429D02*
X183905714Y38671429D01*
X185800000Y39528571D02*
X185820000Y39528571D01*
X186485714Y39528571D02*
X186505714Y39528571D01*
X185800000Y39357143D02*
X185820000Y39357143D01*
X186485714Y39357143D02*
X186505714Y39357143D01*
X185800000Y39185714D02*
X186505714Y39185714D01*
X185800000Y39014286D02*
X185820000Y39014286D01*
X186485714Y39014286D02*
X186505714Y39014286D01*
X185800000Y38842857D02*
X185820000Y38842857D01*
X186485714Y38842857D02*
X186505714Y38842857D01*
X185800000Y38671429D02*
X185820000Y38671429D01*
X186485714Y38671429D02*
X186505714Y38671429D01*
X181550000Y35050000D02*
X188050000Y35050000D01*
X188050000Y35050000D02*
X188050000Y32550000D01*
X188050000Y32550000D02*
X181550000Y32550000D01*
X181550000Y32550000D02*
X181550000Y35050000D01*
X181550000Y31700000D02*
X182084286Y31700000D01*
X181550000Y31528571D02*
X181570000Y31528571D01*
X182235714Y31528571D02*
X182255714Y31528571D01*
X181550000Y31357143D02*
X181570000Y31357143D01*
X182235714Y31357143D02*
X182255714Y31357143D01*
X181550000Y31185714D02*
X182084286Y31185714D01*
X181550000Y31014286D02*
X181570000Y31014286D01*
X181892857Y31014286D02*
X181912857Y31014286D01*
X181550000Y30842857D02*
X181570000Y30842857D01*
X182064286Y30842857D02*
X182084286Y30842857D01*
X181550000Y30671429D02*
X181570000Y30671429D01*
X182235714Y30671429D02*
X182255714Y30671429D01*
X182750000Y31700000D02*
X183112857Y31700000D01*
X182578571Y31528571D02*
X182598571Y31528571D01*
X183264286Y31528571D02*
X183284286Y31528571D01*
X183264286Y31357143D02*
X183284286Y31357143D01*
X183092857Y31185714D02*
X183112857Y31185714D01*
X182921429Y31014286D02*
X182941429Y31014286D01*
X182750000Y30842857D02*
X182770000Y30842857D01*
X182578571Y30671429D02*
X183284286Y30671429D01*
X183778571Y31700000D02*
X184141429Y31700000D01*
X183607143Y31528571D02*
X183627143Y31528571D01*
X184292857Y31528571D02*
X184312857Y31528571D01*
X183607143Y31357143D02*
X183627143Y31357143D01*
X184121429Y31357143D02*
X184312857Y31357143D01*
X183607143Y31185714D02*
X183627143Y31185714D01*
X183950000Y31185714D02*
X183970000Y31185714D01*
X184292857Y31185714D02*
X184312857Y31185714D01*
X183607143Y31014286D02*
X183798571Y31014286D01*
X184292857Y31014286D02*
X184312857Y31014286D01*
X183607143Y30842857D02*
X183627143Y30842857D01*
X184292857Y30842857D02*
X184312857Y30842857D01*
X183778571Y30671429D02*
X184141429Y30671429D01*
X225600000Y27900000D02*
X231600000Y27900000D01*
X231600000Y27900000D02*
X231600000Y22900000D01*
X231600000Y22900000D02*
X225600000Y22900000D01*
X225600000Y22900000D02*
X225600000Y27900000D01*
X232600000Y26000000D02*
X232620000Y26000000D01*
X233285714Y26000000D02*
X233305714Y26000000D01*
X232600000Y25828571D02*
X232620000Y25828571D01*
X233285714Y25828571D02*
X233305714Y25828571D01*
X232600000Y25657143D02*
X232620000Y25657143D01*
X233285714Y25657143D02*
X233305714Y25657143D01*
X232600000Y25485714D02*
X232620000Y25485714D01*
X233285714Y25485714D02*
X233305714Y25485714D01*
X232600000Y25314286D02*
X232620000Y25314286D01*
X233285714Y25314286D02*
X233305714Y25314286D01*
X232600000Y25142857D02*
X232620000Y25142857D01*
X233285714Y25142857D02*
X233305714Y25142857D01*
X232771429Y24971429D02*
X233134286Y24971429D01*
X233628571Y26000000D02*
X234334286Y26000000D01*
X233628571Y25828571D02*
X233648571Y25828571D01*
X233628571Y25657143D02*
X233648571Y25657143D01*
X233628571Y25485714D02*
X234162857Y25485714D01*
X234314286Y25314286D02*
X234334286Y25314286D01*
X234314286Y25142857D02*
X234334286Y25142857D01*
X233628571Y24971429D02*
X234162857Y24971429D01*
X226600000Y25400000D02*
X230600000Y25400000D01*
X228600000Y27400000D02*
X228600000Y23400000D01*
X225000000Y30600000D02*
X225705714Y30600000D01*
X225000000Y30428571D02*
X225020000Y30428571D01*
X225000000Y30257143D02*
X225020000Y30257143D01*
X225000000Y30085714D02*
X225534286Y30085714D01*
X225000000Y29914286D02*
X225020000Y29914286D01*
X225000000Y29742857D02*
X225020000Y29742857D01*
X225000000Y29571429D02*
X225020000Y29571429D01*
X226200000Y30600000D02*
X226562857Y30600000D01*
X226028571Y30428571D02*
X226048571Y30428571D01*
X226714286Y30428571D02*
X226734286Y30428571D01*
X226028571Y30257143D02*
X226048571Y30257143D01*
X226714286Y30257143D02*
X226734286Y30257143D01*
X226028571Y30085714D02*
X226734286Y30085714D01*
X226028571Y29914286D02*
X226048571Y29914286D01*
X226714286Y29914286D02*
X226734286Y29914286D01*
X226028571Y29742857D02*
X226048571Y29742857D01*
X226714286Y29742857D02*
X226734286Y29742857D01*
X226028571Y29571429D02*
X226048571Y29571429D01*
X226714286Y29571429D02*
X226734286Y29571429D01*
X227228571Y30600000D02*
X227762857Y30600000D01*
X227057143Y30428571D02*
X227077143Y30428571D01*
X227057143Y30257143D02*
X227077143Y30257143D01*
X227057143Y30085714D02*
X227077143Y30085714D01*
X227057143Y29914286D02*
X227077143Y29914286D01*
X227057143Y29742857D02*
X227077143Y29742857D01*
X227228571Y29571429D02*
X227762857Y29571429D01*
X228085714Y30600000D02*
X228791429Y30600000D01*
X228085714Y30428571D02*
X228105714Y30428571D01*
X228085714Y30257143D02*
X228105714Y30257143D01*
X228085714Y30085714D02*
X228620000Y30085714D01*
X228085714Y29914286D02*
X228105714Y29914286D01*
X228085714Y29742857D02*
X228105714Y29742857D01*
X228085714Y29571429D02*
X228791429Y29571429D01*
X230142857Y30600000D02*
X230162857Y30600000D01*
X230828571Y30600000D02*
X230848571Y30600000D01*
X230142857Y30428571D02*
X230162857Y30428571D01*
X230828571Y30428571D02*
X230848571Y30428571D01*
X230142857Y30257143D02*
X230162857Y30257143D01*
X230828571Y30257143D02*
X230848571Y30257143D01*
X230142857Y30085714D02*
X230162857Y30085714D01*
X230828571Y30085714D02*
X230848571Y30085714D01*
X230142857Y29914286D02*
X230162857Y29914286D01*
X230828571Y29914286D02*
X230848571Y29914286D01*
X230142857Y29742857D02*
X230162857Y29742857D01*
X230828571Y29742857D02*
X230848571Y29742857D01*
X230314286Y29571429D02*
X230677143Y29571429D01*
X231171429Y30600000D02*
X231705714Y30600000D01*
X231171429Y30428571D02*
X231191429Y30428571D01*
X231857143Y30428571D02*
X231877143Y30428571D01*
X231171429Y30257143D02*
X231191429Y30257143D01*
X231857143Y30257143D02*
X231877143Y30257143D01*
X231171429Y30085714D02*
X231705714Y30085714D01*
X231171429Y29914286D02*
X231191429Y29914286D01*
X231171429Y29742857D02*
X231191429Y29742857D01*
X231171429Y29571429D02*
X231191429Y29571429D01*
X225700000Y17800000D02*
X225720000Y17800000D01*
X226385714Y17800000D02*
X226405714Y17800000D01*
X225700000Y17628571D02*
X225720000Y17628571D01*
X226385714Y17628571D02*
X226405714Y17628571D01*
X225700000Y17457143D02*
X225720000Y17457143D01*
X226385714Y17457143D02*
X226405714Y17457143D01*
X225700000Y17285714D02*
X225720000Y17285714D01*
X226385714Y17285714D02*
X226405714Y17285714D01*
X225700000Y17114286D02*
X225720000Y17114286D01*
X226385714Y17114286D02*
X226405714Y17114286D01*
X225871429Y16942857D02*
X225891429Y16942857D01*
X226214286Y16942857D02*
X226234286Y16942857D01*
X226042857Y16771429D02*
X226062857Y16771429D01*
X228471429Y17800000D02*
X229005714Y17800000D01*
X228300000Y17628571D02*
X228320000Y17628571D01*
X228300000Y17457143D02*
X228320000Y17457143D01*
X228300000Y17285714D02*
X228320000Y17285714D01*
X228642857Y17285714D02*
X229005714Y17285714D01*
X228300000Y17114286D02*
X228320000Y17114286D01*
X228985714Y17114286D02*
X229005714Y17114286D01*
X228300000Y16942857D02*
X228320000Y16942857D01*
X228985714Y16942857D02*
X229005714Y16942857D01*
X228471429Y16771429D02*
X229005714Y16771429D01*
X230971429Y17800000D02*
X231334286Y17800000D01*
X230800000Y17628571D02*
X230820000Y17628571D01*
X231485714Y17628571D02*
X231505714Y17628571D01*
X230800000Y17457143D02*
X230820000Y17457143D01*
X231485714Y17457143D02*
X231505714Y17457143D01*
X230800000Y17285714D02*
X230820000Y17285714D01*
X231485714Y17285714D02*
X231505714Y17285714D01*
X230800000Y17114286D02*
X230820000Y17114286D01*
X231485714Y17114286D02*
X231505714Y17114286D01*
X230800000Y16942857D02*
X230820000Y16942857D01*
X231485714Y16942857D02*
X231505714Y16942857D01*
X230971429Y16771429D02*
X231334286Y16771429D01*
X223060000Y15900000D02*
X229060000Y15900000D01*
X229060000Y12900000D02*
X223060000Y12900000D01*
X223231429Y11900000D02*
X223765714Y11900000D01*
X223060000Y11728571D02*
X223080000Y11728571D01*
X223060000Y11557143D02*
X223080000Y11557143D01*
X223060000Y11385714D02*
X223080000Y11385714D01*
X223060000Y11214286D02*
X223080000Y11214286D01*
X223060000Y11042857D02*
X223080000Y11042857D01*
X223231429Y10871429D02*
X223765714Y10871429D01*
X224088571Y11900000D02*
X224794286Y11900000D01*
X224088571Y11728571D02*
X224108571Y11728571D01*
X224088571Y11557143D02*
X224108571Y11557143D01*
X224088571Y11385714D02*
X224622857Y11385714D01*
X224774286Y11214286D02*
X224794286Y11214286D01*
X224774286Y11042857D02*
X224794286Y11042857D01*
X224088571Y10871429D02*
X224622857Y10871429D01*
X235350000Y21550000D02*
X241850000Y21550000D01*
X241850000Y21550000D02*
X241850000Y19050000D01*
X241850000Y19050000D02*
X235350000Y19050000D01*
X235350000Y19050000D02*
X235350000Y21550000D01*
X235350000Y18200000D02*
X235884286Y18200000D01*
X235350000Y18028571D02*
X235370000Y18028571D01*
X236035714Y18028571D02*
X236055714Y18028571D01*
X235350000Y17857143D02*
X235370000Y17857143D01*
X236035714Y17857143D02*
X236055714Y17857143D01*
X235350000Y17685714D02*
X235884286Y17685714D01*
X235350000Y17514286D02*
X235370000Y17514286D01*
X235692857Y17514286D02*
X235712857Y17514286D01*
X235350000Y17342857D02*
X235370000Y17342857D01*
X235864286Y17342857D02*
X235884286Y17342857D01*
X235350000Y17171429D02*
X235370000Y17171429D01*
X236035714Y17171429D02*
X236055714Y17171429D01*
X236378571Y18200000D02*
X237084286Y18200000D01*
X236378571Y18028571D02*
X236398571Y18028571D01*
X236378571Y17857143D02*
X236398571Y17857143D01*
X236378571Y17685714D02*
X236912857Y17685714D01*
X237064286Y17514286D02*
X237084286Y17514286D01*
X237064286Y17342857D02*
X237084286Y17342857D01*
X236378571Y17171429D02*
X236912857Y17171429D01*
X218700000Y43700000D02*
X224500000Y43700000D01*
X224500000Y43700000D02*
X224500000Y37900000D01*
X224500000Y37900000D02*
X218700000Y37900000D01*
X218700000Y37900000D02*
X218700000Y43700000D01*
X218700000Y45900000D02*
X219234286Y45900000D01*
X218700000Y45728571D02*
X218720000Y45728571D01*
X219385714Y45728571D02*
X219405714Y45728571D01*
X218700000Y45557143D02*
X218720000Y45557143D01*
X219385714Y45557143D02*
X219405714Y45557143D01*
X218700000Y45385714D02*
X218720000Y45385714D01*
X219385714Y45385714D02*
X219405714Y45385714D01*
X218700000Y45214286D02*
X218720000Y45214286D01*
X219385714Y45214286D02*
X219405714Y45214286D01*
X218700000Y45042857D02*
X218720000Y45042857D01*
X219385714Y45042857D02*
X219405714Y45042857D01*
X218700000Y44871429D02*
X219234286Y44871429D01*
X219728571Y45900000D02*
X220434286Y45900000D01*
X219728571Y45728571D02*
X219748571Y45728571D01*
X219728571Y45557143D02*
X219748571Y45557143D01*
X219728571Y45385714D02*
X220262857Y45385714D01*
X220414286Y45214286D02*
X220434286Y45214286D01*
X220414286Y45042857D02*
X220434286Y45042857D01*
X219728571Y44871429D02*
X220262857Y44871429D01*
X219600000Y37600000D02*
X220134286Y37600000D01*
X219600000Y37428571D02*
X219620000Y37428571D01*
X220285714Y37428571D02*
X220305714Y37428571D01*
X219600000Y37257143D02*
X219620000Y37257143D01*
X220285714Y37257143D02*
X220305714Y37257143D01*
X219600000Y37085714D02*
X220134286Y37085714D01*
X219600000Y36914286D02*
X219620000Y36914286D01*
X219942857Y36914286D02*
X219962857Y36914286D01*
X219600000Y36742857D02*
X219620000Y36742857D01*
X220114286Y36742857D02*
X220134286Y36742857D01*
X219600000Y36571429D02*
X219620000Y36571429D01*
X220285714Y36571429D02*
X220305714Y36571429D01*
X220628571Y37600000D02*
X221334286Y37600000D01*
X220628571Y37428571D02*
X220648571Y37428571D01*
X220628571Y37257143D02*
X220648571Y37257143D01*
X220628571Y37085714D02*
X221162857Y37085714D01*
X220628571Y36914286D02*
X220648571Y36914286D01*
X220628571Y36742857D02*
X220648571Y36742857D01*
X220628571Y36571429D02*
X221334286Y36571429D01*
X221657143Y37600000D02*
X222191429Y37600000D01*
X221657143Y37428571D02*
X221677143Y37428571D01*
X222342857Y37428571D02*
X222362857Y37428571D01*
X221657143Y37257143D02*
X221677143Y37257143D01*
X222342857Y37257143D02*
X222362857Y37257143D01*
X221657143Y37085714D02*
X221677143Y37085714D01*
X222342857Y37085714D02*
X222362857Y37085714D01*
X221657143Y36914286D02*
X221677143Y36914286D01*
X222342857Y36914286D02*
X222362857Y36914286D01*
X221657143Y36742857D02*
X221677143Y36742857D01*
X222342857Y36742857D02*
X222362857Y36742857D01*
X221657143Y36571429D02*
X222191429Y36571429D01*
X220000000Y39528571D02*
X220020000Y39528571D01*
X220514286Y39528571D02*
X220534286Y39528571D01*
X220000000Y39357143D02*
X220020000Y39357143D01*
X220342857Y39357143D02*
X220362857Y39357143D01*
X220000000Y39185714D02*
X220191429Y39185714D01*
X220000000Y39014286D02*
X220020000Y39014286D01*
X220342857Y39014286D02*
X220362857Y39014286D01*
X220000000Y38842857D02*
X220020000Y38842857D01*
X220514286Y38842857D02*
X220534286Y38842857D01*
X220000000Y38671429D02*
X220020000Y38671429D01*
X220685714Y38671429D02*
X220705714Y38671429D01*
X222600000Y39528571D02*
X222620000Y39528571D01*
X223285714Y39528571D02*
X223305714Y39528571D01*
X222600000Y39357143D02*
X222620000Y39357143D01*
X223285714Y39357143D02*
X223305714Y39357143D01*
X222600000Y39185714D02*
X223305714Y39185714D01*
X222600000Y39014286D02*
X222620000Y39014286D01*
X223285714Y39014286D02*
X223305714Y39014286D01*
X222600000Y38842857D02*
X222620000Y38842857D01*
X223285714Y38842857D02*
X223305714Y38842857D01*
X222600000Y38671429D02*
X222620000Y38671429D01*
X223285714Y38671429D02*
X223305714Y38671429D01*
X218350000Y35050000D02*
X224850000Y35050000D01*
X224850000Y35050000D02*
X224850000Y32550000D01*
X224850000Y32550000D02*
X218350000Y32550000D01*
X218350000Y32550000D02*
X218350000Y35050000D01*
X218350000Y31700000D02*
X218884286Y31700000D01*
X218350000Y31528571D02*
X218370000Y31528571D01*
X219035714Y31528571D02*
X219055714Y31528571D01*
X218350000Y31357143D02*
X218370000Y31357143D01*
X219035714Y31357143D02*
X219055714Y31357143D01*
X218350000Y31185714D02*
X218884286Y31185714D01*
X218350000Y31014286D02*
X218370000Y31014286D01*
X218692857Y31014286D02*
X218712857Y31014286D01*
X218350000Y30842857D02*
X218370000Y30842857D01*
X218864286Y30842857D02*
X218884286Y30842857D01*
X218350000Y30671429D02*
X218370000Y30671429D01*
X219035714Y30671429D02*
X219055714Y30671429D01*
X219721429Y31700000D02*
X219741429Y31700000D01*
X219550000Y31528571D02*
X219741429Y31528571D01*
X219721429Y31357143D02*
X219741429Y31357143D01*
X219721429Y31185714D02*
X219741429Y31185714D01*
X219721429Y31014286D02*
X219741429Y31014286D01*
X219721429Y30842857D02*
X219741429Y30842857D01*
X219550000Y30671429D02*
X219912857Y30671429D01*
X220407143Y31700000D02*
X220941429Y31700000D01*
X221092857Y31528571D02*
X221112857Y31528571D01*
X221092857Y31357143D02*
X221112857Y31357143D01*
X220578571Y31185714D02*
X220941429Y31185714D01*
X221092857Y31014286D02*
X221112857Y31014286D01*
X221092857Y30842857D02*
X221112857Y30842857D01*
X220407143Y30671429D02*
X220941429Y30671429D01*
X232700000Y43700000D02*
X238500000Y43700000D01*
X238500000Y43700000D02*
X238500000Y37900000D01*
X238500000Y37900000D02*
X232700000Y37900000D01*
X232700000Y37900000D02*
X232700000Y43700000D01*
X232700000Y45900000D02*
X233234286Y45900000D01*
X232700000Y45728571D02*
X232720000Y45728571D01*
X233385714Y45728571D02*
X233405714Y45728571D01*
X232700000Y45557143D02*
X232720000Y45557143D01*
X233385714Y45557143D02*
X233405714Y45557143D01*
X232700000Y45385714D02*
X232720000Y45385714D01*
X233385714Y45385714D02*
X233405714Y45385714D01*
X232700000Y45214286D02*
X232720000Y45214286D01*
X233385714Y45214286D02*
X233405714Y45214286D01*
X232700000Y45042857D02*
X232720000Y45042857D01*
X233385714Y45042857D02*
X233405714Y45042857D01*
X232700000Y44871429D02*
X233234286Y44871429D01*
X234071429Y45900000D02*
X234091429Y45900000D01*
X233900000Y45728571D02*
X234091429Y45728571D01*
X234071429Y45557143D02*
X234091429Y45557143D01*
X234071429Y45385714D02*
X234091429Y45385714D01*
X234071429Y45214286D02*
X234091429Y45214286D01*
X234071429Y45042857D02*
X234091429Y45042857D01*
X233900000Y44871429D02*
X234262857Y44871429D01*
X234757143Y45900000D02*
X235291429Y45900000D01*
X235442857Y45728571D02*
X235462857Y45728571D01*
X235442857Y45557143D02*
X235462857Y45557143D01*
X234928571Y45385714D02*
X235291429Y45385714D01*
X235442857Y45214286D02*
X235462857Y45214286D01*
X235442857Y45042857D02*
X235462857Y45042857D01*
X234757143Y44871429D02*
X235291429Y44871429D01*
X233771429Y37600000D02*
X234305714Y37600000D01*
X233600000Y37428571D02*
X233620000Y37428571D01*
X233600000Y37257143D02*
X233620000Y37257143D01*
X233600000Y37085714D02*
X233620000Y37085714D01*
X233942857Y37085714D02*
X234305714Y37085714D01*
X233600000Y36914286D02*
X233620000Y36914286D01*
X234285714Y36914286D02*
X234305714Y36914286D01*
X233600000Y36742857D02*
X233620000Y36742857D01*
X234285714Y36742857D02*
X234305714Y36742857D01*
X233771429Y36571429D02*
X234305714Y36571429D01*
X234628571Y37600000D02*
X235162857Y37600000D01*
X234628571Y37428571D02*
X234648571Y37428571D01*
X235314286Y37428571D02*
X235334286Y37428571D01*
X234628571Y37257143D02*
X234648571Y37257143D01*
X235314286Y37257143D02*
X235334286Y37257143D01*
X234628571Y37085714D02*
X235162857Y37085714D01*
X234628571Y36914286D02*
X234648571Y36914286D01*
X234971429Y36914286D02*
X234991429Y36914286D01*
X234628571Y36742857D02*
X234648571Y36742857D01*
X235142857Y36742857D02*
X235162857Y36742857D01*
X234628571Y36571429D02*
X234648571Y36571429D01*
X235314286Y36571429D02*
X235334286Y36571429D01*
X235657143Y37600000D02*
X236362857Y37600000D01*
X235657143Y37428571D02*
X235677143Y37428571D01*
X235657143Y37257143D02*
X235677143Y37257143D01*
X235657143Y37085714D02*
X236191429Y37085714D01*
X235657143Y36914286D02*
X235677143Y36914286D01*
X235657143Y36742857D02*
X235677143Y36742857D01*
X235657143Y36571429D02*
X236362857Y36571429D01*
X236685714Y37600000D02*
X237391429Y37600000D01*
X236685714Y37428571D02*
X236705714Y37428571D01*
X236685714Y37257143D02*
X236705714Y37257143D01*
X236685714Y37085714D02*
X237220000Y37085714D01*
X236685714Y36914286D02*
X236705714Y36914286D01*
X236685714Y36742857D02*
X236705714Y36742857D01*
X236685714Y36571429D02*
X237391429Y36571429D01*
X237714286Y37600000D02*
X237734286Y37600000D01*
X238400000Y37600000D02*
X238420000Y37600000D01*
X237714286Y37428571D02*
X237905714Y37428571D01*
X238400000Y37428571D02*
X238420000Y37428571D01*
X237714286Y37257143D02*
X237734286Y37257143D01*
X238057143Y37257143D02*
X238077143Y37257143D01*
X238400000Y37257143D02*
X238420000Y37257143D01*
X237714286Y37085714D02*
X237734286Y37085714D01*
X238228571Y37085714D02*
X238420000Y37085714D01*
X237714286Y36914286D02*
X237734286Y36914286D01*
X238400000Y36914286D02*
X238420000Y36914286D01*
X237714286Y36742857D02*
X237734286Y36742857D01*
X238400000Y36742857D02*
X238420000Y36742857D01*
X237714286Y36571429D02*
X237734286Y36571429D01*
X238400000Y36571429D02*
X238420000Y36571429D01*
X234000000Y39528571D02*
X234020000Y39528571D01*
X234514286Y39528571D02*
X234534286Y39528571D01*
X234000000Y39357143D02*
X234020000Y39357143D01*
X234342857Y39357143D02*
X234362857Y39357143D01*
X234000000Y39185714D02*
X234191429Y39185714D01*
X234000000Y39014286D02*
X234020000Y39014286D01*
X234342857Y39014286D02*
X234362857Y39014286D01*
X234000000Y38842857D02*
X234020000Y38842857D01*
X234514286Y38842857D02*
X234534286Y38842857D01*
X234000000Y38671429D02*
X234020000Y38671429D01*
X234685714Y38671429D02*
X234705714Y38671429D01*
X236600000Y39528571D02*
X236620000Y39528571D01*
X237285714Y39528571D02*
X237305714Y39528571D01*
X236600000Y39357143D02*
X236620000Y39357143D01*
X237285714Y39357143D02*
X237305714Y39357143D01*
X236600000Y39185714D02*
X237305714Y39185714D01*
X236600000Y39014286D02*
X236620000Y39014286D01*
X237285714Y39014286D02*
X237305714Y39014286D01*
X236600000Y38842857D02*
X236620000Y38842857D01*
X237285714Y38842857D02*
X237305714Y38842857D01*
X236600000Y38671429D02*
X236620000Y38671429D01*
X237285714Y38671429D02*
X237305714Y38671429D01*
X232350000Y35050000D02*
X238850000Y35050000D01*
X238850000Y35050000D02*
X238850000Y32550000D01*
X238850000Y32550000D02*
X232350000Y32550000D01*
X232350000Y32550000D02*
X232350000Y35050000D01*
X232350000Y31700000D02*
X232884286Y31700000D01*
X232350000Y31528571D02*
X232370000Y31528571D01*
X233035714Y31528571D02*
X233055714Y31528571D01*
X232350000Y31357143D02*
X232370000Y31357143D01*
X233035714Y31357143D02*
X233055714Y31357143D01*
X232350000Y31185714D02*
X232884286Y31185714D01*
X232350000Y31014286D02*
X232370000Y31014286D01*
X232692857Y31014286D02*
X232712857Y31014286D01*
X232350000Y30842857D02*
X232370000Y30842857D01*
X232864286Y30842857D02*
X232884286Y30842857D01*
X232350000Y30671429D02*
X232370000Y30671429D01*
X233035714Y30671429D02*
X233055714Y30671429D01*
X233550000Y31700000D02*
X233912857Y31700000D01*
X233378571Y31528571D02*
X233398571Y31528571D01*
X234064286Y31528571D02*
X234084286Y31528571D01*
X234064286Y31357143D02*
X234084286Y31357143D01*
X233892857Y31185714D02*
X233912857Y31185714D01*
X233721429Y31014286D02*
X233741429Y31014286D01*
X233550000Y30842857D02*
X233570000Y30842857D01*
X233378571Y30671429D02*
X234084286Y30671429D01*
X234750000Y31700000D02*
X234770000Y31700000D01*
X234578571Y31528571D02*
X234770000Y31528571D01*
X234750000Y31357143D02*
X234770000Y31357143D01*
X234750000Y31185714D02*
X234770000Y31185714D01*
X234750000Y31014286D02*
X234770000Y31014286D01*
X234750000Y30842857D02*
X234770000Y30842857D01*
X234578571Y30671429D02*
X234941429Y30671429D01*
X276400000Y27900000D02*
X282400000Y27900000D01*
X282400000Y27900000D02*
X282400000Y22900000D01*
X282400000Y22900000D02*
X276400000Y22900000D01*
X276400000Y22900000D02*
X276400000Y27900000D01*
X283400000Y26000000D02*
X283420000Y26000000D01*
X284085714Y26000000D02*
X284105714Y26000000D01*
X283400000Y25828571D02*
X283420000Y25828571D01*
X284085714Y25828571D02*
X284105714Y25828571D01*
X283400000Y25657143D02*
X283420000Y25657143D01*
X284085714Y25657143D02*
X284105714Y25657143D01*
X283400000Y25485714D02*
X283420000Y25485714D01*
X284085714Y25485714D02*
X284105714Y25485714D01*
X283400000Y25314286D02*
X283420000Y25314286D01*
X284085714Y25314286D02*
X284105714Y25314286D01*
X283400000Y25142857D02*
X283420000Y25142857D01*
X284085714Y25142857D02*
X284105714Y25142857D01*
X283571429Y24971429D02*
X283934286Y24971429D01*
X284600000Y26000000D02*
X284962857Y26000000D01*
X284428571Y25828571D02*
X284448571Y25828571D01*
X284428571Y25657143D02*
X284448571Y25657143D01*
X284428571Y25485714D02*
X284962857Y25485714D01*
X284428571Y25314286D02*
X284448571Y25314286D01*
X285114286Y25314286D02*
X285134286Y25314286D01*
X284428571Y25142857D02*
X284448571Y25142857D01*
X285114286Y25142857D02*
X285134286Y25142857D01*
X284600000Y24971429D02*
X284962857Y24971429D01*
X277400000Y25400000D02*
X281400000Y25400000D01*
X279400000Y27400000D02*
X279400000Y23400000D01*
X275800000Y30600000D02*
X276505714Y30600000D01*
X275800000Y30428571D02*
X275820000Y30428571D01*
X275800000Y30257143D02*
X275820000Y30257143D01*
X275800000Y30085714D02*
X276334286Y30085714D01*
X275800000Y29914286D02*
X275820000Y29914286D01*
X275800000Y29742857D02*
X275820000Y29742857D01*
X275800000Y29571429D02*
X275820000Y29571429D01*
X277000000Y30600000D02*
X277362857Y30600000D01*
X276828571Y30428571D02*
X276848571Y30428571D01*
X277514286Y30428571D02*
X277534286Y30428571D01*
X276828571Y30257143D02*
X276848571Y30257143D01*
X277514286Y30257143D02*
X277534286Y30257143D01*
X276828571Y30085714D02*
X277534286Y30085714D01*
X276828571Y29914286D02*
X276848571Y29914286D01*
X277514286Y29914286D02*
X277534286Y29914286D01*
X276828571Y29742857D02*
X276848571Y29742857D01*
X277514286Y29742857D02*
X277534286Y29742857D01*
X276828571Y29571429D02*
X276848571Y29571429D01*
X277514286Y29571429D02*
X277534286Y29571429D01*
X278028571Y30600000D02*
X278562857Y30600000D01*
X277857143Y30428571D02*
X277877143Y30428571D01*
X277857143Y30257143D02*
X277877143Y30257143D01*
X277857143Y30085714D02*
X277877143Y30085714D01*
X277857143Y29914286D02*
X277877143Y29914286D01*
X277857143Y29742857D02*
X277877143Y29742857D01*
X278028571Y29571429D02*
X278562857Y29571429D01*
X278885714Y30600000D02*
X279591429Y30600000D01*
X278885714Y30428571D02*
X278905714Y30428571D01*
X278885714Y30257143D02*
X278905714Y30257143D01*
X278885714Y30085714D02*
X279420000Y30085714D01*
X278885714Y29914286D02*
X278905714Y29914286D01*
X278885714Y29742857D02*
X278905714Y29742857D01*
X278885714Y29571429D02*
X279591429Y29571429D01*
X280942857Y30600000D02*
X280962857Y30600000D01*
X281628571Y30600000D02*
X281648571Y30600000D01*
X280942857Y30428571D02*
X280962857Y30428571D01*
X281628571Y30428571D02*
X281648571Y30428571D01*
X280942857Y30257143D02*
X280962857Y30257143D01*
X281628571Y30257143D02*
X281648571Y30257143D01*
X280942857Y30085714D02*
X280962857Y30085714D01*
X281628571Y30085714D02*
X281648571Y30085714D01*
X280942857Y29914286D02*
X280962857Y29914286D01*
X281628571Y29914286D02*
X281648571Y29914286D01*
X280942857Y29742857D02*
X280962857Y29742857D01*
X281628571Y29742857D02*
X281648571Y29742857D01*
X281114286Y29571429D02*
X281477143Y29571429D01*
X281971429Y30600000D02*
X282505714Y30600000D01*
X281971429Y30428571D02*
X281991429Y30428571D01*
X282657143Y30428571D02*
X282677143Y30428571D01*
X281971429Y30257143D02*
X281991429Y30257143D01*
X282657143Y30257143D02*
X282677143Y30257143D01*
X281971429Y30085714D02*
X282505714Y30085714D01*
X281971429Y29914286D02*
X281991429Y29914286D01*
X281971429Y29742857D02*
X281991429Y29742857D01*
X281971429Y29571429D02*
X281991429Y29571429D01*
X276500000Y17800000D02*
X276520000Y17800000D01*
X277185714Y17800000D02*
X277205714Y17800000D01*
X276500000Y17628571D02*
X276520000Y17628571D01*
X277185714Y17628571D02*
X277205714Y17628571D01*
X276500000Y17457143D02*
X276520000Y17457143D01*
X277185714Y17457143D02*
X277205714Y17457143D01*
X276500000Y17285714D02*
X276520000Y17285714D01*
X277185714Y17285714D02*
X277205714Y17285714D01*
X276500000Y17114286D02*
X276520000Y17114286D01*
X277185714Y17114286D02*
X277205714Y17114286D01*
X276671429Y16942857D02*
X276691429Y16942857D01*
X277014286Y16942857D02*
X277034286Y16942857D01*
X276842857Y16771429D02*
X276862857Y16771429D01*
X279271429Y17800000D02*
X279805714Y17800000D01*
X279100000Y17628571D02*
X279120000Y17628571D01*
X279100000Y17457143D02*
X279120000Y17457143D01*
X279100000Y17285714D02*
X279120000Y17285714D01*
X279442857Y17285714D02*
X279805714Y17285714D01*
X279100000Y17114286D02*
X279120000Y17114286D01*
X279785714Y17114286D02*
X279805714Y17114286D01*
X279100000Y16942857D02*
X279120000Y16942857D01*
X279785714Y16942857D02*
X279805714Y16942857D01*
X279271429Y16771429D02*
X279805714Y16771429D01*
X281771429Y17800000D02*
X282134286Y17800000D01*
X281600000Y17628571D02*
X281620000Y17628571D01*
X282285714Y17628571D02*
X282305714Y17628571D01*
X281600000Y17457143D02*
X281620000Y17457143D01*
X282285714Y17457143D02*
X282305714Y17457143D01*
X281600000Y17285714D02*
X281620000Y17285714D01*
X282285714Y17285714D02*
X282305714Y17285714D01*
X281600000Y17114286D02*
X281620000Y17114286D01*
X282285714Y17114286D02*
X282305714Y17114286D01*
X281600000Y16942857D02*
X281620000Y16942857D01*
X282285714Y16942857D02*
X282305714Y16942857D01*
X281771429Y16771429D02*
X282134286Y16771429D01*
X273860000Y15900000D02*
X279860000Y15900000D01*
X279860000Y12900000D02*
X273860000Y12900000D01*
X274031429Y11900000D02*
X274565714Y11900000D01*
X273860000Y11728571D02*
X273880000Y11728571D01*
X273860000Y11557143D02*
X273880000Y11557143D01*
X273860000Y11385714D02*
X273880000Y11385714D01*
X273860000Y11214286D02*
X273880000Y11214286D01*
X273860000Y11042857D02*
X273880000Y11042857D01*
X274031429Y10871429D02*
X274565714Y10871429D01*
X275060000Y11900000D02*
X275422857Y11900000D01*
X274888571Y11728571D02*
X274908571Y11728571D01*
X274888571Y11557143D02*
X274908571Y11557143D01*
X274888571Y11385714D02*
X275422857Y11385714D01*
X274888571Y11214286D02*
X274908571Y11214286D01*
X275574286Y11214286D02*
X275594286Y11214286D01*
X274888571Y11042857D02*
X274908571Y11042857D01*
X275574286Y11042857D02*
X275594286Y11042857D01*
X275060000Y10871429D02*
X275422857Y10871429D01*
X286150000Y21550000D02*
X292650000Y21550000D01*
X292650000Y21550000D02*
X292650000Y19050000D01*
X292650000Y19050000D02*
X286150000Y19050000D01*
X286150000Y19050000D02*
X286150000Y21550000D01*
X286150000Y18200000D02*
X286684286Y18200000D01*
X286150000Y18028571D02*
X286170000Y18028571D01*
X286835714Y18028571D02*
X286855714Y18028571D01*
X286150000Y17857143D02*
X286170000Y17857143D01*
X286835714Y17857143D02*
X286855714Y17857143D01*
X286150000Y17685714D02*
X286684286Y17685714D01*
X286150000Y17514286D02*
X286170000Y17514286D01*
X286492857Y17514286D02*
X286512857Y17514286D01*
X286150000Y17342857D02*
X286170000Y17342857D01*
X286664286Y17342857D02*
X286684286Y17342857D01*
X286150000Y17171429D02*
X286170000Y17171429D01*
X286835714Y17171429D02*
X286855714Y17171429D01*
X287350000Y18200000D02*
X287712857Y18200000D01*
X287178571Y18028571D02*
X287198571Y18028571D01*
X287178571Y17857143D02*
X287198571Y17857143D01*
X287178571Y17685714D02*
X287712857Y17685714D01*
X287178571Y17514286D02*
X287198571Y17514286D01*
X287864286Y17514286D02*
X287884286Y17514286D01*
X287178571Y17342857D02*
X287198571Y17342857D01*
X287864286Y17342857D02*
X287884286Y17342857D01*
X287350000Y17171429D02*
X287712857Y17171429D01*
X269500000Y43700000D02*
X275300000Y43700000D01*
X275300000Y43700000D02*
X275300000Y37900000D01*
X275300000Y37900000D02*
X269500000Y37900000D01*
X269500000Y37900000D02*
X269500000Y43700000D01*
X269500000Y45900000D02*
X270034286Y45900000D01*
X269500000Y45728571D02*
X269520000Y45728571D01*
X270185714Y45728571D02*
X270205714Y45728571D01*
X269500000Y45557143D02*
X269520000Y45557143D01*
X270185714Y45557143D02*
X270205714Y45557143D01*
X269500000Y45385714D02*
X269520000Y45385714D01*
X270185714Y45385714D02*
X270205714Y45385714D01*
X269500000Y45214286D02*
X269520000Y45214286D01*
X270185714Y45214286D02*
X270205714Y45214286D01*
X269500000Y45042857D02*
X269520000Y45042857D01*
X270185714Y45042857D02*
X270205714Y45042857D01*
X269500000Y44871429D02*
X270034286Y44871429D01*
X270700000Y45900000D02*
X271062857Y45900000D01*
X270528571Y45728571D02*
X270548571Y45728571D01*
X270528571Y45557143D02*
X270548571Y45557143D01*
X270528571Y45385714D02*
X271062857Y45385714D01*
X270528571Y45214286D02*
X270548571Y45214286D01*
X271214286Y45214286D02*
X271234286Y45214286D01*
X270528571Y45042857D02*
X270548571Y45042857D01*
X271214286Y45042857D02*
X271234286Y45042857D01*
X270700000Y44871429D02*
X271062857Y44871429D01*
X270400000Y37600000D02*
X270934286Y37600000D01*
X270400000Y37428571D02*
X270420000Y37428571D01*
X271085714Y37428571D02*
X271105714Y37428571D01*
X270400000Y37257143D02*
X270420000Y37257143D01*
X271085714Y37257143D02*
X271105714Y37257143D01*
X270400000Y37085714D02*
X270934286Y37085714D01*
X270400000Y36914286D02*
X270420000Y36914286D01*
X270742857Y36914286D02*
X270762857Y36914286D01*
X270400000Y36742857D02*
X270420000Y36742857D01*
X270914286Y36742857D02*
X270934286Y36742857D01*
X270400000Y36571429D02*
X270420000Y36571429D01*
X271085714Y36571429D02*
X271105714Y36571429D01*
X271428571Y37600000D02*
X272134286Y37600000D01*
X271428571Y37428571D02*
X271448571Y37428571D01*
X271428571Y37257143D02*
X271448571Y37257143D01*
X271428571Y37085714D02*
X271962857Y37085714D01*
X271428571Y36914286D02*
X271448571Y36914286D01*
X271428571Y36742857D02*
X271448571Y36742857D01*
X271428571Y36571429D02*
X272134286Y36571429D01*
X272457143Y37600000D02*
X272991429Y37600000D01*
X272457143Y37428571D02*
X272477143Y37428571D01*
X273142857Y37428571D02*
X273162857Y37428571D01*
X272457143Y37257143D02*
X272477143Y37257143D01*
X273142857Y37257143D02*
X273162857Y37257143D01*
X272457143Y37085714D02*
X272477143Y37085714D01*
X273142857Y37085714D02*
X273162857Y37085714D01*
X272457143Y36914286D02*
X272477143Y36914286D01*
X273142857Y36914286D02*
X273162857Y36914286D01*
X272457143Y36742857D02*
X272477143Y36742857D01*
X273142857Y36742857D02*
X273162857Y36742857D01*
X272457143Y36571429D02*
X272991429Y36571429D01*
X270800000Y39528571D02*
X270820000Y39528571D01*
X271314286Y39528571D02*
X271334286Y39528571D01*
X270800000Y39357143D02*
X270820000Y39357143D01*
X271142857Y39357143D02*
X271162857Y39357143D01*
X270800000Y39185714D02*
X270991429Y39185714D01*
X270800000Y39014286D02*
X270820000Y39014286D01*
X271142857Y39014286D02*
X271162857Y39014286D01*
X270800000Y38842857D02*
X270820000Y38842857D01*
X271314286Y38842857D02*
X271334286Y38842857D01*
X270800000Y38671429D02*
X270820000Y38671429D01*
X271485714Y38671429D02*
X271505714Y38671429D01*
X273400000Y39528571D02*
X273420000Y39528571D01*
X274085714Y39528571D02*
X274105714Y39528571D01*
X273400000Y39357143D02*
X273420000Y39357143D01*
X274085714Y39357143D02*
X274105714Y39357143D01*
X273400000Y39185714D02*
X274105714Y39185714D01*
X273400000Y39014286D02*
X273420000Y39014286D01*
X274085714Y39014286D02*
X274105714Y39014286D01*
X273400000Y38842857D02*
X273420000Y38842857D01*
X274085714Y38842857D02*
X274105714Y38842857D01*
X273400000Y38671429D02*
X273420000Y38671429D01*
X274085714Y38671429D02*
X274105714Y38671429D01*
X269150000Y35050000D02*
X275650000Y35050000D01*
X275650000Y35050000D02*
X275650000Y32550000D01*
X275650000Y32550000D02*
X269150000Y32550000D01*
X269150000Y32550000D02*
X269150000Y35050000D01*
X269150000Y31700000D02*
X269684286Y31700000D01*
X269150000Y31528571D02*
X269170000Y31528571D01*
X269835714Y31528571D02*
X269855714Y31528571D01*
X269150000Y31357143D02*
X269170000Y31357143D01*
X269835714Y31357143D02*
X269855714Y31357143D01*
X269150000Y31185714D02*
X269684286Y31185714D01*
X269150000Y31014286D02*
X269170000Y31014286D01*
X269492857Y31014286D02*
X269512857Y31014286D01*
X269150000Y30842857D02*
X269170000Y30842857D01*
X269664286Y30842857D02*
X269684286Y30842857D01*
X269150000Y30671429D02*
X269170000Y30671429D01*
X269835714Y30671429D02*
X269855714Y30671429D01*
X270521429Y31700000D02*
X270541429Y31700000D01*
X270350000Y31528571D02*
X270541429Y31528571D01*
X270521429Y31357143D02*
X270541429Y31357143D01*
X270521429Y31185714D02*
X270541429Y31185714D01*
X270521429Y31014286D02*
X270541429Y31014286D01*
X270521429Y30842857D02*
X270541429Y30842857D01*
X270350000Y30671429D02*
X270712857Y30671429D01*
X271721429Y31700000D02*
X271741429Y31700000D01*
X271550000Y31528571D02*
X271741429Y31528571D01*
X271378571Y31357143D02*
X271398571Y31357143D01*
X271721429Y31357143D02*
X271741429Y31357143D01*
X271207143Y31185714D02*
X271227143Y31185714D01*
X271721429Y31185714D02*
X271741429Y31185714D01*
X271207143Y31014286D02*
X271912857Y31014286D01*
X271721429Y30842857D02*
X271741429Y30842857D01*
X271721429Y30671429D02*
X271741429Y30671429D01*
X283500000Y43700000D02*
X289300000Y43700000D01*
X289300000Y43700000D02*
X289300000Y37900000D01*
X289300000Y37900000D02*
X283500000Y37900000D01*
X283500000Y37900000D02*
X283500000Y43700000D01*
X283500000Y45900000D02*
X284034286Y45900000D01*
X283500000Y45728571D02*
X283520000Y45728571D01*
X284185714Y45728571D02*
X284205714Y45728571D01*
X283500000Y45557143D02*
X283520000Y45557143D01*
X284185714Y45557143D02*
X284205714Y45557143D01*
X283500000Y45385714D02*
X283520000Y45385714D01*
X284185714Y45385714D02*
X284205714Y45385714D01*
X283500000Y45214286D02*
X283520000Y45214286D01*
X284185714Y45214286D02*
X284205714Y45214286D01*
X283500000Y45042857D02*
X283520000Y45042857D01*
X284185714Y45042857D02*
X284205714Y45042857D01*
X283500000Y44871429D02*
X284034286Y44871429D01*
X284871429Y45900000D02*
X284891429Y45900000D01*
X284700000Y45728571D02*
X284891429Y45728571D01*
X284871429Y45557143D02*
X284891429Y45557143D01*
X284871429Y45385714D02*
X284891429Y45385714D01*
X284871429Y45214286D02*
X284891429Y45214286D01*
X284871429Y45042857D02*
X284891429Y45042857D01*
X284700000Y44871429D02*
X285062857Y44871429D01*
X286071429Y45900000D02*
X286091429Y45900000D01*
X285900000Y45728571D02*
X286091429Y45728571D01*
X285728571Y45557143D02*
X285748571Y45557143D01*
X286071429Y45557143D02*
X286091429Y45557143D01*
X285557143Y45385714D02*
X285577143Y45385714D01*
X286071429Y45385714D02*
X286091429Y45385714D01*
X285557143Y45214286D02*
X286262857Y45214286D01*
X286071429Y45042857D02*
X286091429Y45042857D01*
X286071429Y44871429D02*
X286091429Y44871429D01*
X284571429Y37600000D02*
X285105714Y37600000D01*
X284400000Y37428571D02*
X284420000Y37428571D01*
X284400000Y37257143D02*
X284420000Y37257143D01*
X284400000Y37085714D02*
X284420000Y37085714D01*
X284742857Y37085714D02*
X285105714Y37085714D01*
X284400000Y36914286D02*
X284420000Y36914286D01*
X285085714Y36914286D02*
X285105714Y36914286D01*
X284400000Y36742857D02*
X284420000Y36742857D01*
X285085714Y36742857D02*
X285105714Y36742857D01*
X284571429Y36571429D02*
X285105714Y36571429D01*
X285428571Y37600000D02*
X285962857Y37600000D01*
X285428571Y37428571D02*
X285448571Y37428571D01*
X286114286Y37428571D02*
X286134286Y37428571D01*
X285428571Y37257143D02*
X285448571Y37257143D01*
X286114286Y37257143D02*
X286134286Y37257143D01*
X285428571Y37085714D02*
X285962857Y37085714D01*
X285428571Y36914286D02*
X285448571Y36914286D01*
X285771429Y36914286D02*
X285791429Y36914286D01*
X285428571Y36742857D02*
X285448571Y36742857D01*
X285942857Y36742857D02*
X285962857Y36742857D01*
X285428571Y36571429D02*
X285448571Y36571429D01*
X286114286Y36571429D02*
X286134286Y36571429D01*
X286457143Y37600000D02*
X287162857Y37600000D01*
X286457143Y37428571D02*
X286477143Y37428571D01*
X286457143Y37257143D02*
X286477143Y37257143D01*
X286457143Y37085714D02*
X286991429Y37085714D01*
X286457143Y36914286D02*
X286477143Y36914286D01*
X286457143Y36742857D02*
X286477143Y36742857D01*
X286457143Y36571429D02*
X287162857Y36571429D01*
X287485714Y37600000D02*
X288191429Y37600000D01*
X287485714Y37428571D02*
X287505714Y37428571D01*
X287485714Y37257143D02*
X287505714Y37257143D01*
X287485714Y37085714D02*
X288020000Y37085714D01*
X287485714Y36914286D02*
X287505714Y36914286D01*
X287485714Y36742857D02*
X287505714Y36742857D01*
X287485714Y36571429D02*
X288191429Y36571429D01*
X288514286Y37600000D02*
X288534286Y37600000D01*
X289200000Y37600000D02*
X289220000Y37600000D01*
X288514286Y37428571D02*
X288705714Y37428571D01*
X289200000Y37428571D02*
X289220000Y37428571D01*
X288514286Y37257143D02*
X288534286Y37257143D01*
X288857143Y37257143D02*
X288877143Y37257143D01*
X289200000Y37257143D02*
X289220000Y37257143D01*
X288514286Y37085714D02*
X288534286Y37085714D01*
X289028571Y37085714D02*
X289220000Y37085714D01*
X288514286Y36914286D02*
X288534286Y36914286D01*
X289200000Y36914286D02*
X289220000Y36914286D01*
X288514286Y36742857D02*
X288534286Y36742857D01*
X289200000Y36742857D02*
X289220000Y36742857D01*
X288514286Y36571429D02*
X288534286Y36571429D01*
X289200000Y36571429D02*
X289220000Y36571429D01*
X284800000Y39528571D02*
X284820000Y39528571D01*
X285314286Y39528571D02*
X285334286Y39528571D01*
X284800000Y39357143D02*
X284820000Y39357143D01*
X285142857Y39357143D02*
X285162857Y39357143D01*
X284800000Y39185714D02*
X284991429Y39185714D01*
X284800000Y39014286D02*
X284820000Y39014286D01*
X285142857Y39014286D02*
X285162857Y39014286D01*
X284800000Y38842857D02*
X284820000Y38842857D01*
X285314286Y38842857D02*
X285334286Y38842857D01*
X284800000Y38671429D02*
X284820000Y38671429D01*
X285485714Y38671429D02*
X285505714Y38671429D01*
X287400000Y39528571D02*
X287420000Y39528571D01*
X288085714Y39528571D02*
X288105714Y39528571D01*
X287400000Y39357143D02*
X287420000Y39357143D01*
X288085714Y39357143D02*
X288105714Y39357143D01*
X287400000Y39185714D02*
X288105714Y39185714D01*
X287400000Y39014286D02*
X287420000Y39014286D01*
X288085714Y39014286D02*
X288105714Y39014286D01*
X287400000Y38842857D02*
X287420000Y38842857D01*
X288085714Y38842857D02*
X288105714Y38842857D01*
X287400000Y38671429D02*
X287420000Y38671429D01*
X288085714Y38671429D02*
X288105714Y38671429D01*
X283150000Y35050000D02*
X289650000Y35050000D01*
X289650000Y35050000D02*
X289650000Y32550000D01*
X289650000Y32550000D02*
X283150000Y32550000D01*
X283150000Y32550000D02*
X283150000Y35050000D01*
X283150000Y31700000D02*
X283684286Y31700000D01*
X283150000Y31528571D02*
X283170000Y31528571D01*
X283835714Y31528571D02*
X283855714Y31528571D01*
X283150000Y31357143D02*
X283170000Y31357143D01*
X283835714Y31357143D02*
X283855714Y31357143D01*
X283150000Y31185714D02*
X283684286Y31185714D01*
X283150000Y31014286D02*
X283170000Y31014286D01*
X283492857Y31014286D02*
X283512857Y31014286D01*
X283150000Y30842857D02*
X283170000Y30842857D01*
X283664286Y30842857D02*
X283684286Y30842857D01*
X283150000Y30671429D02*
X283170000Y30671429D01*
X283835714Y30671429D02*
X283855714Y30671429D01*
X284350000Y31700000D02*
X284712857Y31700000D01*
X284178571Y31528571D02*
X284198571Y31528571D01*
X284864286Y31528571D02*
X284884286Y31528571D01*
X284864286Y31357143D02*
X284884286Y31357143D01*
X284692857Y31185714D02*
X284712857Y31185714D01*
X284521429Y31014286D02*
X284541429Y31014286D01*
X284350000Y30842857D02*
X284370000Y30842857D01*
X284178571Y30671429D02*
X284884286Y30671429D01*
X285378571Y31700000D02*
X285741429Y31700000D01*
X285207143Y31528571D02*
X285227143Y31528571D01*
X285892857Y31528571D02*
X285912857Y31528571D01*
X285892857Y31357143D02*
X285912857Y31357143D01*
X285721429Y31185714D02*
X285741429Y31185714D01*
X285550000Y31014286D02*
X285570000Y31014286D01*
X285378571Y30842857D02*
X285398571Y30842857D01*
X285207143Y30671429D02*
X285912857Y30671429D01*
X327200000Y27900000D02*
X333200000Y27900000D01*
X333200000Y27900000D02*
X333200000Y22900000D01*
X333200000Y22900000D02*
X327200000Y22900000D01*
X327200000Y22900000D02*
X327200000Y27900000D01*
X334200000Y26000000D02*
X334220000Y26000000D01*
X334885714Y26000000D02*
X334905714Y26000000D01*
X334200000Y25828571D02*
X334220000Y25828571D01*
X334885714Y25828571D02*
X334905714Y25828571D01*
X334200000Y25657143D02*
X334220000Y25657143D01*
X334885714Y25657143D02*
X334905714Y25657143D01*
X334200000Y25485714D02*
X334220000Y25485714D01*
X334885714Y25485714D02*
X334905714Y25485714D01*
X334200000Y25314286D02*
X334220000Y25314286D01*
X334885714Y25314286D02*
X334905714Y25314286D01*
X334200000Y25142857D02*
X334220000Y25142857D01*
X334885714Y25142857D02*
X334905714Y25142857D01*
X334371429Y24971429D02*
X334734286Y24971429D01*
X335228571Y26000000D02*
X335934286Y26000000D01*
X335914286Y25828571D02*
X335934286Y25828571D01*
X335742857Y25657143D02*
X335762857Y25657143D01*
X335571429Y25485714D02*
X335591429Y25485714D01*
X335400000Y25314286D02*
X335420000Y25314286D01*
X335400000Y25142857D02*
X335420000Y25142857D01*
X335400000Y24971429D02*
X335420000Y24971429D01*
X328200000Y25400000D02*
X332200000Y25400000D01*
X330200000Y27400000D02*
X330200000Y23400000D01*
X326600000Y30600000D02*
X327305714Y30600000D01*
X326600000Y30428571D02*
X326620000Y30428571D01*
X326600000Y30257143D02*
X326620000Y30257143D01*
X326600000Y30085714D02*
X327134286Y30085714D01*
X326600000Y29914286D02*
X326620000Y29914286D01*
X326600000Y29742857D02*
X326620000Y29742857D01*
X326600000Y29571429D02*
X326620000Y29571429D01*
X327800000Y30600000D02*
X328162857Y30600000D01*
X327628571Y30428571D02*
X327648571Y30428571D01*
X328314286Y30428571D02*
X328334286Y30428571D01*
X327628571Y30257143D02*
X327648571Y30257143D01*
X328314286Y30257143D02*
X328334286Y30257143D01*
X327628571Y30085714D02*
X328334286Y30085714D01*
X327628571Y29914286D02*
X327648571Y29914286D01*
X328314286Y29914286D02*
X328334286Y29914286D01*
X327628571Y29742857D02*
X327648571Y29742857D01*
X328314286Y29742857D02*
X328334286Y29742857D01*
X327628571Y29571429D02*
X327648571Y29571429D01*
X328314286Y29571429D02*
X328334286Y29571429D01*
X328828571Y30600000D02*
X329362857Y30600000D01*
X328657143Y30428571D02*
X328677143Y30428571D01*
X328657143Y30257143D02*
X328677143Y30257143D01*
X328657143Y30085714D02*
X328677143Y30085714D01*
X328657143Y29914286D02*
X328677143Y29914286D01*
X328657143Y29742857D02*
X328677143Y29742857D01*
X328828571Y29571429D02*
X329362857Y29571429D01*
X329685714Y30600000D02*
X330391429Y30600000D01*
X329685714Y30428571D02*
X329705714Y30428571D01*
X329685714Y30257143D02*
X329705714Y30257143D01*
X329685714Y30085714D02*
X330220000Y30085714D01*
X329685714Y29914286D02*
X329705714Y29914286D01*
X329685714Y29742857D02*
X329705714Y29742857D01*
X329685714Y29571429D02*
X330391429Y29571429D01*
X331742857Y30600000D02*
X331762857Y30600000D01*
X332428571Y30600000D02*
X332448571Y30600000D01*
X331742857Y30428571D02*
X331762857Y30428571D01*
X332428571Y30428571D02*
X332448571Y30428571D01*
X331742857Y30257143D02*
X331762857Y30257143D01*
X332428571Y30257143D02*
X332448571Y30257143D01*
X331742857Y30085714D02*
X331762857Y30085714D01*
X332428571Y30085714D02*
X332448571Y30085714D01*
X331742857Y29914286D02*
X331762857Y29914286D01*
X332428571Y29914286D02*
X332448571Y29914286D01*
X331742857Y29742857D02*
X331762857Y29742857D01*
X332428571Y29742857D02*
X332448571Y29742857D01*
X331914286Y29571429D02*
X332277143Y29571429D01*
X332771429Y30600000D02*
X333305714Y30600000D01*
X332771429Y30428571D02*
X332791429Y30428571D01*
X333457143Y30428571D02*
X333477143Y30428571D01*
X332771429Y30257143D02*
X332791429Y30257143D01*
X333457143Y30257143D02*
X333477143Y30257143D01*
X332771429Y30085714D02*
X333305714Y30085714D01*
X332771429Y29914286D02*
X332791429Y29914286D01*
X332771429Y29742857D02*
X332791429Y29742857D01*
X332771429Y29571429D02*
X332791429Y29571429D01*
X327300000Y17800000D02*
X327320000Y17800000D01*
X327985714Y17800000D02*
X328005714Y17800000D01*
X327300000Y17628571D02*
X327320000Y17628571D01*
X327985714Y17628571D02*
X328005714Y17628571D01*
X327300000Y17457143D02*
X327320000Y17457143D01*
X327985714Y17457143D02*
X328005714Y17457143D01*
X327300000Y17285714D02*
X327320000Y17285714D01*
X327985714Y17285714D02*
X328005714Y17285714D01*
X327300000Y17114286D02*
X327320000Y17114286D01*
X327985714Y17114286D02*
X328005714Y17114286D01*
X327471429Y16942857D02*
X327491429Y16942857D01*
X327814286Y16942857D02*
X327834286Y16942857D01*
X327642857Y16771429D02*
X327662857Y16771429D01*
X330071429Y17800000D02*
X330605714Y17800000D01*
X329900000Y17628571D02*
X329920000Y17628571D01*
X329900000Y17457143D02*
X329920000Y17457143D01*
X329900000Y17285714D02*
X329920000Y17285714D01*
X330242857Y17285714D02*
X330605714Y17285714D01*
X329900000Y17114286D02*
X329920000Y17114286D01*
X330585714Y17114286D02*
X330605714Y17114286D01*
X329900000Y16942857D02*
X329920000Y16942857D01*
X330585714Y16942857D02*
X330605714Y16942857D01*
X330071429Y16771429D02*
X330605714Y16771429D01*
X332571429Y17800000D02*
X332934286Y17800000D01*
X332400000Y17628571D02*
X332420000Y17628571D01*
X333085714Y17628571D02*
X333105714Y17628571D01*
X332400000Y17457143D02*
X332420000Y17457143D01*
X333085714Y17457143D02*
X333105714Y17457143D01*
X332400000Y17285714D02*
X332420000Y17285714D01*
X333085714Y17285714D02*
X333105714Y17285714D01*
X332400000Y17114286D02*
X332420000Y17114286D01*
X333085714Y17114286D02*
X333105714Y17114286D01*
X332400000Y16942857D02*
X332420000Y16942857D01*
X333085714Y16942857D02*
X333105714Y16942857D01*
X332571429Y16771429D02*
X332934286Y16771429D01*
X324660000Y15900000D02*
X330660000Y15900000D01*
X330660000Y12900000D02*
X324660000Y12900000D01*
X324831429Y11900000D02*
X325365714Y11900000D01*
X324660000Y11728571D02*
X324680000Y11728571D01*
X324660000Y11557143D02*
X324680000Y11557143D01*
X324660000Y11385714D02*
X324680000Y11385714D01*
X324660000Y11214286D02*
X324680000Y11214286D01*
X324660000Y11042857D02*
X324680000Y11042857D01*
X324831429Y10871429D02*
X325365714Y10871429D01*
X325688571Y11900000D02*
X326394286Y11900000D01*
X326374286Y11728571D02*
X326394286Y11728571D01*
X326202857Y11557143D02*
X326222857Y11557143D01*
X326031429Y11385714D02*
X326051429Y11385714D01*
X325860000Y11214286D02*
X325880000Y11214286D01*
X325860000Y11042857D02*
X325880000Y11042857D01*
X325860000Y10871429D02*
X325880000Y10871429D01*
X336950000Y21550000D02*
X343450000Y21550000D01*
X343450000Y21550000D02*
X343450000Y19050000D01*
X343450000Y19050000D02*
X336950000Y19050000D01*
X336950000Y19050000D02*
X336950000Y21550000D01*
X336950000Y18200000D02*
X337484286Y18200000D01*
X336950000Y18028571D02*
X336970000Y18028571D01*
X337635714Y18028571D02*
X337655714Y18028571D01*
X336950000Y17857143D02*
X336970000Y17857143D01*
X337635714Y17857143D02*
X337655714Y17857143D01*
X336950000Y17685714D02*
X337484286Y17685714D01*
X336950000Y17514286D02*
X336970000Y17514286D01*
X337292857Y17514286D02*
X337312857Y17514286D01*
X336950000Y17342857D02*
X336970000Y17342857D01*
X337464286Y17342857D02*
X337484286Y17342857D01*
X336950000Y17171429D02*
X336970000Y17171429D01*
X337635714Y17171429D02*
X337655714Y17171429D01*
X337978571Y18200000D02*
X338684286Y18200000D01*
X338664286Y18028571D02*
X338684286Y18028571D01*
X338492857Y17857143D02*
X338512857Y17857143D01*
X338321429Y17685714D02*
X338341429Y17685714D01*
X338150000Y17514286D02*
X338170000Y17514286D01*
X338150000Y17342857D02*
X338170000Y17342857D01*
X338150000Y17171429D02*
X338170000Y17171429D01*
X320300000Y43700000D02*
X326100000Y43700000D01*
X326100000Y43700000D02*
X326100000Y37900000D01*
X326100000Y37900000D02*
X320300000Y37900000D01*
X320300000Y37900000D02*
X320300000Y43700000D01*
X320300000Y45900000D02*
X320834286Y45900000D01*
X320300000Y45728571D02*
X320320000Y45728571D01*
X320985714Y45728571D02*
X321005714Y45728571D01*
X320300000Y45557143D02*
X320320000Y45557143D01*
X320985714Y45557143D02*
X321005714Y45557143D01*
X320300000Y45385714D02*
X320320000Y45385714D01*
X320985714Y45385714D02*
X321005714Y45385714D01*
X320300000Y45214286D02*
X320320000Y45214286D01*
X320985714Y45214286D02*
X321005714Y45214286D01*
X320300000Y45042857D02*
X320320000Y45042857D01*
X320985714Y45042857D02*
X321005714Y45042857D01*
X320300000Y44871429D02*
X320834286Y44871429D01*
X321328571Y45900000D02*
X322034286Y45900000D01*
X322014286Y45728571D02*
X322034286Y45728571D01*
X321842857Y45557143D02*
X321862857Y45557143D01*
X321671429Y45385714D02*
X321691429Y45385714D01*
X321500000Y45214286D02*
X321520000Y45214286D01*
X321500000Y45042857D02*
X321520000Y45042857D01*
X321500000Y44871429D02*
X321520000Y44871429D01*
X321200000Y37600000D02*
X321734286Y37600000D01*
X321200000Y37428571D02*
X321220000Y37428571D01*
X321885714Y37428571D02*
X321905714Y37428571D01*
X321200000Y37257143D02*
X321220000Y37257143D01*
X321885714Y37257143D02*
X321905714Y37257143D01*
X321200000Y37085714D02*
X321734286Y37085714D01*
X321200000Y36914286D02*
X321220000Y36914286D01*
X321542857Y36914286D02*
X321562857Y36914286D01*
X321200000Y36742857D02*
X321220000Y36742857D01*
X321714286Y36742857D02*
X321734286Y36742857D01*
X321200000Y36571429D02*
X321220000Y36571429D01*
X321885714Y36571429D02*
X321905714Y36571429D01*
X322228571Y37600000D02*
X322934286Y37600000D01*
X322228571Y37428571D02*
X322248571Y37428571D01*
X322228571Y37257143D02*
X322248571Y37257143D01*
X322228571Y37085714D02*
X322762857Y37085714D01*
X322228571Y36914286D02*
X322248571Y36914286D01*
X322228571Y36742857D02*
X322248571Y36742857D01*
X322228571Y36571429D02*
X322934286Y36571429D01*
X323257143Y37600000D02*
X323791429Y37600000D01*
X323257143Y37428571D02*
X323277143Y37428571D01*
X323942857Y37428571D02*
X323962857Y37428571D01*
X323257143Y37257143D02*
X323277143Y37257143D01*
X323942857Y37257143D02*
X323962857Y37257143D01*
X323257143Y37085714D02*
X323277143Y37085714D01*
X323942857Y37085714D02*
X323962857Y37085714D01*
X323257143Y36914286D02*
X323277143Y36914286D01*
X323942857Y36914286D02*
X323962857Y36914286D01*
X323257143Y36742857D02*
X323277143Y36742857D01*
X323942857Y36742857D02*
X323962857Y36742857D01*
X323257143Y36571429D02*
X323791429Y36571429D01*
X321600000Y39528571D02*
X321620000Y39528571D01*
X322114286Y39528571D02*
X322134286Y39528571D01*
X321600000Y39357143D02*
X321620000Y39357143D01*
X321942857Y39357143D02*
X321962857Y39357143D01*
X321600000Y39185714D02*
X321791429Y39185714D01*
X321600000Y39014286D02*
X321620000Y39014286D01*
X321942857Y39014286D02*
X321962857Y39014286D01*
X321600000Y38842857D02*
X321620000Y38842857D01*
X322114286Y38842857D02*
X322134286Y38842857D01*
X321600000Y38671429D02*
X321620000Y38671429D01*
X322285714Y38671429D02*
X322305714Y38671429D01*
X324200000Y39528571D02*
X324220000Y39528571D01*
X324885714Y39528571D02*
X324905714Y39528571D01*
X324200000Y39357143D02*
X324220000Y39357143D01*
X324885714Y39357143D02*
X324905714Y39357143D01*
X324200000Y39185714D02*
X324905714Y39185714D01*
X324200000Y39014286D02*
X324220000Y39014286D01*
X324885714Y39014286D02*
X324905714Y39014286D01*
X324200000Y38842857D02*
X324220000Y38842857D01*
X324885714Y38842857D02*
X324905714Y38842857D01*
X324200000Y38671429D02*
X324220000Y38671429D01*
X324885714Y38671429D02*
X324905714Y38671429D01*
X319950000Y35050000D02*
X326450000Y35050000D01*
X326450000Y35050000D02*
X326450000Y32550000D01*
X326450000Y32550000D02*
X319950000Y32550000D01*
X319950000Y32550000D02*
X319950000Y35050000D01*
X319950000Y31700000D02*
X320484286Y31700000D01*
X319950000Y31528571D02*
X319970000Y31528571D01*
X320635714Y31528571D02*
X320655714Y31528571D01*
X319950000Y31357143D02*
X319970000Y31357143D01*
X320635714Y31357143D02*
X320655714Y31357143D01*
X319950000Y31185714D02*
X320484286Y31185714D01*
X319950000Y31014286D02*
X319970000Y31014286D01*
X320292857Y31014286D02*
X320312857Y31014286D01*
X319950000Y30842857D02*
X319970000Y30842857D01*
X320464286Y30842857D02*
X320484286Y30842857D01*
X319950000Y30671429D02*
X319970000Y30671429D01*
X320635714Y30671429D02*
X320655714Y30671429D01*
X321321429Y31700000D02*
X321341429Y31700000D01*
X321150000Y31528571D02*
X321341429Y31528571D01*
X321321429Y31357143D02*
X321341429Y31357143D01*
X321321429Y31185714D02*
X321341429Y31185714D01*
X321321429Y31014286D02*
X321341429Y31014286D01*
X321321429Y30842857D02*
X321341429Y30842857D01*
X321150000Y30671429D02*
X321512857Y30671429D01*
X322007143Y31700000D02*
X322712857Y31700000D01*
X322007143Y31528571D02*
X322027143Y31528571D01*
X322007143Y31357143D02*
X322027143Y31357143D01*
X322007143Y31185714D02*
X322541429Y31185714D01*
X322692857Y31014286D02*
X322712857Y31014286D01*
X322692857Y30842857D02*
X322712857Y30842857D01*
X322007143Y30671429D02*
X322541429Y30671429D01*
X334300000Y43700000D02*
X340100000Y43700000D01*
X340100000Y43700000D02*
X340100000Y37900000D01*
X340100000Y37900000D02*
X334300000Y37900000D01*
X334300000Y37900000D02*
X334300000Y43700000D01*
X334300000Y45900000D02*
X334834286Y45900000D01*
X334300000Y45728571D02*
X334320000Y45728571D01*
X334985714Y45728571D02*
X335005714Y45728571D01*
X334300000Y45557143D02*
X334320000Y45557143D01*
X334985714Y45557143D02*
X335005714Y45557143D01*
X334300000Y45385714D02*
X334320000Y45385714D01*
X334985714Y45385714D02*
X335005714Y45385714D01*
X334300000Y45214286D02*
X334320000Y45214286D01*
X334985714Y45214286D02*
X335005714Y45214286D01*
X334300000Y45042857D02*
X334320000Y45042857D01*
X334985714Y45042857D02*
X335005714Y45042857D01*
X334300000Y44871429D02*
X334834286Y44871429D01*
X335671429Y45900000D02*
X335691429Y45900000D01*
X335500000Y45728571D02*
X335691429Y45728571D01*
X335671429Y45557143D02*
X335691429Y45557143D01*
X335671429Y45385714D02*
X335691429Y45385714D01*
X335671429Y45214286D02*
X335691429Y45214286D01*
X335671429Y45042857D02*
X335691429Y45042857D01*
X335500000Y44871429D02*
X335862857Y44871429D01*
X336357143Y45900000D02*
X337062857Y45900000D01*
X336357143Y45728571D02*
X336377143Y45728571D01*
X336357143Y45557143D02*
X336377143Y45557143D01*
X336357143Y45385714D02*
X336891429Y45385714D01*
X337042857Y45214286D02*
X337062857Y45214286D01*
X337042857Y45042857D02*
X337062857Y45042857D01*
X336357143Y44871429D02*
X336891429Y44871429D01*
X335371429Y37600000D02*
X335905714Y37600000D01*
X335200000Y37428571D02*
X335220000Y37428571D01*
X335200000Y37257143D02*
X335220000Y37257143D01*
X335200000Y37085714D02*
X335220000Y37085714D01*
X335542857Y37085714D02*
X335905714Y37085714D01*
X335200000Y36914286D02*
X335220000Y36914286D01*
X335885714Y36914286D02*
X335905714Y36914286D01*
X335200000Y36742857D02*
X335220000Y36742857D01*
X335885714Y36742857D02*
X335905714Y36742857D01*
X335371429Y36571429D02*
X335905714Y36571429D01*
X336228571Y37600000D02*
X336762857Y37600000D01*
X336228571Y37428571D02*
X336248571Y37428571D01*
X336914286Y37428571D02*
X336934286Y37428571D01*
X336228571Y37257143D02*
X336248571Y37257143D01*
X336914286Y37257143D02*
X336934286Y37257143D01*
X336228571Y37085714D02*
X336762857Y37085714D01*
X336228571Y36914286D02*
X336248571Y36914286D01*
X336571429Y36914286D02*
X336591429Y36914286D01*
X336228571Y36742857D02*
X336248571Y36742857D01*
X336742857Y36742857D02*
X336762857Y36742857D01*
X336228571Y36571429D02*
X336248571Y36571429D01*
X336914286Y36571429D02*
X336934286Y36571429D01*
X337257143Y37600000D02*
X337962857Y37600000D01*
X337257143Y37428571D02*
X337277143Y37428571D01*
X337257143Y37257143D02*
X337277143Y37257143D01*
X337257143Y37085714D02*
X337791429Y37085714D01*
X337257143Y36914286D02*
X337277143Y36914286D01*
X337257143Y36742857D02*
X337277143Y36742857D01*
X337257143Y36571429D02*
X337962857Y36571429D01*
X338285714Y37600000D02*
X338991429Y37600000D01*
X338285714Y37428571D02*
X338305714Y37428571D01*
X338285714Y37257143D02*
X338305714Y37257143D01*
X338285714Y37085714D02*
X338820000Y37085714D01*
X338285714Y36914286D02*
X338305714Y36914286D01*
X338285714Y36742857D02*
X338305714Y36742857D01*
X338285714Y36571429D02*
X338991429Y36571429D01*
X339314286Y37600000D02*
X339334286Y37600000D01*
X340000000Y37600000D02*
X340020000Y37600000D01*
X339314286Y37428571D02*
X339505714Y37428571D01*
X340000000Y37428571D02*
X340020000Y37428571D01*
X339314286Y37257143D02*
X339334286Y37257143D01*
X339657143Y37257143D02*
X339677143Y37257143D01*
X340000000Y37257143D02*
X340020000Y37257143D01*
X339314286Y37085714D02*
X339334286Y37085714D01*
X339828571Y37085714D02*
X340020000Y37085714D01*
X339314286Y36914286D02*
X339334286Y36914286D01*
X340000000Y36914286D02*
X340020000Y36914286D01*
X339314286Y36742857D02*
X339334286Y36742857D01*
X340000000Y36742857D02*
X340020000Y36742857D01*
X339314286Y36571429D02*
X339334286Y36571429D01*
X340000000Y36571429D02*
X340020000Y36571429D01*
X335600000Y39528571D02*
X335620000Y39528571D01*
X336114286Y39528571D02*
X336134286Y39528571D01*
X335600000Y39357143D02*
X335620000Y39357143D01*
X335942857Y39357143D02*
X335962857Y39357143D01*
X335600000Y39185714D02*
X335791429Y39185714D01*
X335600000Y39014286D02*
X335620000Y39014286D01*
X335942857Y39014286D02*
X335962857Y39014286D01*
X335600000Y38842857D02*
X335620000Y38842857D01*
X336114286Y38842857D02*
X336134286Y38842857D01*
X335600000Y38671429D02*
X335620000Y38671429D01*
X336285714Y38671429D02*
X336305714Y38671429D01*
X338200000Y39528571D02*
X338220000Y39528571D01*
X338885714Y39528571D02*
X338905714Y39528571D01*
X338200000Y39357143D02*
X338220000Y39357143D01*
X338885714Y39357143D02*
X338905714Y39357143D01*
X338200000Y39185714D02*
X338905714Y39185714D01*
X338200000Y39014286D02*
X338220000Y39014286D01*
X338885714Y39014286D02*
X338905714Y39014286D01*
X338200000Y38842857D02*
X338220000Y38842857D01*
X338885714Y38842857D02*
X338905714Y38842857D01*
X338200000Y38671429D02*
X338220000Y38671429D01*
X338885714Y38671429D02*
X338905714Y38671429D01*
X333950000Y35050000D02*
X340450000Y35050000D01*
X340450000Y35050000D02*
X340450000Y32550000D01*
X340450000Y32550000D02*
X333950000Y32550000D01*
X333950000Y32550000D02*
X333950000Y35050000D01*
X333950000Y31700000D02*
X334484286Y31700000D01*
X333950000Y31528571D02*
X333970000Y31528571D01*
X334635714Y31528571D02*
X334655714Y31528571D01*
X333950000Y31357143D02*
X333970000Y31357143D01*
X334635714Y31357143D02*
X334655714Y31357143D01*
X333950000Y31185714D02*
X334484286Y31185714D01*
X333950000Y31014286D02*
X333970000Y31014286D01*
X334292857Y31014286D02*
X334312857Y31014286D01*
X333950000Y30842857D02*
X333970000Y30842857D01*
X334464286Y30842857D02*
X334484286Y30842857D01*
X333950000Y30671429D02*
X333970000Y30671429D01*
X334635714Y30671429D02*
X334655714Y30671429D01*
X335150000Y31700000D02*
X335512857Y31700000D01*
X334978571Y31528571D02*
X334998571Y31528571D01*
X335664286Y31528571D02*
X335684286Y31528571D01*
X335664286Y31357143D02*
X335684286Y31357143D01*
X335492857Y31185714D02*
X335512857Y31185714D01*
X335321429Y31014286D02*
X335341429Y31014286D01*
X335150000Y30842857D02*
X335170000Y30842857D01*
X334978571Y30671429D02*
X335684286Y30671429D01*
X336007143Y31700000D02*
X336541429Y31700000D01*
X336692857Y31528571D02*
X336712857Y31528571D01*
X336692857Y31357143D02*
X336712857Y31357143D01*
X336178571Y31185714D02*
X336541429Y31185714D01*
X336692857Y31014286D02*
X336712857Y31014286D01*
X336692857Y30842857D02*
X336712857Y30842857D01*
X336007143Y30671429D02*
X336541429Y30671429D01*
X378000000Y27900000D02*
X384000000Y27900000D01*
X384000000Y27900000D02*
X384000000Y22900000D01*
X384000000Y22900000D02*
X378000000Y22900000D01*
X378000000Y22900000D02*
X378000000Y27900000D01*
X385000000Y26000000D02*
X385020000Y26000000D01*
X385685714Y26000000D02*
X385705714Y26000000D01*
X385000000Y25828571D02*
X385020000Y25828571D01*
X385685714Y25828571D02*
X385705714Y25828571D01*
X385000000Y25657143D02*
X385020000Y25657143D01*
X385685714Y25657143D02*
X385705714Y25657143D01*
X385000000Y25485714D02*
X385020000Y25485714D01*
X385685714Y25485714D02*
X385705714Y25485714D01*
X385000000Y25314286D02*
X385020000Y25314286D01*
X385685714Y25314286D02*
X385705714Y25314286D01*
X385000000Y25142857D02*
X385020000Y25142857D01*
X385685714Y25142857D02*
X385705714Y25142857D01*
X385171429Y24971429D02*
X385534286Y24971429D01*
X386200000Y26000000D02*
X386562857Y26000000D01*
X386028571Y25828571D02*
X386048571Y25828571D01*
X386714286Y25828571D02*
X386734286Y25828571D01*
X386028571Y25657143D02*
X386048571Y25657143D01*
X386714286Y25657143D02*
X386734286Y25657143D01*
X386200000Y25485714D02*
X386562857Y25485714D01*
X386028571Y25314286D02*
X386048571Y25314286D01*
X386714286Y25314286D02*
X386734286Y25314286D01*
X386028571Y25142857D02*
X386048571Y25142857D01*
X386714286Y25142857D02*
X386734286Y25142857D01*
X386200000Y24971429D02*
X386562857Y24971429D01*
X379000000Y25400000D02*
X383000000Y25400000D01*
X381000000Y27400000D02*
X381000000Y23400000D01*
X377400000Y30600000D02*
X378105714Y30600000D01*
X377400000Y30428571D02*
X377420000Y30428571D01*
X377400000Y30257143D02*
X377420000Y30257143D01*
X377400000Y30085714D02*
X377934286Y30085714D01*
X377400000Y29914286D02*
X377420000Y29914286D01*
X377400000Y29742857D02*
X377420000Y29742857D01*
X377400000Y29571429D02*
X377420000Y29571429D01*
X378600000Y30600000D02*
X378962857Y30600000D01*
X378428571Y30428571D02*
X378448571Y30428571D01*
X379114286Y30428571D02*
X379134286Y30428571D01*
X378428571Y30257143D02*
X378448571Y30257143D01*
X379114286Y30257143D02*
X379134286Y30257143D01*
X378428571Y30085714D02*
X379134286Y30085714D01*
X378428571Y29914286D02*
X378448571Y29914286D01*
X379114286Y29914286D02*
X379134286Y29914286D01*
X378428571Y29742857D02*
X378448571Y29742857D01*
X379114286Y29742857D02*
X379134286Y29742857D01*
X378428571Y29571429D02*
X378448571Y29571429D01*
X379114286Y29571429D02*
X379134286Y29571429D01*
X379628571Y30600000D02*
X380162857Y30600000D01*
X379457143Y30428571D02*
X379477143Y30428571D01*
X379457143Y30257143D02*
X379477143Y30257143D01*
X379457143Y30085714D02*
X379477143Y30085714D01*
X379457143Y29914286D02*
X379477143Y29914286D01*
X379457143Y29742857D02*
X379477143Y29742857D01*
X379628571Y29571429D02*
X380162857Y29571429D01*
X380485714Y30600000D02*
X381191429Y30600000D01*
X380485714Y30428571D02*
X380505714Y30428571D01*
X380485714Y30257143D02*
X380505714Y30257143D01*
X380485714Y30085714D02*
X381020000Y30085714D01*
X380485714Y29914286D02*
X380505714Y29914286D01*
X380485714Y29742857D02*
X380505714Y29742857D01*
X380485714Y29571429D02*
X381191429Y29571429D01*
X382542857Y30600000D02*
X382562857Y30600000D01*
X383228571Y30600000D02*
X383248571Y30600000D01*
X382542857Y30428571D02*
X382562857Y30428571D01*
X383228571Y30428571D02*
X383248571Y30428571D01*
X382542857Y30257143D02*
X382562857Y30257143D01*
X383228571Y30257143D02*
X383248571Y30257143D01*
X382542857Y30085714D02*
X382562857Y30085714D01*
X383228571Y30085714D02*
X383248571Y30085714D01*
X382542857Y29914286D02*
X382562857Y29914286D01*
X383228571Y29914286D02*
X383248571Y29914286D01*
X382542857Y29742857D02*
X382562857Y29742857D01*
X383228571Y29742857D02*
X383248571Y29742857D01*
X382714286Y29571429D02*
X383077143Y29571429D01*
X383571429Y30600000D02*
X384105714Y30600000D01*
X383571429Y30428571D02*
X383591429Y30428571D01*
X384257143Y30428571D02*
X384277143Y30428571D01*
X383571429Y30257143D02*
X383591429Y30257143D01*
X384257143Y30257143D02*
X384277143Y30257143D01*
X383571429Y30085714D02*
X384105714Y30085714D01*
X383571429Y29914286D02*
X383591429Y29914286D01*
X383571429Y29742857D02*
X383591429Y29742857D01*
X383571429Y29571429D02*
X383591429Y29571429D01*
X378100000Y17800000D02*
X378120000Y17800000D01*
X378785714Y17800000D02*
X378805714Y17800000D01*
X378100000Y17628571D02*
X378120000Y17628571D01*
X378785714Y17628571D02*
X378805714Y17628571D01*
X378100000Y17457143D02*
X378120000Y17457143D01*
X378785714Y17457143D02*
X378805714Y17457143D01*
X378100000Y17285714D02*
X378120000Y17285714D01*
X378785714Y17285714D02*
X378805714Y17285714D01*
X378100000Y17114286D02*
X378120000Y17114286D01*
X378785714Y17114286D02*
X378805714Y17114286D01*
X378271429Y16942857D02*
X378291429Y16942857D01*
X378614286Y16942857D02*
X378634286Y16942857D01*
X378442857Y16771429D02*
X378462857Y16771429D01*
X380871429Y17800000D02*
X381405714Y17800000D01*
X380700000Y17628571D02*
X380720000Y17628571D01*
X380700000Y17457143D02*
X380720000Y17457143D01*
X380700000Y17285714D02*
X380720000Y17285714D01*
X381042857Y17285714D02*
X381405714Y17285714D01*
X380700000Y17114286D02*
X380720000Y17114286D01*
X381385714Y17114286D02*
X381405714Y17114286D01*
X380700000Y16942857D02*
X380720000Y16942857D01*
X381385714Y16942857D02*
X381405714Y16942857D01*
X380871429Y16771429D02*
X381405714Y16771429D01*
X383371429Y17800000D02*
X383734286Y17800000D01*
X383200000Y17628571D02*
X383220000Y17628571D01*
X383885714Y17628571D02*
X383905714Y17628571D01*
X383200000Y17457143D02*
X383220000Y17457143D01*
X383885714Y17457143D02*
X383905714Y17457143D01*
X383200000Y17285714D02*
X383220000Y17285714D01*
X383885714Y17285714D02*
X383905714Y17285714D01*
X383200000Y17114286D02*
X383220000Y17114286D01*
X383885714Y17114286D02*
X383905714Y17114286D01*
X383200000Y16942857D02*
X383220000Y16942857D01*
X383885714Y16942857D02*
X383905714Y16942857D01*
X383371429Y16771429D02*
X383734286Y16771429D01*
X375460000Y15900000D02*
X381460000Y15900000D01*
X381460000Y12900000D02*
X375460000Y12900000D01*
X375631429Y11900000D02*
X376165714Y11900000D01*
X375460000Y11728571D02*
X375480000Y11728571D01*
X375460000Y11557143D02*
X375480000Y11557143D01*
X375460000Y11385714D02*
X375480000Y11385714D01*
X375460000Y11214286D02*
X375480000Y11214286D01*
X375460000Y11042857D02*
X375480000Y11042857D01*
X375631429Y10871429D02*
X376165714Y10871429D01*
X376660000Y11900000D02*
X377022857Y11900000D01*
X376488571Y11728571D02*
X376508571Y11728571D01*
X377174286Y11728571D02*
X377194286Y11728571D01*
X376488571Y11557143D02*
X376508571Y11557143D01*
X377174286Y11557143D02*
X377194286Y11557143D01*
X376660000Y11385714D02*
X377022857Y11385714D01*
X376488571Y11214286D02*
X376508571Y11214286D01*
X377174286Y11214286D02*
X377194286Y11214286D01*
X376488571Y11042857D02*
X376508571Y11042857D01*
X377174286Y11042857D02*
X377194286Y11042857D01*
X376660000Y10871429D02*
X377022857Y10871429D01*
X387750000Y21550000D02*
X394250000Y21550000D01*
X394250000Y21550000D02*
X394250000Y19050000D01*
X394250000Y19050000D02*
X387750000Y19050000D01*
X387750000Y19050000D02*
X387750000Y21550000D01*
X387750000Y18200000D02*
X388284286Y18200000D01*
X387750000Y18028571D02*
X387770000Y18028571D01*
X388435714Y18028571D02*
X388455714Y18028571D01*
X387750000Y17857143D02*
X387770000Y17857143D01*
X388435714Y17857143D02*
X388455714Y17857143D01*
X387750000Y17685714D02*
X388284286Y17685714D01*
X387750000Y17514286D02*
X387770000Y17514286D01*
X388092857Y17514286D02*
X388112857Y17514286D01*
X387750000Y17342857D02*
X387770000Y17342857D01*
X388264286Y17342857D02*
X388284286Y17342857D01*
X387750000Y17171429D02*
X387770000Y17171429D01*
X388435714Y17171429D02*
X388455714Y17171429D01*
X388950000Y18200000D02*
X389312857Y18200000D01*
X388778571Y18028571D02*
X388798571Y18028571D01*
X389464286Y18028571D02*
X389484286Y18028571D01*
X388778571Y17857143D02*
X388798571Y17857143D01*
X389464286Y17857143D02*
X389484286Y17857143D01*
X388950000Y17685714D02*
X389312857Y17685714D01*
X388778571Y17514286D02*
X388798571Y17514286D01*
X389464286Y17514286D02*
X389484286Y17514286D01*
X388778571Y17342857D02*
X388798571Y17342857D01*
X389464286Y17342857D02*
X389484286Y17342857D01*
X388950000Y17171429D02*
X389312857Y17171429D01*
X371100000Y43700000D02*
X376900000Y43700000D01*
X376900000Y43700000D02*
X376900000Y37900000D01*
X376900000Y37900000D02*
X371100000Y37900000D01*
X371100000Y37900000D02*
X371100000Y43700000D01*
X371100000Y45900000D02*
X371634286Y45900000D01*
X371100000Y45728571D02*
X371120000Y45728571D01*
X371785714Y45728571D02*
X371805714Y45728571D01*
X371100000Y45557143D02*
X371120000Y45557143D01*
X371785714Y45557143D02*
X371805714Y45557143D01*
X371100000Y45385714D02*
X371120000Y45385714D01*
X371785714Y45385714D02*
X371805714Y45385714D01*
X371100000Y45214286D02*
X371120000Y45214286D01*
X371785714Y45214286D02*
X371805714Y45214286D01*
X371100000Y45042857D02*
X371120000Y45042857D01*
X371785714Y45042857D02*
X371805714Y45042857D01*
X371100000Y44871429D02*
X371634286Y44871429D01*
X372300000Y45900000D02*
X372662857Y45900000D01*
X372128571Y45728571D02*
X372148571Y45728571D01*
X372814286Y45728571D02*
X372834286Y45728571D01*
X372128571Y45557143D02*
X372148571Y45557143D01*
X372814286Y45557143D02*
X372834286Y45557143D01*
X372300000Y45385714D02*
X372662857Y45385714D01*
X372128571Y45214286D02*
X372148571Y45214286D01*
X372814286Y45214286D02*
X372834286Y45214286D01*
X372128571Y45042857D02*
X372148571Y45042857D01*
X372814286Y45042857D02*
X372834286Y45042857D01*
X372300000Y44871429D02*
X372662857Y44871429D01*
X372000000Y37600000D02*
X372534286Y37600000D01*
X372000000Y37428571D02*
X372020000Y37428571D01*
X372685714Y37428571D02*
X372705714Y37428571D01*
X372000000Y37257143D02*
X372020000Y37257143D01*
X372685714Y37257143D02*
X372705714Y37257143D01*
X372000000Y37085714D02*
X372534286Y37085714D01*
X372000000Y36914286D02*
X372020000Y36914286D01*
X372342857Y36914286D02*
X372362857Y36914286D01*
X372000000Y36742857D02*
X372020000Y36742857D01*
X372514286Y36742857D02*
X372534286Y36742857D01*
X372000000Y36571429D02*
X372020000Y36571429D01*
X372685714Y36571429D02*
X372705714Y36571429D01*
X373028571Y37600000D02*
X373734286Y37600000D01*
X373028571Y37428571D02*
X373048571Y37428571D01*
X373028571Y37257143D02*
X373048571Y37257143D01*
X373028571Y37085714D02*
X373562857Y37085714D01*
X373028571Y36914286D02*
X373048571Y36914286D01*
X373028571Y36742857D02*
X373048571Y36742857D01*
X373028571Y36571429D02*
X373734286Y36571429D01*
X374057143Y37600000D02*
X374591429Y37600000D01*
X374057143Y37428571D02*
X374077143Y37428571D01*
X374742857Y37428571D02*
X374762857Y37428571D01*
X374057143Y37257143D02*
X374077143Y37257143D01*
X374742857Y37257143D02*
X374762857Y37257143D01*
X374057143Y37085714D02*
X374077143Y37085714D01*
X374742857Y37085714D02*
X374762857Y37085714D01*
X374057143Y36914286D02*
X374077143Y36914286D01*
X374742857Y36914286D02*
X374762857Y36914286D01*
X374057143Y36742857D02*
X374077143Y36742857D01*
X374742857Y36742857D02*
X374762857Y36742857D01*
X374057143Y36571429D02*
X374591429Y36571429D01*
X372400000Y39528571D02*
X372420000Y39528571D01*
X372914286Y39528571D02*
X372934286Y39528571D01*
X372400000Y39357143D02*
X372420000Y39357143D01*
X372742857Y39357143D02*
X372762857Y39357143D01*
X372400000Y39185714D02*
X372591429Y39185714D01*
X372400000Y39014286D02*
X372420000Y39014286D01*
X372742857Y39014286D02*
X372762857Y39014286D01*
X372400000Y38842857D02*
X372420000Y38842857D01*
X372914286Y38842857D02*
X372934286Y38842857D01*
X372400000Y38671429D02*
X372420000Y38671429D01*
X373085714Y38671429D02*
X373105714Y38671429D01*
X375000000Y39528571D02*
X375020000Y39528571D01*
X375685714Y39528571D02*
X375705714Y39528571D01*
X375000000Y39357143D02*
X375020000Y39357143D01*
X375685714Y39357143D02*
X375705714Y39357143D01*
X375000000Y39185714D02*
X375705714Y39185714D01*
X375000000Y39014286D02*
X375020000Y39014286D01*
X375685714Y39014286D02*
X375705714Y39014286D01*
X375000000Y38842857D02*
X375020000Y38842857D01*
X375685714Y38842857D02*
X375705714Y38842857D01*
X375000000Y38671429D02*
X375020000Y38671429D01*
X375685714Y38671429D02*
X375705714Y38671429D01*
X370750000Y35050000D02*
X377250000Y35050000D01*
X377250000Y35050000D02*
X377250000Y32550000D01*
X377250000Y32550000D02*
X370750000Y32550000D01*
X370750000Y32550000D02*
X370750000Y35050000D01*
X370750000Y31700000D02*
X371284286Y31700000D01*
X370750000Y31528571D02*
X370770000Y31528571D01*
X371435714Y31528571D02*
X371455714Y31528571D01*
X370750000Y31357143D02*
X370770000Y31357143D01*
X371435714Y31357143D02*
X371455714Y31357143D01*
X370750000Y31185714D02*
X371284286Y31185714D01*
X370750000Y31014286D02*
X370770000Y31014286D01*
X371092857Y31014286D02*
X371112857Y31014286D01*
X370750000Y30842857D02*
X370770000Y30842857D01*
X371264286Y30842857D02*
X371284286Y30842857D01*
X370750000Y30671429D02*
X370770000Y30671429D01*
X371435714Y30671429D02*
X371455714Y30671429D01*
X372121429Y31700000D02*
X372141429Y31700000D01*
X371950000Y31528571D02*
X372141429Y31528571D01*
X372121429Y31357143D02*
X372141429Y31357143D01*
X372121429Y31185714D02*
X372141429Y31185714D01*
X372121429Y31014286D02*
X372141429Y31014286D01*
X372121429Y30842857D02*
X372141429Y30842857D01*
X371950000Y30671429D02*
X372312857Y30671429D01*
X372978571Y31700000D02*
X373341429Y31700000D01*
X372807143Y31528571D02*
X372827143Y31528571D01*
X372807143Y31357143D02*
X372827143Y31357143D01*
X372807143Y31185714D02*
X373341429Y31185714D01*
X372807143Y31014286D02*
X372827143Y31014286D01*
X373492857Y31014286D02*
X373512857Y31014286D01*
X372807143Y30842857D02*
X372827143Y30842857D01*
X373492857Y30842857D02*
X373512857Y30842857D01*
X372978571Y30671429D02*
X373341429Y30671429D01*
X385100000Y43700000D02*
X390900000Y43700000D01*
X390900000Y43700000D02*
X390900000Y37900000D01*
X390900000Y37900000D02*
X385100000Y37900000D01*
X385100000Y37900000D02*
X385100000Y43700000D01*
X385100000Y45900000D02*
X385634286Y45900000D01*
X385100000Y45728571D02*
X385120000Y45728571D01*
X385785714Y45728571D02*
X385805714Y45728571D01*
X385100000Y45557143D02*
X385120000Y45557143D01*
X385785714Y45557143D02*
X385805714Y45557143D01*
X385100000Y45385714D02*
X385120000Y45385714D01*
X385785714Y45385714D02*
X385805714Y45385714D01*
X385100000Y45214286D02*
X385120000Y45214286D01*
X385785714Y45214286D02*
X385805714Y45214286D01*
X385100000Y45042857D02*
X385120000Y45042857D01*
X385785714Y45042857D02*
X385805714Y45042857D01*
X385100000Y44871429D02*
X385634286Y44871429D01*
X386471429Y45900000D02*
X386491429Y45900000D01*
X386300000Y45728571D02*
X386491429Y45728571D01*
X386471429Y45557143D02*
X386491429Y45557143D01*
X386471429Y45385714D02*
X386491429Y45385714D01*
X386471429Y45214286D02*
X386491429Y45214286D01*
X386471429Y45042857D02*
X386491429Y45042857D01*
X386300000Y44871429D02*
X386662857Y44871429D01*
X387328571Y45900000D02*
X387691429Y45900000D01*
X387157143Y45728571D02*
X387177143Y45728571D01*
X387157143Y45557143D02*
X387177143Y45557143D01*
X387157143Y45385714D02*
X387691429Y45385714D01*
X387157143Y45214286D02*
X387177143Y45214286D01*
X387842857Y45214286D02*
X387862857Y45214286D01*
X387157143Y45042857D02*
X387177143Y45042857D01*
X387842857Y45042857D02*
X387862857Y45042857D01*
X387328571Y44871429D02*
X387691429Y44871429D01*
X386171429Y37600000D02*
X386705714Y37600000D01*
X386000000Y37428571D02*
X386020000Y37428571D01*
X386000000Y37257143D02*
X386020000Y37257143D01*
X386000000Y37085714D02*
X386020000Y37085714D01*
X386342857Y37085714D02*
X386705714Y37085714D01*
X386000000Y36914286D02*
X386020000Y36914286D01*
X386685714Y36914286D02*
X386705714Y36914286D01*
X386000000Y36742857D02*
X386020000Y36742857D01*
X386685714Y36742857D02*
X386705714Y36742857D01*
X386171429Y36571429D02*
X386705714Y36571429D01*
X387028571Y37600000D02*
X387562857Y37600000D01*
X387028571Y37428571D02*
X387048571Y37428571D01*
X387714286Y37428571D02*
X387734286Y37428571D01*
X387028571Y37257143D02*
X387048571Y37257143D01*
X387714286Y37257143D02*
X387734286Y37257143D01*
X387028571Y37085714D02*
X387562857Y37085714D01*
X387028571Y36914286D02*
X387048571Y36914286D01*
X387371429Y36914286D02*
X387391429Y36914286D01*
X387028571Y36742857D02*
X387048571Y36742857D01*
X387542857Y36742857D02*
X387562857Y36742857D01*
X387028571Y36571429D02*
X387048571Y36571429D01*
X387714286Y36571429D02*
X387734286Y36571429D01*
X388057143Y37600000D02*
X388762857Y37600000D01*
X388057143Y37428571D02*
X388077143Y37428571D01*
X388057143Y37257143D02*
X388077143Y37257143D01*
X388057143Y37085714D02*
X388591429Y37085714D01*
X388057143Y36914286D02*
X388077143Y36914286D01*
X388057143Y36742857D02*
X388077143Y36742857D01*
X388057143Y36571429D02*
X388762857Y36571429D01*
X389085714Y37600000D02*
X389791429Y37600000D01*
X389085714Y37428571D02*
X389105714Y37428571D01*
X389085714Y37257143D02*
X389105714Y37257143D01*
X389085714Y37085714D02*
X389620000Y37085714D01*
X389085714Y36914286D02*
X389105714Y36914286D01*
X389085714Y36742857D02*
X389105714Y36742857D01*
X389085714Y36571429D02*
X389791429Y36571429D01*
X390114286Y37600000D02*
X390134286Y37600000D01*
X390800000Y37600000D02*
X390820000Y37600000D01*
X390114286Y37428571D02*
X390305714Y37428571D01*
X390800000Y37428571D02*
X390820000Y37428571D01*
X390114286Y37257143D02*
X390134286Y37257143D01*
X390457143Y37257143D02*
X390477143Y37257143D01*
X390800000Y37257143D02*
X390820000Y37257143D01*
X390114286Y37085714D02*
X390134286Y37085714D01*
X390628571Y37085714D02*
X390820000Y37085714D01*
X390114286Y36914286D02*
X390134286Y36914286D01*
X390800000Y36914286D02*
X390820000Y36914286D01*
X390114286Y36742857D02*
X390134286Y36742857D01*
X390800000Y36742857D02*
X390820000Y36742857D01*
X390114286Y36571429D02*
X390134286Y36571429D01*
X390800000Y36571429D02*
X390820000Y36571429D01*
X386400000Y39528571D02*
X386420000Y39528571D01*
X386914286Y39528571D02*
X386934286Y39528571D01*
X386400000Y39357143D02*
X386420000Y39357143D01*
X386742857Y39357143D02*
X386762857Y39357143D01*
X386400000Y39185714D02*
X386591429Y39185714D01*
X386400000Y39014286D02*
X386420000Y39014286D01*
X386742857Y39014286D02*
X386762857Y39014286D01*
X386400000Y38842857D02*
X386420000Y38842857D01*
X386914286Y38842857D02*
X386934286Y38842857D01*
X386400000Y38671429D02*
X386420000Y38671429D01*
X387085714Y38671429D02*
X387105714Y38671429D01*
X389000000Y39528571D02*
X389020000Y39528571D01*
X389685714Y39528571D02*
X389705714Y39528571D01*
X389000000Y39357143D02*
X389020000Y39357143D01*
X389685714Y39357143D02*
X389705714Y39357143D01*
X389000000Y39185714D02*
X389705714Y39185714D01*
X389000000Y39014286D02*
X389020000Y39014286D01*
X389685714Y39014286D02*
X389705714Y39014286D01*
X389000000Y38842857D02*
X389020000Y38842857D01*
X389685714Y38842857D02*
X389705714Y38842857D01*
X389000000Y38671429D02*
X389020000Y38671429D01*
X389685714Y38671429D02*
X389705714Y38671429D01*
X384750000Y35050000D02*
X391250000Y35050000D01*
X391250000Y35050000D02*
X391250000Y32550000D01*
X391250000Y32550000D02*
X384750000Y32550000D01*
X384750000Y32550000D02*
X384750000Y35050000D01*
X384750000Y31700000D02*
X385284286Y31700000D01*
X384750000Y31528571D02*
X384770000Y31528571D01*
X385435714Y31528571D02*
X385455714Y31528571D01*
X384750000Y31357143D02*
X384770000Y31357143D01*
X385435714Y31357143D02*
X385455714Y31357143D01*
X384750000Y31185714D02*
X385284286Y31185714D01*
X384750000Y31014286D02*
X384770000Y31014286D01*
X385092857Y31014286D02*
X385112857Y31014286D01*
X384750000Y30842857D02*
X384770000Y30842857D01*
X385264286Y30842857D02*
X385284286Y30842857D01*
X384750000Y30671429D02*
X384770000Y30671429D01*
X385435714Y30671429D02*
X385455714Y30671429D01*
X385950000Y31700000D02*
X386312857Y31700000D01*
X385778571Y31528571D02*
X385798571Y31528571D01*
X386464286Y31528571D02*
X386484286Y31528571D01*
X386464286Y31357143D02*
X386484286Y31357143D01*
X386292857Y31185714D02*
X386312857Y31185714D01*
X386121429Y31014286D02*
X386141429Y31014286D01*
X385950000Y30842857D02*
X385970000Y30842857D01*
X385778571Y30671429D02*
X386484286Y30671429D01*
X387321429Y31700000D02*
X387341429Y31700000D01*
X387150000Y31528571D02*
X387341429Y31528571D01*
X386978571Y31357143D02*
X386998571Y31357143D01*
X387321429Y31357143D02*
X387341429Y31357143D01*
X386807143Y31185714D02*
X386827143Y31185714D01*
X387321429Y31185714D02*
X387341429Y31185714D01*
X386807143Y31014286D02*
X387512857Y31014286D01*
X387321429Y30842857D02*
X387341429Y30842857D01*
X387321429Y30671429D02*
X387341429Y30671429D01*
X213700000Y16600000D02*
X213700000Y7000000D01*
X192700000Y7000000D02*
X192700000Y16600000D01*
X192700000Y12800000D02*
X193700000Y11800000D01*
X193700000Y11800000D02*
X192700000Y10800000D01*
X215400000Y12400000D02*
X215420000Y12400000D01*
X216085714Y12400000D02*
X216105714Y12400000D01*
X215400000Y12228571D02*
X215420000Y12228571D01*
X216085714Y12228571D02*
X216105714Y12228571D01*
X215400000Y12057143D02*
X215420000Y12057143D01*
X216085714Y12057143D02*
X216105714Y12057143D01*
X215400000Y11885714D02*
X215420000Y11885714D01*
X216085714Y11885714D02*
X216105714Y11885714D01*
X215400000Y11714286D02*
X215420000Y11714286D01*
X216085714Y11714286D02*
X216105714Y11714286D01*
X215400000Y11542857D02*
X215420000Y11542857D01*
X216085714Y11542857D02*
X216105714Y11542857D01*
X215571429Y11371429D02*
X215934286Y11371429D01*
X216600000Y12400000D02*
X216962857Y12400000D01*
X216428571Y12228571D02*
X216448571Y12228571D01*
X217114286Y12228571D02*
X217134286Y12228571D01*
X216428571Y12057143D02*
X216448571Y12057143D01*
X217114286Y12057143D02*
X217134286Y12057143D01*
X216600000Y11885714D02*
X217134286Y11885714D01*
X217114286Y11714286D02*
X217134286Y11714286D01*
X217114286Y11542857D02*
X217134286Y11542857D01*
X216600000Y11371429D02*
X216962857Y11371429D01*
X192952857Y6990000D02*
X192972857Y6990000D01*
X192781429Y6818571D02*
X192972857Y6818571D01*
X192952857Y6647143D02*
X192972857Y6647143D01*
X192952857Y6475714D02*
X192972857Y6475714D01*
X192952857Y6304286D02*
X192972857Y6304286D01*
X192952857Y6132857D02*
X192972857Y6132857D01*
X192781429Y5961429D02*
X193144286Y5961429D01*
X149900000Y11800000D02*
X150900000Y10800000D01*
X150900000Y10800000D02*
X149900000Y9800000D01*
X156600000Y11400000D02*
X156620000Y11400000D01*
X157285714Y11400000D02*
X157305714Y11400000D01*
X156600000Y11228571D02*
X156620000Y11228571D01*
X157285714Y11228571D02*
X157305714Y11228571D01*
X156600000Y11057143D02*
X156620000Y11057143D01*
X157285714Y11057143D02*
X157305714Y11057143D01*
X156600000Y10885714D02*
X156620000Y10885714D01*
X157285714Y10885714D02*
X157305714Y10885714D01*
X156600000Y10714286D02*
X156620000Y10714286D01*
X157285714Y10714286D02*
X157305714Y10714286D01*
X156600000Y10542857D02*
X156620000Y10542857D01*
X157285714Y10542857D02*
X157305714Y10542857D01*
X156771429Y10371429D02*
X157134286Y10371429D01*
X157971429Y11400000D02*
X157991429Y11400000D01*
X157800000Y11228571D02*
X157991429Y11228571D01*
X157971429Y11057143D02*
X157991429Y11057143D01*
X157971429Y10885714D02*
X157991429Y10885714D01*
X157971429Y10714286D02*
X157991429Y10714286D01*
X157971429Y10542857D02*
X157991429Y10542857D01*
X157800000Y10371429D02*
X158162857Y10371429D01*
X158828571Y11400000D02*
X159191429Y11400000D01*
X158657143Y11228571D02*
X158677143Y11228571D01*
X159342857Y11228571D02*
X159362857Y11228571D01*
X158657143Y11057143D02*
X158677143Y11057143D01*
X159171429Y11057143D02*
X159362857Y11057143D01*
X158657143Y10885714D02*
X158677143Y10885714D01*
X159000000Y10885714D02*
X159020000Y10885714D01*
X159342857Y10885714D02*
X159362857Y10885714D01*
X158657143Y10714286D02*
X158848571Y10714286D01*
X159342857Y10714286D02*
X159362857Y10714286D01*
X158657143Y10542857D02*
X158677143Y10542857D01*
X159342857Y10542857D02*
X159362857Y10542857D01*
X158828571Y10371429D02*
X159191429Y10371429D01*
X148767857Y6900000D02*
X148787857Y6900000D01*
X148596429Y6728571D02*
X148787857Y6728571D01*
X148767857Y6557143D02*
X148787857Y6557143D01*
X148767857Y6385714D02*
X148787857Y6385714D01*
X148767857Y6214286D02*
X148787857Y6214286D01*
X148767857Y6042857D02*
X148787857Y6042857D01*
X148596429Y5871429D02*
X148959286Y5871429D01*
X251500000Y11800000D02*
X252500000Y10800000D01*
X252500000Y10800000D02*
X251500000Y9800000D01*
X258200000Y11400000D02*
X258220000Y11400000D01*
X258885714Y11400000D02*
X258905714Y11400000D01*
X258200000Y11228571D02*
X258220000Y11228571D01*
X258885714Y11228571D02*
X258905714Y11228571D01*
X258200000Y11057143D02*
X258220000Y11057143D01*
X258885714Y11057143D02*
X258905714Y11057143D01*
X258200000Y10885714D02*
X258220000Y10885714D01*
X258885714Y10885714D02*
X258905714Y10885714D01*
X258200000Y10714286D02*
X258220000Y10714286D01*
X258885714Y10714286D02*
X258905714Y10714286D01*
X258200000Y10542857D02*
X258220000Y10542857D01*
X258885714Y10542857D02*
X258905714Y10542857D01*
X258371429Y10371429D02*
X258734286Y10371429D01*
X259571429Y11400000D02*
X259591429Y11400000D01*
X259400000Y11228571D02*
X259591429Y11228571D01*
X259571429Y11057143D02*
X259591429Y11057143D01*
X259571429Y10885714D02*
X259591429Y10885714D01*
X259571429Y10714286D02*
X259591429Y10714286D01*
X259571429Y10542857D02*
X259591429Y10542857D01*
X259400000Y10371429D02*
X259762857Y10371429D01*
X260600000Y11400000D02*
X260620000Y11400000D01*
X260428571Y11228571D02*
X260620000Y11228571D01*
X260600000Y11057143D02*
X260620000Y11057143D01*
X260600000Y10885714D02*
X260620000Y10885714D01*
X260600000Y10714286D02*
X260620000Y10714286D01*
X260600000Y10542857D02*
X260620000Y10542857D01*
X260428571Y10371429D02*
X260791429Y10371429D01*
X250367857Y6900000D02*
X250387857Y6900000D01*
X250196429Y6728571D02*
X250387857Y6728571D01*
X250367857Y6557143D02*
X250387857Y6557143D01*
X250367857Y6385714D02*
X250387857Y6385714D01*
X250367857Y6214286D02*
X250387857Y6214286D01*
X250367857Y6042857D02*
X250387857Y6042857D01*
X250196429Y5871429D02*
X250559286Y5871429D01*
X199850000Y16800000D02*
X193850000Y16800000D01*
X194021429Y22600000D02*
X194555714Y22600000D01*
X193850000Y22428571D02*
X193870000Y22428571D01*
X193850000Y22257143D02*
X193870000Y22257143D01*
X193850000Y22085714D02*
X193870000Y22085714D01*
X193850000Y21914286D02*
X193870000Y21914286D01*
X193850000Y21742857D02*
X193870000Y21742857D01*
X194021429Y21571429D02*
X194555714Y21571429D01*
X195050000Y22600000D02*
X195412857Y22600000D01*
X194878571Y22428571D02*
X194898571Y22428571D01*
X195564286Y22428571D02*
X195584286Y22428571D01*
X194878571Y22257143D02*
X194898571Y22257143D01*
X195564286Y22257143D02*
X195584286Y22257143D01*
X195050000Y22085714D02*
X195584286Y22085714D01*
X195564286Y21914286D02*
X195584286Y21914286D01*
X195564286Y21742857D02*
X195584286Y21742857D01*
X195050000Y21571429D02*
X195412857Y21571429D01*
X148500000Y13800000D02*
X148500000Y7800000D01*
X145500000Y7800000D02*
X145500000Y13800000D01*
X143171429Y11400000D02*
X143705714Y11400000D01*
X143000000Y11228571D02*
X143020000Y11228571D01*
X143000000Y11057143D02*
X143020000Y11057143D01*
X143000000Y10885714D02*
X143020000Y10885714D01*
X143000000Y10714286D02*
X143020000Y10714286D01*
X143000000Y10542857D02*
X143020000Y10542857D01*
X143171429Y10371429D02*
X143705714Y10371429D01*
X144371429Y11400000D02*
X144391429Y11400000D01*
X144200000Y11228571D02*
X144391429Y11228571D01*
X144371429Y11057143D02*
X144391429Y11057143D01*
X144371429Y10885714D02*
X144391429Y10885714D01*
X144371429Y10714286D02*
X144391429Y10714286D01*
X144371429Y10542857D02*
X144391429Y10542857D01*
X144200000Y10371429D02*
X144562857Y10371429D01*
X145228571Y11400000D02*
X145591429Y11400000D01*
X145057143Y11228571D02*
X145077143Y11228571D01*
X145742857Y11228571D02*
X145762857Y11228571D01*
X145057143Y11057143D02*
X145077143Y11057143D01*
X145571429Y11057143D02*
X145762857Y11057143D01*
X145057143Y10885714D02*
X145077143Y10885714D01*
X145400000Y10885714D02*
X145420000Y10885714D01*
X145742857Y10885714D02*
X145762857Y10885714D01*
X145057143Y10714286D02*
X145248571Y10714286D01*
X145742857Y10714286D02*
X145762857Y10714286D01*
X145057143Y10542857D02*
X145077143Y10542857D01*
X145742857Y10542857D02*
X145762857Y10542857D01*
X145228571Y10371429D02*
X145591429Y10371429D01*
X250100000Y13800000D02*
X250100000Y7800000D01*
X247100000Y7800000D02*
X247100000Y13800000D01*
X244771429Y11400000D02*
X245305714Y11400000D01*
X244600000Y11228571D02*
X244620000Y11228571D01*
X244600000Y11057143D02*
X244620000Y11057143D01*
X244600000Y10885714D02*
X244620000Y10885714D01*
X244600000Y10714286D02*
X244620000Y10714286D01*
X244600000Y10542857D02*
X244620000Y10542857D01*
X244771429Y10371429D02*
X245305714Y10371429D01*
X245971429Y11400000D02*
X245991429Y11400000D01*
X245800000Y11228571D02*
X245991429Y11228571D01*
X245971429Y11057143D02*
X245991429Y11057143D01*
X245971429Y10885714D02*
X245991429Y10885714D01*
X245971429Y10714286D02*
X245991429Y10714286D01*
X245971429Y10542857D02*
X245991429Y10542857D01*
X245800000Y10371429D02*
X246162857Y10371429D01*
X247000000Y11400000D02*
X247020000Y11400000D01*
X246828571Y11228571D02*
X247020000Y11228571D01*
X247000000Y11057143D02*
X247020000Y11057143D01*
X247000000Y10885714D02*
X247020000Y10885714D01*
X247000000Y10714286D02*
X247020000Y10714286D01*
X247000000Y10542857D02*
X247020000Y10542857D01*
X246828571Y10371429D02*
X247191429Y10371429D01*
X6850000Y15950000D02*
X13150000Y15950000D01*
X13150000Y15950000D02*
X13150000Y9650000D01*
X13150000Y9650000D02*
X6850000Y9650000D01*
X6850000Y9650000D02*
X6850000Y15950000D01*
X7021429Y10300000D02*
X7555714Y10300000D01*
X6850000Y10128571D02*
X6870000Y10128571D01*
X6850000Y9957143D02*
X6870000Y9957143D01*
X6850000Y9785714D02*
X6870000Y9785714D01*
X6850000Y9614286D02*
X6870000Y9614286D01*
X6850000Y9442857D02*
X6870000Y9442857D01*
X7021429Y9271429D02*
X7555714Y9271429D01*
X8221429Y10300000D02*
X8241429Y10300000D01*
X8050000Y10128571D02*
X8241429Y10128571D01*
X8221429Y9957143D02*
X8241429Y9957143D01*
X8221429Y9785714D02*
X8241429Y9785714D01*
X8221429Y9614286D02*
X8241429Y9614286D01*
X8221429Y9442857D02*
X8241429Y9442857D01*
X8050000Y9271429D02*
X8412857Y9271429D01*
X9078571Y10300000D02*
X9441429Y10300000D01*
X8907143Y10128571D02*
X8927143Y10128571D01*
X9592857Y10128571D02*
X9612857Y10128571D01*
X9592857Y9957143D02*
X9612857Y9957143D01*
X9421429Y9785714D02*
X9441429Y9785714D01*
X9250000Y9614286D02*
X9270000Y9614286D01*
X9078571Y9442857D02*
X9098571Y9442857D01*
X8907143Y9271429D02*
X9612857Y9271429D01*
X6342857Y13828571D02*
X6362857Y13828571D01*
X6342857Y13657143D02*
X6362857Y13657143D01*
X6000000Y13485714D02*
X6705714Y13485714D01*
X6342857Y13314286D02*
X6362857Y13314286D01*
X6342857Y13142857D02*
X6362857Y13142857D01*
X40750000Y12050000D02*
X47250000Y12050000D01*
X47250000Y12050000D02*
X47250000Y9550000D01*
X47250000Y9550000D02*
X40750000Y9550000D01*
X40750000Y9550000D02*
X40750000Y12050000D01*
X40750000Y8700000D02*
X41284286Y8700000D01*
X40750000Y8528571D02*
X40770000Y8528571D01*
X41435714Y8528571D02*
X41455714Y8528571D01*
X40750000Y8357143D02*
X40770000Y8357143D01*
X41435714Y8357143D02*
X41455714Y8357143D01*
X40750000Y8185714D02*
X41284286Y8185714D01*
X40750000Y8014286D02*
X40770000Y8014286D01*
X41092857Y8014286D02*
X41112857Y8014286D01*
X40750000Y7842857D02*
X40770000Y7842857D01*
X41264286Y7842857D02*
X41284286Y7842857D01*
X40750000Y7671429D02*
X40770000Y7671429D01*
X41435714Y7671429D02*
X41455714Y7671429D01*
X41950000Y8700000D02*
X42312857Y8700000D01*
X41778571Y8528571D02*
X41798571Y8528571D01*
X42464286Y8528571D02*
X42484286Y8528571D01*
X42464286Y8357143D02*
X42484286Y8357143D01*
X42292857Y8185714D02*
X42312857Y8185714D01*
X42121429Y8014286D02*
X42141429Y8014286D01*
X41950000Y7842857D02*
X41970000Y7842857D01*
X41778571Y7671429D02*
X42484286Y7671429D01*
X42807143Y8700000D02*
X43512857Y8700000D01*
X42807143Y8528571D02*
X42827143Y8528571D01*
X42807143Y8357143D02*
X42827143Y8357143D01*
X42807143Y8185714D02*
X43341429Y8185714D01*
X43492857Y8014286D02*
X43512857Y8014286D01*
X43492857Y7842857D02*
X43512857Y7842857D01*
X42807143Y7671429D02*
X43341429Y7671429D01*
X58750000Y12050000D02*
X65250000Y12050000D01*
X65250000Y12050000D02*
X65250000Y9550000D01*
X65250000Y9550000D02*
X58750000Y9550000D01*
X58750000Y9550000D02*
X58750000Y12050000D01*
X58750000Y8700000D02*
X59284286Y8700000D01*
X58750000Y8528571D02*
X58770000Y8528571D01*
X59435714Y8528571D02*
X59455714Y8528571D01*
X58750000Y8357143D02*
X58770000Y8357143D01*
X59435714Y8357143D02*
X59455714Y8357143D01*
X58750000Y8185714D02*
X59284286Y8185714D01*
X58750000Y8014286D02*
X58770000Y8014286D01*
X59092857Y8014286D02*
X59112857Y8014286D01*
X58750000Y7842857D02*
X58770000Y7842857D01*
X59264286Y7842857D02*
X59284286Y7842857D01*
X58750000Y7671429D02*
X58770000Y7671429D01*
X59435714Y7671429D02*
X59455714Y7671429D01*
X59950000Y8700000D02*
X60312857Y8700000D01*
X59778571Y8528571D02*
X59798571Y8528571D01*
X60464286Y8528571D02*
X60484286Y8528571D01*
X60464286Y8357143D02*
X60484286Y8357143D01*
X60292857Y8185714D02*
X60312857Y8185714D01*
X60121429Y8014286D02*
X60141429Y8014286D01*
X59950000Y7842857D02*
X59970000Y7842857D01*
X59778571Y7671429D02*
X60484286Y7671429D01*
X60978571Y8700000D02*
X61341429Y8700000D01*
X60807143Y8528571D02*
X60827143Y8528571D01*
X60807143Y8357143D02*
X60827143Y8357143D01*
X60807143Y8185714D02*
X61341429Y8185714D01*
X60807143Y8014286D02*
X60827143Y8014286D01*
X61492857Y8014286D02*
X61512857Y8014286D01*
X60807143Y7842857D02*
X60827143Y7842857D01*
X61492857Y7842857D02*
X61512857Y7842857D01*
X60978571Y7671429D02*
X61341429Y7671429D01*
X76750000Y12050000D02*
X83250000Y12050000D01*
X83250000Y12050000D02*
X83250000Y9550000D01*
X83250000Y9550000D02*
X76750000Y9550000D01*
X76750000Y9550000D02*
X76750000Y12050000D01*
X76750000Y8700000D02*
X77284286Y8700000D01*
X76750000Y8528571D02*
X76770000Y8528571D01*
X77435714Y8528571D02*
X77455714Y8528571D01*
X76750000Y8357143D02*
X76770000Y8357143D01*
X77435714Y8357143D02*
X77455714Y8357143D01*
X76750000Y8185714D02*
X77284286Y8185714D01*
X76750000Y8014286D02*
X76770000Y8014286D01*
X77092857Y8014286D02*
X77112857Y8014286D01*
X76750000Y7842857D02*
X76770000Y7842857D01*
X77264286Y7842857D02*
X77284286Y7842857D01*
X76750000Y7671429D02*
X76770000Y7671429D01*
X77435714Y7671429D02*
X77455714Y7671429D01*
X77950000Y8700000D02*
X78312857Y8700000D01*
X77778571Y8528571D02*
X77798571Y8528571D01*
X78464286Y8528571D02*
X78484286Y8528571D01*
X78464286Y8357143D02*
X78484286Y8357143D01*
X78292857Y8185714D02*
X78312857Y8185714D01*
X78121429Y8014286D02*
X78141429Y8014286D01*
X77950000Y7842857D02*
X77970000Y7842857D01*
X77778571Y7671429D02*
X78484286Y7671429D01*
X78807143Y8700000D02*
X79512857Y8700000D01*
X79492857Y8528571D02*
X79512857Y8528571D01*
X79321429Y8357143D02*
X79341429Y8357143D01*
X79150000Y8185714D02*
X79170000Y8185714D01*
X78978571Y8014286D02*
X78998571Y8014286D01*
X78978571Y7842857D02*
X78998571Y7842857D01*
X78978571Y7671429D02*
X78998571Y7671429D01*
X3450000Y35150000D02*
X8550000Y35150000D01*
X8550000Y35150000D02*
X8550000Y22450000D01*
X8550000Y22450000D02*
X3450000Y22450000D01*
X3450000Y22450000D02*
X3450000Y35150000D01*
X3792857Y37350000D02*
X4155714Y37350000D01*
X3964286Y37178571D02*
X3984286Y37178571D01*
X3964286Y37007143D02*
X3984286Y37007143D01*
X3964286Y36835714D02*
X3984286Y36835714D01*
X3450000Y36664286D02*
X3470000Y36664286D01*
X3964286Y36664286D02*
X3984286Y36664286D01*
X3450000Y36492857D02*
X3470000Y36492857D01*
X3964286Y36492857D02*
X3984286Y36492857D01*
X3621429Y36321429D02*
X3812857Y36321429D01*
X4821429Y37350000D02*
X4841429Y37350000D01*
X4650000Y37178571D02*
X4841429Y37178571D01*
X4821429Y37007143D02*
X4841429Y37007143D01*
X4821429Y36835714D02*
X4841429Y36835714D01*
X4821429Y36664286D02*
X4841429Y36664286D01*
X4821429Y36492857D02*
X4841429Y36492857D01*
X4650000Y36321429D02*
X5012857Y36321429D01*
X397850000Y35150000D02*
X402950000Y35150000D01*
X402950000Y35150000D02*
X402950000Y22450000D01*
X402950000Y22450000D02*
X397850000Y22450000D01*
X397850000Y22450000D02*
X397850000Y35150000D01*
X398192857Y37350000D02*
X398555714Y37350000D01*
X398364286Y37178571D02*
X398384286Y37178571D01*
X398364286Y37007143D02*
X398384286Y37007143D01*
X398364286Y36835714D02*
X398384286Y36835714D01*
X397850000Y36664286D02*
X397870000Y36664286D01*
X398364286Y36664286D02*
X398384286Y36664286D01*
X397850000Y36492857D02*
X397870000Y36492857D01*
X398364286Y36492857D02*
X398384286Y36492857D01*
X398021429Y36321429D02*
X398212857Y36321429D01*
X399050000Y37350000D02*
X399412857Y37350000D01*
X398878571Y37178571D02*
X398898571Y37178571D01*
X399564286Y37178571D02*
X399584286Y37178571D01*
X399564286Y37007143D02*
X399584286Y37007143D01*
X399392857Y36835714D02*
X399412857Y36835714D01*
X399221429Y36664286D02*
X399241429Y36664286D01*
X399050000Y36492857D02*
X399070000Y36492857D01*
X398878571Y36321429D02*
X399584286Y36321429D01*
X31171429Y48000000D02*
X31705714Y48000000D01*
X31000000Y47828571D02*
X31020000Y47828571D01*
X31000000Y47657143D02*
X31020000Y47657143D01*
X31000000Y47485714D02*
X31020000Y47485714D01*
X31000000Y47314286D02*
X31020000Y47314286D01*
X31000000Y47142857D02*
X31020000Y47142857D01*
X31171429Y46971429D02*
X31705714Y46971429D01*
X32028571Y48000000D02*
X32048571Y48000000D01*
X32714286Y48000000D02*
X32734286Y48000000D01*
X32028571Y47828571D02*
X32048571Y47828571D01*
X32714286Y47828571D02*
X32734286Y47828571D01*
X32028571Y47657143D02*
X32048571Y47657143D01*
X32714286Y47657143D02*
X32734286Y47657143D01*
X32028571Y47485714D02*
X32734286Y47485714D01*
X32028571Y47314286D02*
X32048571Y47314286D01*
X32714286Y47314286D02*
X32734286Y47314286D01*
X32028571Y47142857D02*
X32048571Y47142857D01*
X32714286Y47142857D02*
X32734286Y47142857D01*
X32028571Y46971429D02*
X32048571Y46971429D01*
X32714286Y46971429D02*
X32734286Y46971429D01*
X33228571Y48000000D02*
X33591429Y48000000D01*
X33057143Y47828571D02*
X33077143Y47828571D01*
X33742857Y47828571D02*
X33762857Y47828571D01*
X33057143Y47657143D02*
X33077143Y47657143D01*
X33571429Y47657143D02*
X33762857Y47657143D01*
X33057143Y47485714D02*
X33077143Y47485714D01*
X33400000Y47485714D02*
X33420000Y47485714D01*
X33742857Y47485714D02*
X33762857Y47485714D01*
X33057143Y47314286D02*
X33248571Y47314286D01*
X33742857Y47314286D02*
X33762857Y47314286D01*
X33057143Y47142857D02*
X33077143Y47142857D01*
X33742857Y47142857D02*
X33762857Y47142857D01*
X33228571Y46971429D02*
X33591429Y46971429D01*
X81971429Y48000000D02*
X82505714Y48000000D01*
X81800000Y47828571D02*
X81820000Y47828571D01*
X81800000Y47657143D02*
X81820000Y47657143D01*
X81800000Y47485714D02*
X81820000Y47485714D01*
X81800000Y47314286D02*
X81820000Y47314286D01*
X81800000Y47142857D02*
X81820000Y47142857D01*
X81971429Y46971429D02*
X82505714Y46971429D01*
X82828571Y48000000D02*
X82848571Y48000000D01*
X83514286Y48000000D02*
X83534286Y48000000D01*
X82828571Y47828571D02*
X82848571Y47828571D01*
X83514286Y47828571D02*
X83534286Y47828571D01*
X82828571Y47657143D02*
X82848571Y47657143D01*
X83514286Y47657143D02*
X83534286Y47657143D01*
X82828571Y47485714D02*
X83534286Y47485714D01*
X82828571Y47314286D02*
X82848571Y47314286D01*
X83514286Y47314286D02*
X83534286Y47314286D01*
X82828571Y47142857D02*
X82848571Y47142857D01*
X83514286Y47142857D02*
X83534286Y47142857D01*
X82828571Y46971429D02*
X82848571Y46971429D01*
X83514286Y46971429D02*
X83534286Y46971429D01*
X84200000Y48000000D02*
X84220000Y48000000D01*
X84028571Y47828571D02*
X84220000Y47828571D01*
X84200000Y47657143D02*
X84220000Y47657143D01*
X84200000Y47485714D02*
X84220000Y47485714D01*
X84200000Y47314286D02*
X84220000Y47314286D01*
X84200000Y47142857D02*
X84220000Y47142857D01*
X84028571Y46971429D02*
X84391429Y46971429D01*
X132771429Y48000000D02*
X133305714Y48000000D01*
X132600000Y47828571D02*
X132620000Y47828571D01*
X132600000Y47657143D02*
X132620000Y47657143D01*
X132600000Y47485714D02*
X132620000Y47485714D01*
X132600000Y47314286D02*
X132620000Y47314286D01*
X132600000Y47142857D02*
X132620000Y47142857D01*
X132771429Y46971429D02*
X133305714Y46971429D01*
X133628571Y48000000D02*
X133648571Y48000000D01*
X134314286Y48000000D02*
X134334286Y48000000D01*
X133628571Y47828571D02*
X133648571Y47828571D01*
X134314286Y47828571D02*
X134334286Y47828571D01*
X133628571Y47657143D02*
X133648571Y47657143D01*
X134314286Y47657143D02*
X134334286Y47657143D01*
X133628571Y47485714D02*
X134334286Y47485714D01*
X133628571Y47314286D02*
X133648571Y47314286D01*
X134314286Y47314286D02*
X134334286Y47314286D01*
X133628571Y47142857D02*
X133648571Y47142857D01*
X134314286Y47142857D02*
X134334286Y47142857D01*
X133628571Y46971429D02*
X133648571Y46971429D01*
X134314286Y46971429D02*
X134334286Y46971429D01*
X134828571Y48000000D02*
X135191429Y48000000D01*
X134657143Y47828571D02*
X134677143Y47828571D01*
X135342857Y47828571D02*
X135362857Y47828571D01*
X135342857Y47657143D02*
X135362857Y47657143D01*
X135171429Y47485714D02*
X135191429Y47485714D01*
X135000000Y47314286D02*
X135020000Y47314286D01*
X134828571Y47142857D02*
X134848571Y47142857D01*
X134657143Y46971429D02*
X135362857Y46971429D01*
X183571429Y48000000D02*
X184105714Y48000000D01*
X183400000Y47828571D02*
X183420000Y47828571D01*
X183400000Y47657143D02*
X183420000Y47657143D01*
X183400000Y47485714D02*
X183420000Y47485714D01*
X183400000Y47314286D02*
X183420000Y47314286D01*
X183400000Y47142857D02*
X183420000Y47142857D01*
X183571429Y46971429D02*
X184105714Y46971429D01*
X184428571Y48000000D02*
X184448571Y48000000D01*
X185114286Y48000000D02*
X185134286Y48000000D01*
X184428571Y47828571D02*
X184448571Y47828571D01*
X185114286Y47828571D02*
X185134286Y47828571D01*
X184428571Y47657143D02*
X184448571Y47657143D01*
X185114286Y47657143D02*
X185134286Y47657143D01*
X184428571Y47485714D02*
X185134286Y47485714D01*
X184428571Y47314286D02*
X184448571Y47314286D01*
X185114286Y47314286D02*
X185134286Y47314286D01*
X184428571Y47142857D02*
X184448571Y47142857D01*
X185114286Y47142857D02*
X185134286Y47142857D01*
X184428571Y46971429D02*
X184448571Y46971429D01*
X185114286Y46971429D02*
X185134286Y46971429D01*
X185457143Y48000000D02*
X185991429Y48000000D01*
X186142857Y47828571D02*
X186162857Y47828571D01*
X186142857Y47657143D02*
X186162857Y47657143D01*
X185628571Y47485714D02*
X185991429Y47485714D01*
X186142857Y47314286D02*
X186162857Y47314286D01*
X186142857Y47142857D02*
X186162857Y47142857D01*
X185457143Y46971429D02*
X185991429Y46971429D01*
X234371429Y48000000D02*
X234905714Y48000000D01*
X234200000Y47828571D02*
X234220000Y47828571D01*
X234200000Y47657143D02*
X234220000Y47657143D01*
X234200000Y47485714D02*
X234220000Y47485714D01*
X234200000Y47314286D02*
X234220000Y47314286D01*
X234200000Y47142857D02*
X234220000Y47142857D01*
X234371429Y46971429D02*
X234905714Y46971429D01*
X235228571Y48000000D02*
X235248571Y48000000D01*
X235914286Y48000000D02*
X235934286Y48000000D01*
X235228571Y47828571D02*
X235248571Y47828571D01*
X235914286Y47828571D02*
X235934286Y47828571D01*
X235228571Y47657143D02*
X235248571Y47657143D01*
X235914286Y47657143D02*
X235934286Y47657143D01*
X235228571Y47485714D02*
X235934286Y47485714D01*
X235228571Y47314286D02*
X235248571Y47314286D01*
X235914286Y47314286D02*
X235934286Y47314286D01*
X235228571Y47142857D02*
X235248571Y47142857D01*
X235914286Y47142857D02*
X235934286Y47142857D01*
X235228571Y46971429D02*
X235248571Y46971429D01*
X235914286Y46971429D02*
X235934286Y46971429D01*
X236771429Y48000000D02*
X236791429Y48000000D01*
X236600000Y47828571D02*
X236791429Y47828571D01*
X236428571Y47657143D02*
X236448571Y47657143D01*
X236771429Y47657143D02*
X236791429Y47657143D01*
X236257143Y47485714D02*
X236277143Y47485714D01*
X236771429Y47485714D02*
X236791429Y47485714D01*
X236257143Y47314286D02*
X236962857Y47314286D01*
X236771429Y47142857D02*
X236791429Y47142857D01*
X236771429Y46971429D02*
X236791429Y46971429D01*
X285171429Y48000000D02*
X285705714Y48000000D01*
X285000000Y47828571D02*
X285020000Y47828571D01*
X285000000Y47657143D02*
X285020000Y47657143D01*
X285000000Y47485714D02*
X285020000Y47485714D01*
X285000000Y47314286D02*
X285020000Y47314286D01*
X285000000Y47142857D02*
X285020000Y47142857D01*
X285171429Y46971429D02*
X285705714Y46971429D01*
X286028571Y48000000D02*
X286048571Y48000000D01*
X286714286Y48000000D02*
X286734286Y48000000D01*
X286028571Y47828571D02*
X286048571Y47828571D01*
X286714286Y47828571D02*
X286734286Y47828571D01*
X286028571Y47657143D02*
X286048571Y47657143D01*
X286714286Y47657143D02*
X286734286Y47657143D01*
X286028571Y47485714D02*
X286734286Y47485714D01*
X286028571Y47314286D02*
X286048571Y47314286D01*
X286714286Y47314286D02*
X286734286Y47314286D01*
X286028571Y47142857D02*
X286048571Y47142857D01*
X286714286Y47142857D02*
X286734286Y47142857D01*
X286028571Y46971429D02*
X286048571Y46971429D01*
X286714286Y46971429D02*
X286734286Y46971429D01*
X287057143Y48000000D02*
X287762857Y48000000D01*
X287057143Y47828571D02*
X287077143Y47828571D01*
X287057143Y47657143D02*
X287077143Y47657143D01*
X287057143Y47485714D02*
X287591429Y47485714D01*
X287742857Y47314286D02*
X287762857Y47314286D01*
X287742857Y47142857D02*
X287762857Y47142857D01*
X287057143Y46971429D02*
X287591429Y46971429D01*
X335971429Y48000000D02*
X336505714Y48000000D01*
X335800000Y47828571D02*
X335820000Y47828571D01*
X335800000Y47657143D02*
X335820000Y47657143D01*
X335800000Y47485714D02*
X335820000Y47485714D01*
X335800000Y47314286D02*
X335820000Y47314286D01*
X335800000Y47142857D02*
X335820000Y47142857D01*
X335971429Y46971429D02*
X336505714Y46971429D01*
X336828571Y48000000D02*
X336848571Y48000000D01*
X337514286Y48000000D02*
X337534286Y48000000D01*
X336828571Y47828571D02*
X336848571Y47828571D01*
X337514286Y47828571D02*
X337534286Y47828571D01*
X336828571Y47657143D02*
X336848571Y47657143D01*
X337514286Y47657143D02*
X337534286Y47657143D01*
X336828571Y47485714D02*
X337534286Y47485714D01*
X336828571Y47314286D02*
X336848571Y47314286D01*
X337514286Y47314286D02*
X337534286Y47314286D01*
X336828571Y47142857D02*
X336848571Y47142857D01*
X337514286Y47142857D02*
X337534286Y47142857D01*
X336828571Y46971429D02*
X336848571Y46971429D01*
X337514286Y46971429D02*
X337534286Y46971429D01*
X338028571Y48000000D02*
X338391429Y48000000D01*
X337857143Y47828571D02*
X337877143Y47828571D01*
X337857143Y47657143D02*
X337877143Y47657143D01*
X337857143Y47485714D02*
X338391429Y47485714D01*
X337857143Y47314286D02*
X337877143Y47314286D01*
X338542857Y47314286D02*
X338562857Y47314286D01*
X337857143Y47142857D02*
X337877143Y47142857D01*
X338542857Y47142857D02*
X338562857Y47142857D01*
X338028571Y46971429D02*
X338391429Y46971429D01*
X386771429Y48000000D02*
X387305714Y48000000D01*
X386600000Y47828571D02*
X386620000Y47828571D01*
X386600000Y47657143D02*
X386620000Y47657143D01*
X386600000Y47485714D02*
X386620000Y47485714D01*
X386600000Y47314286D02*
X386620000Y47314286D01*
X386600000Y47142857D02*
X386620000Y47142857D01*
X386771429Y46971429D02*
X387305714Y46971429D01*
X387628571Y48000000D02*
X387648571Y48000000D01*
X388314286Y48000000D02*
X388334286Y48000000D01*
X387628571Y47828571D02*
X387648571Y47828571D01*
X388314286Y47828571D02*
X388334286Y47828571D01*
X387628571Y47657143D02*
X387648571Y47657143D01*
X388314286Y47657143D02*
X388334286Y47657143D01*
X387628571Y47485714D02*
X388334286Y47485714D01*
X387628571Y47314286D02*
X387648571Y47314286D01*
X388314286Y47314286D02*
X388334286Y47314286D01*
X387628571Y47142857D02*
X387648571Y47142857D01*
X388314286Y47142857D02*
X388334286Y47142857D01*
X387628571Y46971429D02*
X387648571Y46971429D01*
X388314286Y46971429D02*
X388334286Y46971429D01*
X388657143Y48000000D02*
X389362857Y48000000D01*
X389342857Y47828571D02*
X389362857Y47828571D01*
X389171429Y47657143D02*
X389191429Y47657143D01*
X389000000Y47485714D02*
X389020000Y47485714D01*
X388828571Y47314286D02*
X388848571Y47314286D01*
X388828571Y47142857D02*
X388848571Y47142857D01*
X388828571Y46971429D02*
X388848571Y46971429D01*
X172171429Y49500000D02*
X172705714Y49500000D01*
X172000000Y49328571D02*
X172020000Y49328571D01*
X172000000Y49157143D02*
X172020000Y49157143D01*
X172000000Y48985714D02*
X172020000Y48985714D01*
X172000000Y48814286D02*
X172020000Y48814286D01*
X172000000Y48642857D02*
X172020000Y48642857D01*
X172171429Y48471429D02*
X172705714Y48471429D01*
X173028571Y49500000D02*
X173048571Y49500000D01*
X173714286Y49500000D02*
X173734286Y49500000D01*
X173028571Y49328571D02*
X173048571Y49328571D01*
X173714286Y49328571D02*
X173734286Y49328571D01*
X173028571Y49157143D02*
X173048571Y49157143D01*
X173714286Y49157143D02*
X173734286Y49157143D01*
X173028571Y48985714D02*
X173734286Y48985714D01*
X173028571Y48814286D02*
X173048571Y48814286D01*
X173714286Y48814286D02*
X173734286Y48814286D01*
X173028571Y48642857D02*
X173048571Y48642857D01*
X173714286Y48642857D02*
X173734286Y48642857D01*
X173028571Y48471429D02*
X173048571Y48471429D01*
X173714286Y48471429D02*
X173734286Y48471429D01*
X174057143Y49500000D02*
X174762857Y49500000D01*
X174057143Y49328571D02*
X174077143Y49328571D01*
X174057143Y49157143D02*
X174077143Y49157143D01*
X174057143Y48985714D02*
X174591429Y48985714D01*
X174057143Y48814286D02*
X174077143Y48814286D01*
X174057143Y48642857D02*
X174077143Y48642857D01*
X174057143Y48471429D02*
X174762857Y48471429D01*
X175257143Y49500000D02*
X175791429Y49500000D01*
X175085714Y49328571D02*
X175105714Y49328571D01*
X175085714Y49157143D02*
X175105714Y49157143D01*
X175085714Y48985714D02*
X175105714Y48985714D01*
X175085714Y48814286D02*
X175105714Y48814286D01*
X175085714Y48642857D02*
X175105714Y48642857D01*
X175257143Y48471429D02*
X175791429Y48471429D01*
X176114286Y49500000D02*
X176134286Y49500000D01*
X176800000Y49500000D02*
X176820000Y49500000D01*
X176114286Y49328571D02*
X176134286Y49328571D01*
X176628571Y49328571D02*
X176648571Y49328571D01*
X176114286Y49157143D02*
X176134286Y49157143D01*
X176457143Y49157143D02*
X176477143Y49157143D01*
X176114286Y48985714D02*
X176305714Y48985714D01*
X176114286Y48814286D02*
X176134286Y48814286D01*
X176457143Y48814286D02*
X176477143Y48814286D01*
X176114286Y48642857D02*
X176134286Y48642857D01*
X176628571Y48642857D02*
X176648571Y48642857D01*
X176114286Y48471429D02*
X176134286Y48471429D01*
X176800000Y48471429D02*
X176820000Y48471429D01*
X177142857Y49500000D02*
X177162857Y49500000D01*
X177828571Y49500000D02*
X177848571Y49500000D01*
X177142857Y49328571D02*
X177334286Y49328571D01*
X177657143Y49328571D02*
X177848571Y49328571D01*
X177142857Y49157143D02*
X177162857Y49157143D01*
X177485714Y49157143D02*
X177505714Y49157143D01*
X177828571Y49157143D02*
X177848571Y49157143D01*
X177142857Y48985714D02*
X177162857Y48985714D01*
X177485714Y48985714D02*
X177505714Y48985714D01*
X177828571Y48985714D02*
X177848571Y48985714D01*
X177142857Y48814286D02*
X177162857Y48814286D01*
X177828571Y48814286D02*
X177848571Y48814286D01*
X177142857Y48642857D02*
X177162857Y48642857D01*
X177828571Y48642857D02*
X177848571Y48642857D01*
X177142857Y48471429D02*
X177162857Y48471429D01*
X177828571Y48471429D02*
X177848571Y48471429D01*
X178342857Y49500000D02*
X178705714Y49500000D01*
X178171429Y49328571D02*
X178191429Y49328571D01*
X178857143Y49328571D02*
X178877143Y49328571D01*
X178171429Y49157143D02*
X178191429Y49157143D01*
X178857143Y49157143D02*
X178877143Y49157143D01*
X178171429Y48985714D02*
X178877143Y48985714D01*
X178171429Y48814286D02*
X178191429Y48814286D01*
X178857143Y48814286D02*
X178877143Y48814286D01*
X178171429Y48642857D02*
X178191429Y48642857D01*
X178857143Y48642857D02*
X178877143Y48642857D01*
X178171429Y48471429D02*
X178191429Y48471429D01*
X178857143Y48471429D02*
X178877143Y48471429D01*
X179200000Y49500000D02*
X179905714Y49500000D01*
X179542857Y49328571D02*
X179562857Y49328571D01*
X179542857Y49157143D02*
X179562857Y49157143D01*
X179542857Y48985714D02*
X179562857Y48985714D01*
X179542857Y48814286D02*
X179562857Y48814286D01*
X179542857Y48642857D02*
X179562857Y48642857D01*
X179542857Y48471429D02*
X179562857Y48471429D01*
X180228571Y49500000D02*
X180934286Y49500000D01*
X180228571Y49328571D02*
X180248571Y49328571D01*
X180228571Y49157143D02*
X180248571Y49157143D01*
X180228571Y48985714D02*
X180762857Y48985714D01*
X180228571Y48814286D02*
X180248571Y48814286D01*
X180228571Y48642857D02*
X180248571Y48642857D01*
X180228571Y48471429D02*
X180934286Y48471429D01*
X182285714Y49500000D02*
X182820000Y49500000D01*
X182285714Y49328571D02*
X182305714Y49328571D01*
X182971429Y49328571D02*
X182991429Y49328571D01*
X182285714Y49157143D02*
X182305714Y49157143D01*
X182971429Y49157143D02*
X182991429Y49157143D01*
X182285714Y48985714D02*
X182820000Y48985714D01*
X182285714Y48814286D02*
X182305714Y48814286D01*
X182628571Y48814286D02*
X182648571Y48814286D01*
X182285714Y48642857D02*
X182305714Y48642857D01*
X182800000Y48642857D02*
X182820000Y48642857D01*
X182285714Y48471429D02*
X182305714Y48471429D01*
X182971429Y48471429D02*
X182991429Y48471429D01*
X183485714Y49500000D02*
X183848571Y49500000D01*
X183314286Y49328571D02*
X183334286Y49328571D01*
X184000000Y49328571D02*
X184020000Y49328571D01*
X183314286Y49157143D02*
X183334286Y49157143D01*
X184000000Y49157143D02*
X184020000Y49157143D01*
X183314286Y48985714D02*
X183334286Y48985714D01*
X184000000Y48985714D02*
X184020000Y48985714D01*
X183314286Y48814286D02*
X183334286Y48814286D01*
X184000000Y48814286D02*
X184020000Y48814286D01*
X183314286Y48642857D02*
X183334286Y48642857D01*
X184000000Y48642857D02*
X184020000Y48642857D01*
X183485714Y48471429D02*
X183848571Y48471429D01*
X184342857Y49500000D02*
X184362857Y49500000D01*
X185028571Y49500000D02*
X185048571Y49500000D01*
X184342857Y49328571D02*
X184362857Y49328571D01*
X185028571Y49328571D02*
X185048571Y49328571D01*
X184342857Y49157143D02*
X184362857Y49157143D01*
X185028571Y49157143D02*
X185048571Y49157143D01*
X184342857Y48985714D02*
X184362857Y48985714D01*
X184685714Y48985714D02*
X184705714Y48985714D01*
X185028571Y48985714D02*
X185048571Y48985714D01*
X184342857Y48814286D02*
X184362857Y48814286D01*
X184685714Y48814286D02*
X184705714Y48814286D01*
X185028571Y48814286D02*
X185048571Y48814286D01*
X184342857Y48642857D02*
X184362857Y48642857D01*
X184685714Y48642857D02*
X184705714Y48642857D01*
X185028571Y48642857D02*
X185048571Y48642857D01*
X184514286Y48471429D02*
X184534286Y48471429D01*
X184857143Y48471429D02*
X184877143Y48471429D01*
X186571429Y49500000D02*
X186934286Y49500000D01*
X186400000Y49328571D02*
X186420000Y49328571D01*
X187085714Y49328571D02*
X187105714Y49328571D01*
X186400000Y49157143D02*
X186420000Y49157143D01*
X187085714Y49157143D02*
X187105714Y49157143D01*
X186400000Y48985714D02*
X187105714Y48985714D01*
X186400000Y48814286D02*
X186420000Y48814286D01*
X187085714Y48814286D02*
X187105714Y48814286D01*
X186400000Y48642857D02*
X186420000Y48642857D01*
X187085714Y48642857D02*
X187105714Y48642857D01*
X186400000Y48471429D02*
X186420000Y48471429D01*
X187085714Y48471429D02*
X187105714Y48471429D01*
X188457143Y48985714D02*
X189162857Y48985714D01*
X190514286Y49500000D02*
X191220000Y49500000D01*
X190514286Y49328571D02*
X190534286Y49328571D01*
X190514286Y49157143D02*
X190534286Y49157143D01*
X190514286Y48985714D02*
X191048571Y48985714D01*
X191200000Y48814286D02*
X191220000Y48814286D01*
X191200000Y48642857D02*
X191220000Y48642857D01*
X190514286Y48471429D02*
X191048571Y48471429D01*
X191542857Y49500000D02*
X191562857Y49500000D01*
X192228571Y49500000D02*
X192248571Y49500000D01*
X191542857Y49328571D02*
X191562857Y49328571D01*
X192228571Y49328571D02*
X192248571Y49328571D01*
X191542857Y49157143D02*
X191562857Y49157143D01*
X192228571Y49157143D02*
X192248571Y49157143D01*
X191542857Y48985714D02*
X191562857Y48985714D01*
X192228571Y48985714D02*
X192248571Y48985714D01*
X191542857Y48814286D02*
X191562857Y48814286D01*
X192228571Y48814286D02*
X192248571Y48814286D01*
X191714286Y48642857D02*
X191734286Y48642857D01*
X192057143Y48642857D02*
X192077143Y48642857D01*
X191885714Y48471429D02*
X191905714Y48471429D01*
X3000000Y20000000D02*
X3705714Y20000000D01*
X3342857Y19828571D02*
X3362857Y19828571D01*
X3342857Y19657143D02*
X3362857Y19657143D01*
X3342857Y19485714D02*
X3362857Y19485714D01*
X3342857Y19314286D02*
X3362857Y19314286D01*
X3342857Y19142857D02*
X3362857Y19142857D01*
X3000000Y18971429D02*
X3705714Y18971429D01*
X4028571Y20000000D02*
X4048571Y20000000D01*
X4714286Y20000000D02*
X4734286Y20000000D01*
X4028571Y19828571D02*
X4220000Y19828571D01*
X4714286Y19828571D02*
X4734286Y19828571D01*
X4028571Y19657143D02*
X4048571Y19657143D01*
X4371429Y19657143D02*
X4391429Y19657143D01*
X4714286Y19657143D02*
X4734286Y19657143D01*
X4028571Y19485714D02*
X4048571Y19485714D01*
X4542857Y19485714D02*
X4734286Y19485714D01*
X4028571Y19314286D02*
X4048571Y19314286D01*
X4714286Y19314286D02*
X4734286Y19314286D01*
X4028571Y19142857D02*
X4048571Y19142857D01*
X4714286Y19142857D02*
X4734286Y19142857D01*
X4028571Y18971429D02*
X4048571Y18971429D01*
X4714286Y18971429D02*
X4734286Y18971429D01*
X398171429Y20000000D02*
X398534286Y20000000D01*
X398000000Y19828571D02*
X398020000Y19828571D01*
X398685714Y19828571D02*
X398705714Y19828571D01*
X398000000Y19657143D02*
X398020000Y19657143D01*
X398685714Y19657143D02*
X398705714Y19657143D01*
X398000000Y19485714D02*
X398020000Y19485714D01*
X398685714Y19485714D02*
X398705714Y19485714D01*
X398000000Y19314286D02*
X398020000Y19314286D01*
X398685714Y19314286D02*
X398705714Y19314286D01*
X398000000Y19142857D02*
X398020000Y19142857D01*
X398685714Y19142857D02*
X398705714Y19142857D01*
X398171429Y18971429D02*
X398534286Y18971429D01*
X399028571Y20000000D02*
X399048571Y20000000D01*
X399714286Y20000000D02*
X399734286Y20000000D01*
X399028571Y19828571D02*
X399048571Y19828571D01*
X399714286Y19828571D02*
X399734286Y19828571D01*
X399028571Y19657143D02*
X399048571Y19657143D01*
X399714286Y19657143D02*
X399734286Y19657143D01*
X399028571Y19485714D02*
X399048571Y19485714D01*
X399714286Y19485714D02*
X399734286Y19485714D01*
X399028571Y19314286D02*
X399048571Y19314286D01*
X399714286Y19314286D02*
X399734286Y19314286D01*
X399028571Y19142857D02*
X399048571Y19142857D01*
X399714286Y19142857D02*
X399734286Y19142857D01*
X399200000Y18971429D02*
X399562857Y18971429D01*
X400057143Y20000000D02*
X400762857Y20000000D01*
X400400000Y19828571D02*
X400420000Y19828571D01*
X400400000Y19657143D02*
X400420000Y19657143D01*
X400400000Y19485714D02*
X400420000Y19485714D01*
X400400000Y19314286D02*
X400420000Y19314286D01*
X400400000Y19142857D02*
X400420000Y19142857D01*
X400400000Y18971429D02*
X400420000Y18971429D01*
M02*
