G04 CHECKMATE ROW REV A*
%FSLAX46Y46*%
%MOMM*%
%LPD*%
G01*
%ADD10R,1.9000X1.9000*%
%ADD11C,1.9000*%
%ADD12R,0.5500X1.6000*%
%ADD13R,2.0000X2.0000*%
%ADD14C,2.0000*%
D10*
X22860000Y19400000D03*
D11*
X25400000Y19400000D03*
X27940000Y19400000D03*
D10*
X20320000Y14400000D03*
D11*
X25400000Y14400000D03*
D10*
X30320000Y20300000D03*
D11*
X40480000Y20300000D03*
D10*
X17130000Y40800000D03*
D11*
X19670000Y40800000D03*
D10*
X13320000Y33800000D03*
D11*
X23480000Y33800000D03*
D10*
X31130000Y40800000D03*
D11*
X33670000Y40800000D03*
D10*
X27320000Y33800000D03*
D11*
X37480000Y33800000D03*
D10*
X73660000Y19400000D03*
D11*
X76200000Y19400000D03*
X78740000Y19400000D03*
D10*
X71120000Y14400000D03*
D11*
X76200000Y14400000D03*
D10*
X81120000Y20300000D03*
D11*
X91280000Y20300000D03*
D10*
X67930000Y40800000D03*
D11*
X70470000Y40800000D03*
D10*
X64120000Y33800000D03*
D11*
X74280000Y33800000D03*
D10*
X81930000Y40800000D03*
D11*
X84470000Y40800000D03*
D10*
X78120000Y33800000D03*
D11*
X88280000Y33800000D03*
D10*
X124460000Y19400000D03*
D11*
X127000000Y19400000D03*
X129540000Y19400000D03*
D10*
X121920000Y14400000D03*
D11*
X127000000Y14400000D03*
D10*
X131920000Y20300000D03*
D11*
X142080000Y20300000D03*
D10*
X118730000Y40800000D03*
D11*
X121270000Y40800000D03*
D10*
X114920000Y33800000D03*
D11*
X125080000Y33800000D03*
D10*
X132730000Y40800000D03*
D11*
X135270000Y40800000D03*
D10*
X128920000Y33800000D03*
D11*
X139080000Y33800000D03*
D10*
X175260000Y19400000D03*
D11*
X177800000Y19400000D03*
X180340000Y19400000D03*
D10*
X172720000Y14400000D03*
D11*
X177800000Y14400000D03*
D10*
X182720000Y20300000D03*
D11*
X192880000Y20300000D03*
D10*
X169530000Y40800000D03*
D11*
X172070000Y40800000D03*
D10*
X165720000Y33800000D03*
D11*
X175880000Y33800000D03*
D10*
X183530000Y40800000D03*
D11*
X186070000Y40800000D03*
D10*
X179720000Y33800000D03*
D11*
X189880000Y33800000D03*
D10*
X226060000Y19400000D03*
D11*
X228600000Y19400000D03*
X231140000Y19400000D03*
D10*
X223520000Y14400000D03*
D11*
X228600000Y14400000D03*
D10*
X233520000Y20300000D03*
D11*
X243680000Y20300000D03*
D10*
X220330000Y40800000D03*
D11*
X222870000Y40800000D03*
D10*
X216520000Y33800000D03*
D11*
X226680000Y33800000D03*
D10*
X234330000Y40800000D03*
D11*
X236870000Y40800000D03*
D10*
X230520000Y33800000D03*
D11*
X240680000Y33800000D03*
D10*
X276860000Y19400000D03*
D11*
X279400000Y19400000D03*
X281940000Y19400000D03*
D10*
X274320000Y14400000D03*
D11*
X279400000Y14400000D03*
D10*
X284320000Y20300000D03*
D11*
X294480000Y20300000D03*
D10*
X271130000Y40800000D03*
D11*
X273670000Y40800000D03*
D10*
X267320000Y33800000D03*
D11*
X277480000Y33800000D03*
D10*
X285130000Y40800000D03*
D11*
X287670000Y40800000D03*
D10*
X281320000Y33800000D03*
D11*
X291480000Y33800000D03*
D10*
X327660000Y19400000D03*
D11*
X330200000Y19400000D03*
X332740000Y19400000D03*
D10*
X325120000Y14400000D03*
D11*
X330200000Y14400000D03*
D10*
X335120000Y20300000D03*
D11*
X345280000Y20300000D03*
D10*
X321930000Y40800000D03*
D11*
X324470000Y40800000D03*
D10*
X318120000Y33800000D03*
D11*
X328280000Y33800000D03*
D10*
X335930000Y40800000D03*
D11*
X338470000Y40800000D03*
D10*
X332120000Y33800000D03*
D11*
X342280000Y33800000D03*
D10*
X378460000Y19400000D03*
D11*
X381000000Y19400000D03*
X383540000Y19400000D03*
D10*
X375920000Y14400000D03*
D11*
X381000000Y14400000D03*
D10*
X385920000Y20300000D03*
D11*
X396080000Y20300000D03*
D10*
X372730000Y40800000D03*
D11*
X375270000Y40800000D03*
D10*
X368920000Y33800000D03*
D11*
X379080000Y33800000D03*
D10*
X386730000Y40800000D03*
D11*
X389270000Y40800000D03*
D10*
X382920000Y33800000D03*
D11*
X393080000Y33800000D03*
D10*
X194310000Y7990000D03*
D11*
X194310000Y15610000D03*
X196850000Y7990000D03*
X196850000Y15610000D03*
X199390000Y7990000D03*
X199390000Y15610000D03*
X201930000Y7990000D03*
X201930000Y15610000D03*
X204470000Y7990000D03*
X204470000Y15610000D03*
X207010000Y7990000D03*
X207010000Y15610000D03*
X209550000Y7990000D03*
X209550000Y15610000D03*
X212090000Y7990000D03*
X212090000Y15610000D03*
D12*
X150125000Y7900000D03*
X150125000Y13700000D03*
X150775000Y7900000D03*
X150775000Y13700000D03*
X151425000Y7900000D03*
X151425000Y13700000D03*
X152075000Y7900000D03*
X152075000Y13700000D03*
X152725000Y7900000D03*
X152725000Y13700000D03*
X153375000Y7900000D03*
X153375000Y13700000D03*
X154025000Y7900000D03*
X154025000Y13700000D03*
X154675000Y7900000D03*
X154675000Y13700000D03*
X251725000Y7900000D03*
X251725000Y13700000D03*
X252375000Y7900000D03*
X252375000Y13700000D03*
X253025000Y7900000D03*
X253025000Y13700000D03*
X253675000Y7900000D03*
X253675000Y13700000D03*
X254325000Y7900000D03*
X254325000Y13700000D03*
X254975000Y7900000D03*
X254975000Y13700000D03*
X255625000Y7900000D03*
X255625000Y13700000D03*
X256275000Y7900000D03*
X256275000Y13700000D03*
D10*
X194310000Y18300000D03*
D11*
X199390000Y18300000D03*
D10*
X147000000Y8260000D03*
D11*
X147000000Y13340000D03*
D10*
X248600000Y8260000D03*
D11*
X248600000Y13340000D03*
D10*
X8750000Y12800000D03*
D11*
X11250000Y12800000D03*
D10*
X38920000Y10800000D03*
D11*
X49080000Y10800000D03*
D10*
X56920000Y10800000D03*
D11*
X67080000Y10800000D03*
D10*
X74920000Y10800000D03*
D11*
X85080000Y10800000D03*
D13*
X4730000Y33880000D03*
D14*
X7270000Y33880000D03*
X4730000Y31340000D03*
X7270000Y31340000D03*
X4730000Y28800000D03*
X7270000Y28800000D03*
X4730000Y26260000D03*
X7270000Y26260000D03*
X4730000Y23720000D03*
X7270000Y23720000D03*
D13*
X399130000Y33880000D03*
D14*
X401670000Y33880000D03*
X399130000Y31340000D03*
X401670000Y31340000D03*
X399130000Y28800000D03*
X401670000Y28800000D03*
X399130000Y26260000D03*
X401670000Y26260000D03*
X399130000Y23720000D03*
X401670000Y23720000D03*
M02*
