<svg xmlns="http://www.w3.org/2000/svg" width="446.4mm" height="120mm" viewBox="0 0 446.4 120"><style>text{font-family:Arial,sans-serif;fill:#17283b} .small{font-size:2.7px} .label{font-size:3.5px} .dim{stroke:#43566b;stroke-width:.25;fill:none}</style><rect width="446.4" height="120" fill="white"/><text x="20" y="10" font-size="6" font-weight="bold">CHECKMATE / ROW PLACEMENT TEMPLATE</text><text x="20" y="17" class="label">Eight 2 × 2 inch squares · 50.8 mm pitch · viewed from playing side, looking through board</text><path class="dim" d="M20 24H426.4 M20 21V32 M426.4 21V32"/><text x="223.2" y="23" text-anchor="middle" class="label">406.4 mm / 16 inches</text>
<rect x="20" y="35" width="50.8" height="50.8" fill="#f8fafc" stroke="#43566b" stroke-width=".3"/><text x="23" y="41" class="label" font-weight="bold">A</text><circle cx="38.4" cy="45" r="2.5" fill="#dc3545"/><circle cx="52.4" cy="45" r="2.5" fill="#22a465"/><text x="38.4" y="51" text-anchor="middle" class="small">D1</text><text x="52.4" y="51" text-anchor="middle" class="small">D9</text><path class="dim" d="M39.4 60.4H51.4 M45.4 54.4V66.4"/><rect x="43.4" y="58.4" width="4" height="4" fill="#2458a6"/><text x="45.4" y="71" text-anchor="middle" class="label">U1 · Hall center</text><text x="45.4" y="76" text-anchor="middle" class="small">C1 + R1 nearby</text>
<rect x="70.8" y="35" width="50.8" height="50.8" fill="#e7ecf1" stroke="#43566b" stroke-width=".3"/><text x="73.8" y="41" class="label" font-weight="bold">B</text><circle cx="89.19999999999999" cy="45" r="2.5" fill="#dc3545"/><circle cx="103.19999999999999" cy="45" r="2.5" fill="#22a465"/><text x="89.19999999999999" y="51" text-anchor="middle" class="small">D2</text><text x="103.19999999999999" y="51" text-anchor="middle" class="small">D10</text><path class="dim" d="M90.19999999999999 60.4H102.19999999999999 M96.19999999999999 54.4V66.4"/><rect x="94.19999999999999" y="58.4" width="4" height="4" fill="#2458a6"/><text x="96.19999999999999" y="71" text-anchor="middle" class="label">U2 · Hall center</text><text x="96.19999999999999" y="76" text-anchor="middle" class="small">C2 + R2 nearby</text>
<rect x="121.6" y="35" width="50.8" height="50.8" fill="#f8fafc" stroke="#43566b" stroke-width=".3"/><text x="124.6" y="41" class="label" font-weight="bold">C</text><circle cx="140" cy="45" r="2.5" fill="#dc3545"/><circle cx="154" cy="45" r="2.5" fill="#22a465"/><text x="140" y="51" text-anchor="middle" class="small">D3</text><text x="154" y="51" text-anchor="middle" class="small">D11</text><path class="dim" d="M141 60.4H153 M147 54.4V66.4"/><rect x="145" y="58.4" width="4" height="4" fill="#2458a6"/><text x="147" y="71" text-anchor="middle" class="label">U3 · Hall center</text><text x="147" y="76" text-anchor="middle" class="small">C3 + R3 nearby</text>
<rect x="172.39999999999998" y="35" width="50.8" height="50.8" fill="#e7ecf1" stroke="#43566b" stroke-width=".3"/><text x="175.39999999999998" y="41" class="label" font-weight="bold">D</text><circle cx="190.79999999999998" cy="45" r="2.5" fill="#dc3545"/><circle cx="204.79999999999998" cy="45" r="2.5" fill="#22a465"/><text x="190.79999999999998" y="51" text-anchor="middle" class="small">D4</text><text x="204.79999999999998" y="51" text-anchor="middle" class="small">D12</text><path class="dim" d="M191.79999999999998 60.4H203.79999999999998 M197.79999999999998 54.4V66.4"/><rect x="195.79999999999998" y="58.4" width="4" height="4" fill="#2458a6"/><text x="197.79999999999998" y="71" text-anchor="middle" class="label">U4 · Hall center</text><text x="197.79999999999998" y="76" text-anchor="middle" class="small">C4 + R4 nearby</text>
<rect x="223.2" y="35" width="50.8" height="50.8" fill="#f8fafc" stroke="#43566b" stroke-width=".3"/><text x="226.2" y="41" class="label" font-weight="bold">E</text><circle cx="241.6" cy="45" r="2.5" fill="#dc3545"/><circle cx="255.6" cy="45" r="2.5" fill="#22a465"/><text x="241.6" y="51" text-anchor="middle" class="small">D5</text><text x="255.6" y="51" text-anchor="middle" class="small">D13</text><path class="dim" d="M242.6 60.4H254.6 M248.6 54.4V66.4"/><rect x="246.6" y="58.4" width="4" height="4" fill="#2458a6"/><text x="248.6" y="71" text-anchor="middle" class="label">U5 · Hall center</text><text x="248.6" y="76" text-anchor="middle" class="small">C5 + R5 nearby</text>
<rect x="274" y="35" width="50.8" height="50.8" fill="#e7ecf1" stroke="#43566b" stroke-width=".3"/><text x="277" y="41" class="label" font-weight="bold">F</text><circle cx="292.4" cy="45" r="2.5" fill="#dc3545"/><circle cx="306.4" cy="45" r="2.5" fill="#22a465"/><text x="292.4" y="51" text-anchor="middle" class="small">D6</text><text x="306.4" y="51" text-anchor="middle" class="small">D14</text><path class="dim" d="M293.4 60.4H305.4 M299.4 54.4V66.4"/><rect x="297.4" y="58.4" width="4" height="4" fill="#2458a6"/><text x="299.4" y="71" text-anchor="middle" class="label">U6 · Hall center</text><text x="299.4" y="76" text-anchor="middle" class="small">C6 + R6 nearby</text>
<rect x="324.79999999999995" y="35" width="50.8" height="50.8" fill="#f8fafc" stroke="#43566b" stroke-width=".3"/><text x="327.79999999999995" y="41" class="label" font-weight="bold">G</text><circle cx="343.19999999999993" cy="45" r="2.5" fill="#dc3545"/><circle cx="357.19999999999993" cy="45" r="2.5" fill="#22a465"/><text x="343.19999999999993" y="51" text-anchor="middle" class="small">D7</text><text x="357.19999999999993" y="51" text-anchor="middle" class="small">D15</text><path class="dim" d="M344.19999999999993 60.4H356.19999999999993 M350.19999999999993 54.4V66.4"/><rect x="348.19999999999993" y="58.4" width="4" height="4" fill="#2458a6"/><text x="350.19999999999993" y="71" text-anchor="middle" class="label">U7 · Hall center</text><text x="350.19999999999993" y="76" text-anchor="middle" class="small">C7 + R7 nearby</text>
<rect x="375.59999999999997" y="35" width="50.8" height="50.8" fill="#e7ecf1" stroke="#43566b" stroke-width=".3"/><text x="378.59999999999997" y="41" class="label" font-weight="bold">H</text><circle cx="393.99999999999994" cy="45" r="2.5" fill="#dc3545"/><circle cx="407.99999999999994" cy="45" r="2.5" fill="#22a465"/><text x="393.99999999999994" y="51" text-anchor="middle" class="small">D8</text><text x="407.99999999999994" y="51" text-anchor="middle" class="small">D16</text><path class="dim" d="M394.99999999999994 60.4H406.99999999999994 M400.99999999999994 54.4V66.4"/><rect x="398.99999999999994" y="58.4" width="4" height="4" fill="#2458a6"/><text x="400.99999999999994" y="71" text-anchor="middle" class="label">U8 · Hall center</text><text x="400.99999999999994" y="76" text-anchor="middle" class="small">C8 + R8 nearby</text>
<path class="dim" d="M20 91H70.8 M20 88V94 M70.8 88V94 M432 35V85.8 M429 35H435 M429 85.8H435"/><text x="45.4" y="98" text-anchor="middle" class="label">50.8 mm / 2 inches</text><text x="437" y="60.4" transform="rotate(90 437 60.4)" text-anchor="middle" class="label">50.8 mm / 2 inches</text><text x="90" y="94" class="small">Hall centers: x = 25.4 + 50.8 × channel, y = 25.4 mm from row upper-left corner.</text><text x="90" y="99" class="small">LED centers shown at x = Hall center ± 7 mm, y = 10 mm. LED positions are provisional.</text><text x="20" y="107" class="small">Print at 100% / actual size; disable fit-to-page. Verify the 50.8 mm span with a ruler. Mirror for an underside mounting view.</text><text x="20" y="113" class="small">Placement guide only. Driver boards, wiring, mounting holes and component footprints are not defined by this template.</text></svg>